solid ascii
  facet normal 6.655835e-001 -1.280561e-017 7.463234e-001
    outer loop
      vertex   -6.000000e+000 1.300000e+001 -2.065339e+000
      vertex   -6.000000e+000 6.000000e+000 -2.065339e+000
      vertex   -5.823881e+000 1.800000e+001 -2.222405e+000
    endloop
  endfacet
  facet normal 6.715589e-001 -3.792392e-004 7.409511e-001
    outer loop
      vertex   -6.032932e+000 1.800000e+001 -2.032932e+000
      vertex   -6.000000e+000 1.300000e+001 -2.065339e+000
      vertex   -5.823881e+000 1.800000e+001 -2.222405e+000
    endloop
  endfacet
  facet normal 7.307494e-001 3.885127e-004 6.826457e-001
    outer loop
      vertex   -6.032932e+000 1.800000e+001 -2.032932e+000
      vertex   -6.196539e+000 1.300000e+001 -1.854951e+000
      vertex   -6.000000e+000 1.300000e+001 -2.065339e+000
    endloop
  endfacet
  facet normal 7.409511e-001 -3.399495e-004 6.715589e-001
    outer loop
      vertex   -6.032932e+000 1.800000e+001 -2.032932e+000
      vertex   -6.222405e+000 1.800000e+001 -1.823881e+000
      vertex   -6.196539e+000 1.300000e+001 -1.854951e+000
    endloop
  endfacet
  facet normal 7.953609e-001 3.480635e-004 6.061361e-001
    outer loop
      vertex   -6.196539e+000 1.300000e+001 -1.854951e+000
      vertex   -6.222405e+000 1.800000e+001 -1.823881e+000
      vertex   -6.371050e+000 1.300000e+001 -1.625960e+000
    endloop
  endfacet
  facet normal 8.032075e-001 -2.983408e-004 5.956993e-001
    outer loop
      vertex   -6.371050e+000 1.300000e+001 -1.625960e+000
      vertex   -6.222405e+000 1.800000e+001 -1.823881e+000
      vertex   -6.390475e+000 1.800000e+001 -1.597264e+000
    endloop
  endfacet
  facet normal 8.577286e-001 -2.544133e-004 5.141027e-001
    outer loop
      vertex   -6.521783e+000 1.300000e+001 -1.380664e+000
      vertex   -6.390475e+000 1.800000e+001 -1.597264e+000
      vertex   -6.535524e+000 1.800000e+001 -1.355266e+000
    endloop
  endfacet
  facet normal 9.039893e-001 -2.081671e-004 4.275551e-001
    outer loop
      vertex   -6.647227e+000 1.300000e+001 -1.121522e+000
      vertex   -6.535524e+000 1.800000e+001 -1.355266e+000
      vertex   -6.656154e+000 1.800000e+001 -1.100215e+000
    endloop
  endfacet
  facet normal 9.415441e-001 -1.596025e-004 3.368898e-001
    outer loop
      vertex   -6.746124e+000 1.300000e+001 -8.511335e-001
      vertex   -6.656154e+000 1.800000e+001 -1.100215e+000
      vertex   -6.751203e+000 1.800000e+001 -8.345684e-001
    endloop
  endfacet
  facet normal 9.700312e-001 -1.087197e-004 2.429802e-001
    outer loop
      vertex   -6.817481e+000 1.300000e+001 -5.722091e-001
      vertex   -6.751203e+000 1.800000e+001 -8.345684e-001
      vertex   -6.819758e+000 1.800000e+001 -5.608847e-001
    endloop
  endfacet
  facet normal 9.891765e-001 -5.551875e-005 1.467305e-001
    outer loop
      vertex   -6.860584e+000 1.300000e+001 -2.875463e-001
      vertex   -6.819758e+000 1.800000e+001 -5.608847e-001
      vertex   -6.861156e+000 1.800000e+001 -2.817993e-001
    endloop
  endfacet
  facet normal 9.987955e-001 0.000000e+000 4.906767e-002
    outer loop
      vertex   -6.875000e+000 1.300000e+001 -3.520743e-016
      vertex   -6.861156e+000 1.800000e+001 -2.817993e-001
      vertex   -6.875000e+000 1.800000e+001 -3.520743e-016
    endloop
  endfacet
  facet normal 9.987955e-001 0.000000e+000 -4.906767e-002
    outer loop
      vertex   -6.861156e+000 1.800000e+001 2.817993e-001
      vertex   -6.875000e+000 1.300000e+001 -3.520743e-016
      vertex   -6.875000e+000 1.800000e+001 -3.520743e-016
    endloop
  endfacet
  facet normal 9.987457e-001 5.667758e-005 -5.007087e-002
    outer loop
      vertex   -6.861156e+000 1.800000e+001 2.817993e-001
      vertex   -6.860584e+000 1.300000e+001 2.875463e-001
      vertex   -6.875000e+000 1.300000e+001 -3.520743e-016
    endloop
  endfacet
  facet normal 9.891765e-001 -5.551875e-005 -1.467305e-001
    outer loop
      vertex   -6.861156e+000 1.800000e+001 2.817993e-001
      vertex   -6.819758e+000 1.800000e+001 5.608847e-001
      vertex   -6.860584e+000 1.300000e+001 2.875463e-001
    endloop
  endfacet
  facet normal 9.887299e-001 1.110374e-004 -1.497105e-001
    outer loop
      vertex   -6.860584e+000 1.300000e+001 2.875463e-001
      vertex   -6.819758e+000 1.800000e+001 5.608847e-001
      vertex   -6.817481e+000 1.300000e+001 5.722091e-001
    endloop
  endfacet
  facet normal 9.700312e-001 -1.087197e-004 -2.429802e-001
    outer loop
      vertex   -6.817481e+000 1.300000e+001 5.722091e-001
      vertex   -6.819758e+000 1.800000e+001 5.608847e-001
      vertex   -6.751203e+000 1.800000e+001 8.345684e-001
    endloop
  endfacet
  facet normal 9.415441e-001 -1.596025e-004 -3.368898e-001
    outer loop
      vertex   -6.746124e+000 1.300000e+001 8.511335e-001
      vertex   -6.751203e+000 1.800000e+001 8.345684e-001
      vertex   -6.656154e+000 1.800000e+001 1.100215e+000
    endloop
  endfacet
  facet normal 9.039893e-001 -2.081671e-004 -4.275551e-001
    outer loop
      vertex   -6.647227e+000 1.300000e+001 1.121522e+000
      vertex   -6.656154e+000 1.800000e+001 1.100215e+000
      vertex   -6.535524e+000 1.800000e+001 1.355266e+000
    endloop
  endfacet
  facet normal 8.577286e-001 -2.544133e-004 -5.141027e-001
    outer loop
      vertex   -6.521783e+000 1.300000e+001 1.380664e+000
      vertex   -6.535524e+000 1.800000e+001 1.355266e+000
      vertex   -6.390475e+000 1.800000e+001 1.597264e+000
    endloop
  endfacet
  facet normal 8.032075e-001 -2.983408e-004 -5.956993e-001
    outer loop
      vertex   -6.371050e+000 1.300000e+001 1.625960e+000
      vertex   -6.390475e+000 1.800000e+001 1.597264e+000
      vertex   -6.222405e+000 1.800000e+001 1.823881e+000
    endloop
  endfacet
  facet normal 7.409511e-001 -3.399495e-004 -6.715589e-001
    outer loop
      vertex   -6.196539e+000 1.300000e+001 1.854951e+000
      vertex   -6.222405e+000 1.800000e+001 1.823881e+000
      vertex   -6.032932e+000 1.800000e+001 2.032932e+000
    endloop
  endfacet
  facet normal 6.715589e-001 -3.792392e-004 -7.409511e-001
    outer loop
      vertex   -6.000000e+000 1.300000e+001 2.065339e+000
      vertex   -6.032932e+000 1.800000e+001 2.032932e+000
      vertex   -5.823881e+000 1.800000e+001 2.222405e+000
    endloop
  endfacet
  facet normal 6.416726e-001 6.212809e-004 -7.669784e-001
    outer loop
      vertex   -6.000000e+000 6.000000e+000 2.065339e+000
      vertex   -5.823881e+000 1.800000e+001 2.222405e+000
      vertex   -5.677651e+000 5.676272e+000 2.334762e+000
    endloop
  endfacet
  facet normal 6.655835e-001 -1.280561e-017 -7.463234e-001
    outer loop
      vertex   -6.000000e+000 6.000000e+000 2.065339e+000
      vertex   -6.000000e+000 1.300000e+001 2.065339e+000
      vertex   -5.823881e+000 1.800000e+001 2.222405e+000
    endloop
  endfacet
  facet normal 4.275551e-001 -1.340132e-004 9.039893e-001
    outer loop
      vertex   -5.100215e+000 1.800000e+001 -2.656154e+000
      vertex   -5.355266e+000 1.800000e+001 -2.535524e+000
      vertex   -5.319478e+000 5.316568e+000 -2.554330e+000
    endloop
  endfacet
  facet normal 3.933021e-001 5.819235e-004 9.194091e-001
    outer loop
      vertex   -4.933131e+000 4.928568e+000 -2.719355e+000
      vertex   -5.100215e+000 1.800000e+001 -2.656154e+000
      vertex   -5.319478e+000 5.316568e+000 -2.554330e+000
    endloop
  endfacet
  facet normal 3.368898e-001 -2.461837e-004 9.415440e-001
    outer loop
      vertex   -4.933131e+000 4.928568e+000 -2.719355e+000
      vertex   -4.834568e+000 1.800000e+001 -2.751203e+000
      vertex   -5.100215e+000 1.800000e+001 -2.656154e+000
    endloop
  endfacet
  facet normal 2.549983e-001 4.331823e-004 9.669414e-001
    outer loop
      vertex   -4.933131e+000 4.928568e+000 -2.719355e+000
      vertex   -4.526858e+000 4.520558e+000 -2.826313e+000
      vertex   -4.834568e+000 1.800000e+001 -2.751203e+000
    endloop
  endfacet
  facet normal 2.429802e-001 1.416133e-004 9.700312e-001
    outer loop
      vertex   -4.834568e+000 1.800000e+001 -2.751203e+000
      vertex   -4.526858e+000 4.520558e+000 -2.826313e+000
      vertex   -4.560885e+000 1.800000e+001 -2.819758e+000
    endloop
  endfacet
  facet normal 1.467305e-001 -1.106651e-004 9.891765e-001
    outer loop
      vertex   -4.560885e+000 1.800000e+001 -2.819758e+000
      vertex   -4.526858e+000 4.520558e+000 -2.826313e+000
      vertex   -4.281799e+000 1.800000e+001 -2.861156e+000
    endloop
  endfacet
  facet normal 1.114764e-001 5.421252e-004 9.937669e-001
    outer loop
      vertex   -4.281799e+000 1.800000e+001 -2.861156e+000
      vertex   -4.526858e+000 4.520558e+000 -2.826313e+000
      vertex   -4.109335e+000 4.101249e+000 -2.872920e+000
    endloop
  endfacet
  facet normal -3.465948e-002 4.221940e-004 9.993991e-001
    outer loop
      vertex   -4.000000e+000 1.800000e+001 -2.875000e+000
      vertex   -4.109335e+000 4.101249e+000 -2.872920e+000
      vertex   -3.689477e+000 3.679596e+000 -2.858181e+000
    endloop
  endfacet
  facet normal -1.467305e-001 -8.882895e-005 9.891765e-001
    outer loop
      vertex   -3.718201e+000 1.800000e+001 -2.861156e+000
      vertex   -3.689477e+000 3.679596e+000 -2.858181e+000
      vertex   -3.439115e+000 1.800000e+001 -2.819758e+000
    endloop
  endfacet
  facet normal -4.906767e-002 1.090588e-004 9.987955e-001
    outer loop
      vertex   -3.718201e+000 1.800000e+001 -2.861156e+000
      vertex   -4.000000e+000 1.800000e+001 -2.875000e+000
      vertex   -3.689477e+000 3.679596e+000 -2.858181e+000
    endloop
  endfacet
  facet normal -1.798647e-001 5.051697e-004 9.836912e-001
    outer loop
      vertex   -3.689477e+000 3.679596e+000 -2.858181e+000
      vertex   -3.276250e+000 3.264602e+000 -2.782411e+000
      vertex   -3.439115e+000 1.800000e+001 -2.819758e+000
    endloop
  endfacet
  facet normal -2.429802e-001 -2.270447e-004 9.700312e-001
    outer loop
      vertex   -3.439115e+000 1.800000e+001 -2.819758e+000
      vertex   -3.276250e+000 3.264602e+000 -2.782411e+000
      vertex   -3.165432e+000 1.800000e+001 -2.751203e+000
    endloop
  endfacet
  facet normal -3.214063e-001 4.116658e-004 9.469413e-001
    outer loop
      vertex   -3.165432e+000 1.800000e+001 -2.751203e+000
      vertex   -3.276250e+000 3.264602e+000 -2.782411e+000
      vertex   -2.878478e+000 2.865128e+000 -2.647227e+000
    endloop
  endfacet
  facet normal -4.275551e-001 -6.877070e-005 9.039893e-001
    outer loop
      vertex   -2.899785e+000 1.800000e+001 -2.656154e+000
      vertex   -2.878478e+000 2.865128e+000 -2.647227e+000
      vertex   -2.644734e+000 1.800000e+001 -2.535524e+000
    endloop
  endfacet
  facet normal -3.368899e-001 8.102107e-005 9.415441e-001
    outer loop
      vertex   -2.899785e+000 1.800000e+001 -2.656154e+000
      vertex   -3.165432e+000 1.800000e+001 -2.751203e+000
      vertex   -2.878478e+000 2.865128e+000 -2.647227e+000
    endloop
  endfacet
  facet normal -9.463388e-001 1.224302e-005 3.231762e-001
    outer loop
      vertex   -1.247126e+000 1.226800e+000 -8.290400e-001
      vertex   -1.248797e+000 1.800000e+001 -8.345684e-001
      vertex   -1.315056e+000 1.295021e+000 -1.027959e+000
    endloop
  endfacet
  facet normal -9.674238e-001 -1.293403e-005 2.531624e-001
    outer loop
      vertex   -1.247126e+000 1.226800e+000 -8.290400e-001
      vertex   -1.193911e+000 1.173357e+000 -6.256890e-001
      vertex   -1.248797e+000 1.800000e+001 -8.345684e-001
    endloop
  endfacet
  facet normal -9.700312e-001 -1.478371e-004 2.429802e-001
    outer loop
      vertex   -1.248797e+000 1.800000e+001 -8.345684e-001
      vertex   -1.193911e+000 1.173357e+000 -6.256890e-001
      vertex   -1.180242e+000 1.800000e+001 -5.608847e-001
    endloop
  endfacet
  facet normal -9.833313e-001 9.850021e-005 1.818231e-001
    outer loop
      vertex   -1.180242e+000 1.800000e+001 -5.608847e-001
      vertex   -1.193911e+000 1.173357e+000 -6.256890e-001
      vertex   -1.155695e+000 1.134979e+000 -4.189934e-001
    endloop
  endfacet
  facet normal -9.939885e-001 1.025427e-004 1.094847e-001
    outer loop
      vertex   -1.138844e+000 1.800000e+001 -2.817993e-001
      vertex   -1.155695e+000 1.134979e+000 -4.189934e-001
      vertex   -1.132684e+000 1.111869e+000 -2.100581e-001
    endloop
  endfacet
  facet normal -9.993316e-001 0.000000e+000 3.655629e-002
    outer loop
      vertex   -1.125000e+000 1.800000e+001 0.000000e+000
      vertex   -1.132684e+000 1.111869e+000 -2.100581e-001
      vertex   -1.125000e+000 1.104152e+000 0.000000e+000
    endloop
  endfacet
  facet normal -9.993316e-001 -0.000000e+000 -3.655629e-002
    outer loop
      vertex   -1.132684e+000 1.111869e+000 2.100581e-001
      vertex   -1.125000e+000 1.800000e+001 0.000000e+000
      vertex   -1.125000e+000 1.104152e+000 0.000000e+000
    endloop
  endfacet
  facet normal -9.987954e-001 -1.558632e-004 -4.906767e-002
    outer loop
      vertex   -1.132684e+000 1.111869e+000 2.100581e-001
      vertex   -1.138844e+000 1.800000e+001 2.817993e-001
      vertex   -1.125000e+000 1.800000e+001 0.000000e+000
    endloop
  endfacet
  facet normal -9.939885e-001 1.025427e-004 -1.094847e-001
    outer loop
      vertex   -1.132684e+000 1.111869e+000 2.100581e-001
      vertex   -1.155695e+000 1.134979e+000 4.189934e-001
      vertex   -1.138844e+000 1.800000e+001 2.817993e-001
    endloop
  endfacet
  facet normal -9.891765e-001 -2.052540e-004 -1.467305e-001
    outer loop
      vertex   -1.138844e+000 1.800000e+001 2.817993e-001
      vertex   -1.155695e+000 1.134979e+000 4.189934e-001
      vertex   -1.180242e+000 1.800000e+001 5.608847e-001
    endloop
  endfacet
  facet normal -9.833313e-001 9.850021e-005 -1.818231e-001
    outer loop
      vertex   -1.180242e+000 1.800000e+001 5.608847e-001
      vertex   -1.155695e+000 1.134979e+000 4.189934e-001
      vertex   -1.193911e+000 1.173357e+000 6.256890e-001
    endloop
  endfacet
  facet normal -9.674238e-001 -1.293403e-005 -2.531624e-001
    outer loop
      vertex   -1.248797e+000 1.800000e+001 8.345684e-001
      vertex   -1.193911e+000 1.173357e+000 6.256890e-001
      vertex   -1.247126e+000 1.226800e+000 8.290400e-001
    endloop
  endfacet
  facet normal -9.463388e-001 1.224302e-005 -3.231762e-001
    outer loop
      vertex   -1.315056e+000 1.295021e+000 1.027959e+000
      vertex   -1.248797e+000 1.800000e+001 8.345684e-001
      vertex   -1.247126e+000 1.226800e+000 8.290400e-001
    endloop
  endfacet
  facet normal -9.415441e-001 -1.655361e-004 -3.368898e-001
    outer loop
      vertex   -1.315056e+000 1.295021e+000 1.027959e+000
      vertex   -1.343846e+000 1.800000e+001 1.100215e+000
      vertex   -1.248797e+000 1.800000e+001 8.345684e-001
    endloop
  endfacet
  facet normal -9.201821e-001 1.074500e-004 -3.914907e-001
    outer loop
      vertex   -1.315056e+000 1.295021e+000 1.027959e+000
      vertex   -1.397339e+000 1.377655e+000 1.221384e+000
      vertex   -1.343846e+000 1.800000e+001 1.100215e+000
    endloop
  endfacet
  facet normal -9.039893e-001 -2.075526e-004 -4.275551e-001
    outer loop
      vertex   -1.343846e+000 1.800000e+001 1.100215e+000
      vertex   -1.397339e+000 1.377655e+000 1.221384e+000
      vertex   -1.464476e+000 1.800000e+001 1.355266e+000
    endloop
  endfacet
  facet normal -8.717117e-001 4.259212e-004 -4.900190e-001
    outer loop
      vertex   -1.464476e+000 1.800000e+001 1.355266e+000
      vertex   -1.397339e+000 1.377655e+000 1.221384e+000
      vertex   -1.603127e+000 1.584324e+000 1.587647e+000
    endloop
  endfacet
  facet normal -8.032075e-001 3.593824e-005 -5.956993e-001
    outer loop
      vertex   -1.609525e+000 1.800000e+001 1.597264e+000
      vertex   -1.603127e+000 1.584324e+000 1.587647e+000
      vertex   -1.777595e+000 1.800000e+001 1.823881e+000
    endloop
  endfacet
  facet normal -8.577286e-001 -3.311458e-005 -5.141027e-001
    outer loop
      vertex   -1.609525e+000 1.800000e+001 1.597264e+000
      vertex   -1.464476e+000 1.800000e+001 1.355266e+000
      vertex   -1.603127e+000 1.584324e+000 1.587647e+000
    endloop
  endfacet
  facet normal -4.906767e-002 1.090588e-004 -9.987955e-001
    outer loop
      vertex   -4.000000e+000 1.800000e+001 2.875000e+000
      vertex   -3.718201e+000 1.800000e+001 2.861156e+000
      vertex   -3.689477e+000 3.679596e+000 2.858181e+000
    endloop
  endfacet
  facet normal -3.465948e-002 4.221940e-004 -9.993991e-001
    outer loop
      vertex   -4.109335e+000 4.101249e+000 2.872920e+000
      vertex   -4.000000e+000 1.800000e+001 2.875000e+000
      vertex   -3.689477e+000 3.679596e+000 2.858181e+000
    endloop
  endfacet
  facet normal 4.906767e-002 -2.365381e-004 -9.987954e-001
    outer loop
      vertex   -4.109335e+000 4.101249e+000 2.872920e+000
      vertex   -4.281799e+000 1.800000e+001 2.861156e+000
      vertex   -4.000000e+000 1.800000e+001 2.875000e+000
    endloop
  endfacet
  facet normal 1.114764e-001 5.421252e-004 -9.937669e-001
    outer loop
      vertex   -4.109335e+000 4.101249e+000 2.872920e+000
      vertex   -4.526858e+000 4.520558e+000 2.826313e+000
      vertex   -4.281799e+000 1.800000e+001 2.861156e+000
    endloop
  endfacet
  facet normal 1.467305e-001 -1.106651e-004 -9.891765e-001
    outer loop
      vertex   -4.281799e+000 1.800000e+001 2.861156e+000
      vertex   -4.526858e+000 4.520558e+000 2.826313e+000
      vertex   -4.560885e+000 1.800000e+001 2.819758e+000
    endloop
  endfacet
  facet normal 2.429802e-001 1.416133e-004 -9.700312e-001
    outer loop
      vertex   -4.560885e+000 1.800000e+001 2.819758e+000
      vertex   -4.526858e+000 4.520558e+000 2.826313e+000
      vertex   -4.834568e+000 1.800000e+001 2.751203e+000
    endloop
  endfacet
  facet normal 2.549983e-001 4.331823e-004 -9.669414e-001
    outer loop
      vertex   -4.834568e+000 1.800000e+001 2.751203e+000
      vertex   -4.526858e+000 4.520558e+000 2.826313e+000
      vertex   -4.933131e+000 4.928568e+000 2.719355e+000
    endloop
  endfacet
  facet normal 3.933021e-001 5.819235e-004 -9.194091e-001
    outer loop
      vertex   -5.100215e+000 1.800000e+001 2.656154e+000
      vertex   -4.933131e+000 4.928568e+000 2.719355e+000
      vertex   -5.319478e+000 5.316568e+000 2.554330e+000
    endloop
  endfacet
  facet normal 5.141027e-001 1.787807e-004 -8.577286e-001
    outer loop
      vertex   -5.355266e+000 1.800000e+001 2.535524e+000
      vertex   -5.319478e+000 5.316568e+000 2.554330e+000
      vertex   -5.597264e+000 1.800000e+001 2.390475e+000
    endloop
  endfacet
  facet normal 4.275551e-001 -1.340132e-004 -9.039893e-001
    outer loop
      vertex   -5.355266e+000 1.800000e+001 2.535524e+000
      vertex   -5.100215e+000 1.800000e+001 2.656154e+000
      vertex   -5.319478e+000 5.316568e+000 2.554330e+000
    endloop
  endfacet
  facet normal -1.798647e-001 5.051697e-004 -9.836912e-001
    outer loop
      vertex   -3.689477e+000 3.679596e+000 2.858181e+000
      vertex   -3.439115e+000 1.800000e+001 2.819758e+000
      vertex   -3.276250e+000 3.264602e+000 2.782411e+000
    endloop
  endfacet
  facet normal -1.467305e-001 -8.882895e-005 -9.891765e-001
    outer loop
      vertex   -3.689477e+000 3.679596e+000 2.858181e+000
      vertex   -3.718201e+000 1.800000e+001 2.861156e+000
      vertex   -3.439115e+000 1.800000e+001 2.819758e+000
    endloop
  endfacet
  facet normal 5.229594e-001 4.421425e-004 -8.523575e-001
    outer loop
      vertex   -5.319478e+000 5.316568e+000 2.554330e+000
      vertex   -5.677651e+000 5.676272e+000 2.334762e+000
      vertex   -5.597264e+000 1.800000e+001 2.390475e+000
    endloop
  endfacet
  facet normal 5.956993e-001 -2.545303e-004 -8.032075e-001
    outer loop
      vertex   -5.597264e+000 1.800000e+001 2.390475e+000
      vertex   -5.677651e+000 5.676272e+000 2.334762e+000
      vertex   -5.823881e+000 1.800000e+001 2.222405e+000
    endloop
  endfacet
  facet normal 7.307494e-001 3.885127e-004 -6.826457e-001
    outer loop
      vertex   -6.000000e+000 1.300000e+001 2.065339e+000
      vertex   -6.196539e+000 1.300000e+001 1.854951e+000
      vertex   -6.032932e+000 1.800000e+001 2.032932e+000
    endloop
  endfacet
  facet normal 7.953609e-001 3.480635e-004 -6.061361e-001
    outer loop
      vertex   -6.196539e+000 1.300000e+001 1.854951e+000
      vertex   -6.371050e+000 1.300000e+001 1.625960e+000
      vertex   -6.222405e+000 1.800000e+001 1.823881e+000
    endloop
  endfacet
  facet normal 8.519962e-001 3.052954e-004 -5.235479e-001
    outer loop
      vertex   -6.371050e+000 1.300000e+001 1.625960e+000
      vertex   -6.521783e+000 1.300000e+001 1.380664e+000
      vertex   -6.390475e+000 1.800000e+001 1.597264e+000
    endloop
  endfacet
  facet normal 9.000874e-001 2.602085e-004 -4.357094e-001
    outer loop
      vertex   -6.521783e+000 1.300000e+001 1.380664e+000
      vertex   -6.647227e+000 1.300000e+001 1.121522e+000
      vertex   -6.535524e+000 1.800000e+001 1.355266e+000
    endloop
  endfacet
  facet normal 9.391521e-001 2.128031e-004 -3.435014e-001
    outer loop
      vertex   -6.647227e+000 1.300000e+001 1.121522e+000
      vertex   -6.746124e+000 1.300000e+001 8.511335e-001
      vertex   -6.656154e+000 1.800000e+001 1.100215e+000
    endloop
  endfacet
  facet normal 9.687987e-001 1.630793e-004 -2.478487e-001
    outer loop
      vertex   -6.746124e+000 1.300000e+001 8.511335e-001
      vertex   -6.817481e+000 1.300000e+001 5.722091e-001
      vertex   -6.751203e+000 1.800000e+001 8.345684e-001
    endloop
  endfacet
  facet normal 9.987457e-001 5.667758e-005 5.007087e-002
    outer loop
      vertex   -6.875000e+000 1.300000e+001 -3.520743e-016
      vertex   -6.860584e+000 1.300000e+001 -2.875463e-001
      vertex   -6.861156e+000 1.800000e+001 -2.817993e-001
    endloop
  endfacet
  facet normal 9.887299e-001 1.110374e-004 1.497105e-001
    outer loop
      vertex   -6.860584e+000 1.300000e+001 -2.875463e-001
      vertex   -6.817481e+000 1.300000e+001 -5.722091e-001
      vertex   -6.819758e+000 1.800000e+001 -5.608847e-001
    endloop
  endfacet
  facet normal 9.687987e-001 1.630793e-004 2.478487e-001
    outer loop
      vertex   -6.817481e+000 1.300000e+001 -5.722091e-001
      vertex   -6.746124e+000 1.300000e+001 -8.511335e-001
      vertex   -6.751203e+000 1.800000e+001 -8.345684e-001
    endloop
  endfacet
  facet normal 9.391521e-001 2.128031e-004 3.435014e-001
    outer loop
      vertex   -6.746124e+000 1.300000e+001 -8.511335e-001
      vertex   -6.647227e+000 1.300000e+001 -1.121522e+000
      vertex   -6.656154e+000 1.800000e+001 -1.100215e+000
    endloop
  endfacet
  facet normal 9.000874e-001 2.602085e-004 4.357094e-001
    outer loop
      vertex   -6.647227e+000 1.300000e+001 -1.121522e+000
      vertex   -6.521783e+000 1.300000e+001 -1.380664e+000
      vertex   -6.535524e+000 1.800000e+001 -1.355266e+000
    endloop
  endfacet
  facet normal 8.519962e-001 3.052954e-004 5.235479e-001
    outer loop
      vertex   -6.521783e+000 1.300000e+001 -1.380664e+000
      vertex   -6.371050e+000 1.300000e+001 -1.625960e+000
      vertex   -6.390475e+000 1.800000e+001 -1.597264e+000
    endloop
  endfacet
  facet normal 3.368898e-001 -2.461837e-004 -9.415440e-001
    outer loop
      vertex   -5.100215e+000 1.800000e+001 2.656154e+000
      vertex   -4.834568e+000 1.800000e+001 2.751203e+000
      vertex   -4.933131e+000 4.928568e+000 2.719355e+000
    endloop
  endfacet
  facet normal -2.429802e-001 -2.270447e-004 -9.700312e-001
    outer loop
      vertex   -3.439115e+000 1.800000e+001 2.819758e+000
      vertex   -3.165432e+000 1.800000e+001 2.751203e+000
      vertex   -3.276250e+000 3.264602e+000 2.782411e+000
    endloop
  endfacet
  facet normal -3.214063e-001 4.116658e-004 -9.469413e-001
    outer loop
      vertex   -3.276250e+000 3.264602e+000 2.782411e+000
      vertex   -3.165432e+000 1.800000e+001 2.751203e+000
      vertex   -2.878478e+000 2.865128e+000 2.647227e+000
    endloop
  endfacet
  facet normal -3.368899e-001 8.102107e-005 -9.415441e-001
    outer loop
      vertex   -2.878478e+000 2.865128e+000 2.647227e+000
      vertex   -3.165432e+000 1.800000e+001 2.751203e+000
      vertex   -2.899785e+000 1.800000e+001 2.656154e+000
    endloop
  endfacet
  facet normal -4.275551e-001 -6.877070e-005 -9.039893e-001
    outer loop
      vertex   -2.644734e+000 1.800000e+001 2.535524e+000
      vertex   -2.878478e+000 2.865128e+000 2.647227e+000
      vertex   -2.899785e+000 1.800000e+001 2.656154e+000
    endloop
  endfacet
  facet normal -4.559512e-001 4.729927e-004 -8.900047e-001
    outer loop
      vertex   -2.644734e+000 1.800000e+001 2.535524e+000
      vertex   -2.504653e+000 2.489705e+000 2.455517e+000
      vertex   -2.878478e+000 2.865128e+000 2.647227e+000
    endloop
  endfacet
  facet normal -5.141027e-001 -2.186935e-004 -8.577286e-001
    outer loop
      vertex   -2.644734e+000 1.800000e+001 2.535524e+000
      vertex   -2.402736e+000 1.800000e+001 2.390475e+000
      vertex   -2.504653e+000 2.489705e+000 2.455517e+000
    endloop
  endfacet
  facet normal -5.808653e-001 4.033762e-004 -8.139996e-001
    outer loop
      vertex   -2.504653e+000 2.489705e+000 2.455517e+000
      vertex   -2.402736e+000 1.800000e+001 2.390475e+000
      vertex   -2.162759e+000 2.146349e+000 2.211373e+000
    endloop
  endfacet
  facet normal -5.956993e-001 5.691464e-005 -8.032075e-001
    outer loop
      vertex   -2.162759e+000 2.146349e+000 2.211373e+000
      vertex   -2.402736e+000 1.800000e+001 2.390475e+000
      vertex   -2.176119e+000 1.800000e+001 2.222405e+000
    endloop
  endfacet
  facet normal -6.715590e-001 -5.033620e-005 -7.409511e-001
    outer loop
      vertex   -1.967068e+000 1.800000e+001 2.032932e+000
      vertex   -2.162759e+000 2.146349e+000 2.211373e+000
      vertex   -2.176119e+000 1.800000e+001 2.222405e+000
    endloop
  endfacet
  facet normal -6.932982e-001 4.464953e-004 -7.206507e-001
    outer loop
      vertex   -1.967068e+000 1.800000e+001 2.032932e+000
      vertex   -1.860096e+000 1.842392e+000 1.920009e+000
      vertex   -2.162759e+000 2.146349e+000 2.211373e+000
    endloop
  endfacet
  facet normal -7.409511e-001 -2.120863e-004 -6.715589e-001
    outer loop
      vertex   -1.967068e+000 1.800000e+001 2.032932e+000
      vertex   -1.777595e+000 1.800000e+001 1.823881e+000
      vertex   -1.860096e+000 1.842392e+000 1.920009e+000
    endloop
  endfacet
  facet normal -7.909693e-001 3.985089e-004 -6.118557e-001
    outer loop
      vertex   -1.860096e+000 1.842392e+000 1.920009e+000
      vertex   -1.777595e+000 1.800000e+001 1.823881e+000
      vertex   -1.603127e+000 1.584324e+000 1.587647e+000
    endloop
  endfacet
  facet normal -9.700312e-001 -1.478371e-004 -2.429802e-001
    outer loop
      vertex   -1.248797e+000 1.800000e+001 8.345684e-001
      vertex   -1.180242e+000 1.800000e+001 5.608847e-001
      vertex   -1.193911e+000 1.173357e+000 6.256890e-001
    endloop
  endfacet
  facet normal -9.987954e-001 -1.558632e-004 4.906767e-002
    outer loop
      vertex   -1.125000e+000 1.800000e+001 0.000000e+000
      vertex   -1.138844e+000 1.800000e+001 -2.817993e-001
      vertex   -1.132684e+000 1.111869e+000 -2.100581e-001
    endloop
  endfacet
  facet normal -9.891765e-001 -2.052540e-004 1.467305e-001
    outer loop
      vertex   -1.138844e+000 1.800000e+001 -2.817993e-001
      vertex   -1.180242e+000 1.800000e+001 -5.608847e-001
      vertex   -1.155695e+000 1.134979e+000 -4.189934e-001
    endloop
  endfacet
  facet normal -9.415441e-001 -1.655361e-004 3.368898e-001
    outer loop
      vertex   -1.248797e+000 1.800000e+001 -8.345684e-001
      vertex   -1.343846e+000 1.800000e+001 -1.100215e+000
      vertex   -1.315056e+000 1.295021e+000 -1.027959e+000
    endloop
  endfacet
  facet normal -9.201821e-001 1.074500e-004 3.914907e-001
    outer loop
      vertex   -1.315056e+000 1.295021e+000 -1.027959e+000
      vertex   -1.343846e+000 1.800000e+001 -1.100215e+000
      vertex   -1.397339e+000 1.377655e+000 -1.221384e+000
    endloop
  endfacet
  facet normal -9.039893e-001 -2.075526e-004 4.275551e-001
    outer loop
      vertex   -1.397339e+000 1.377655e+000 -1.221384e+000
      vertex   -1.343846e+000 1.800000e+001 -1.100215e+000
      vertex   -1.464476e+000 1.800000e+001 -1.355266e+000
    endloop
  endfacet
  facet normal -8.577286e-001 -3.311458e-005 5.141027e-001
    outer loop
      vertex   -1.603127e+000 1.584324e+000 -1.587647e+000
      vertex   -1.464476e+000 1.800000e+001 -1.355266e+000
      vertex   -1.609525e+000 1.800000e+001 -1.597264e+000
    endloop
  endfacet
  facet normal -8.032075e-001 3.593824e-005 5.956993e-001
    outer loop
      vertex   -1.777595e+000 1.800000e+001 -1.823881e+000
      vertex   -1.603127e+000 1.584324e+000 -1.587647e+000
      vertex   -1.609525e+000 1.800000e+001 -1.597264e+000
    endloop
  endfacet
  facet normal -7.909693e-001 3.985089e-004 6.118557e-001
    outer loop
      vertex   -1.777595e+000 1.800000e+001 -1.823881e+000
      vertex   -1.860096e+000 1.842392e+000 -1.920009e+000
      vertex   -1.603127e+000 1.584324e+000 -1.587647e+000
    endloop
  endfacet
  facet normal -7.409511e-001 -2.120863e-004 6.715589e-001
    outer loop
      vertex   -1.777595e+000 1.800000e+001 -1.823881e+000
      vertex   -1.967068e+000 1.800000e+001 -2.032932e+000
      vertex   -1.860096e+000 1.842392e+000 -1.920009e+000
    endloop
  endfacet
  facet normal -6.932982e-001 4.464953e-004 7.206507e-001
    outer loop
      vertex   -1.860096e+000 1.842392e+000 -1.920009e+000
      vertex   -1.967068e+000 1.800000e+001 -2.032932e+000
      vertex   -2.162759e+000 2.146349e+000 -2.211373e+000
    endloop
  endfacet
  facet normal -6.715590e-001 -5.033620e-005 7.409511e-001
    outer loop
      vertex   -2.162759e+000 2.146349e+000 -2.211373e+000
      vertex   -1.967068e+000 1.800000e+001 -2.032932e+000
      vertex   -2.176119e+000 1.800000e+001 -2.222405e+000
    endloop
  endfacet
  facet normal -5.956993e-001 5.691464e-005 8.032075e-001
    outer loop
      vertex   -2.402736e+000 1.800000e+001 -2.390475e+000
      vertex   -2.162759e+000 2.146349e+000 -2.211373e+000
      vertex   -2.176119e+000 1.800000e+001 -2.222405e+000
    endloop
  endfacet
  facet normal -5.808653e-001 4.033762e-004 8.139996e-001
    outer loop
      vertex   -2.402736e+000 1.800000e+001 -2.390475e+000
      vertex   -2.504653e+000 2.489705e+000 -2.455517e+000
      vertex   -2.162759e+000 2.146349e+000 -2.211373e+000
    endloop
  endfacet
  facet normal -5.141027e-001 -2.186935e-004 8.577286e-001
    outer loop
      vertex   -2.402736e+000 1.800000e+001 -2.390475e+000
      vertex   -2.644734e+000 1.800000e+001 -2.535524e+000
      vertex   -2.504653e+000 2.489705e+000 -2.455517e+000
    endloop
  endfacet
  facet normal -4.559512e-001 4.729927e-004 8.900047e-001
    outer loop
      vertex   -2.504653e+000 2.489705e+000 -2.455517e+000
      vertex   -2.644734e+000 1.800000e+001 -2.535524e+000
      vertex   -2.878478e+000 2.865128e+000 -2.647227e+000
    endloop
  endfacet
  facet normal 4.906767e-002 -2.365381e-004 9.987954e-001
    outer loop
      vertex   -4.000000e+000 1.800000e+001 -2.875000e+000
      vertex   -4.281799e+000 1.800000e+001 -2.861156e+000
      vertex   -4.109335e+000 4.101249e+000 -2.872920e+000
    endloop
  endfacet
  facet normal 5.141027e-001 1.787807e-004 8.577286e-001
    outer loop
      vertex   -5.355266e+000 1.800000e+001 -2.535524e+000
      vertex   -5.597264e+000 1.800000e+001 -2.390475e+000
      vertex   -5.319478e+000 5.316568e+000 -2.554330e+000
    endloop
  endfacet
  facet normal 5.229594e-001 4.421425e-004 8.523575e-001
    outer loop
      vertex   -5.319478e+000 5.316568e+000 -2.554330e+000
      vertex   -5.597264e+000 1.800000e+001 -2.390475e+000
      vertex   -5.677651e+000 5.676272e+000 -2.334762e+000
    endloop
  endfacet
  facet normal 5.956993e-001 -2.545303e-004 8.032075e-001
    outer loop
      vertex   -5.677651e+000 5.676272e+000 -2.334762e+000
      vertex   -5.597264e+000 1.800000e+001 -2.390475e+000
      vertex   -5.823881e+000 1.800000e+001 -2.222405e+000
    endloop
  endfacet
  facet normal 6.416726e-001 6.212809e-004 7.669784e-001
    outer loop
      vertex   -6.000000e+000 6.000000e+000 -2.065339e+000
      vertex   -5.677651e+000 5.676272e+000 -2.334762e+000
      vertex   -5.823881e+000 1.800000e+001 -2.222405e+000
    endloop
  endfacet
  facet normal -8.717117e-001 4.259212e-004 4.900190e-001
    outer loop
      vertex   -1.603127e+000 1.584324e+000 -1.587647e+000
      vertex   -1.397339e+000 1.377655e+000 -1.221384e+000
      vertex   -1.464476e+000 1.800000e+001 -1.355266e+000
    endloop
  endfacet
  facet normal -6.040960e-016 -1.000000e+000 -5.643297e-016
    outer loop
      vertex   -6.000000e+000 1.300000e+001 -2.065339e+000
      vertex   -6.196539e+000 1.300000e+001 -1.854951e+000
      vertex   -6.000000e+000 1.300000e+001 -6.000000e+000
    endloop
  endfacet
  facet normal -7.495532e-016 -1.000000e+000 -5.712266e-016
    outer loop
      vertex   -6.000000e+000 1.300000e+001 -6.000000e+000
      vertex   -6.196539e+000 1.300000e+001 -1.854951e+000
      vertex   -6.371050e+000 1.300000e+001 -1.625960e+000
    endloop
  endfacet
  facet normal -1.282251e-016 -1.000000e+000 -7.879378e-017
    outer loop
      vertex   -2.100000e+001 1.300000e+001 -6.000000e+000
      vertex   -6.371050e+000 1.300000e+001 -1.625960e+000
      vertex   -6.521783e+000 1.300000e+001 -1.380664e+000
    endloop
  endfacet
  facet normal -1.328469e-016 -1.000000e+000 -6.430782e-017
    outer loop
      vertex   -6.647227e+000 1.300000e+001 -1.121522e+000
      vertex   -2.100000e+001 1.300000e+001 -6.000000e+000
      vertex   -6.521783e+000 1.300000e+001 -1.380664e+000
    endloop
  endfacet
  facet normal -1.375987e-016 -1.000000e+000 -5.032770e-017
    outer loop
      vertex   -6.647227e+000 1.300000e+001 -1.121522e+000
      vertex   -6.746124e+000 1.300000e+001 -8.511335e-001
      vertex   -2.100000e+001 1.300000e+001 -6.000000e+000
    endloop
  endfacet
  facet normal -1.426003e-016 -1.000000e+000 -3.648158e-017
    outer loop
      vertex   -2.100000e+001 1.300000e+001 -6.000000e+000
      vertex   -6.746124e+000 1.300000e+001 -8.511335e-001
      vertex   -6.817481e+000 1.300000e+001 -5.722091e-001
    endloop
  endfacet
  facet normal -1.479865e-016 -1.000000e+000 -2.240767e-017
    outer loop
      vertex   -6.860584e+000 1.300000e+001 -2.875463e-001
      vertex   -2.100000e+001 1.300000e+001 -6.000000e+000
      vertex   -6.817481e+000 1.300000e+001 -5.722091e-001
    endloop
  endfacet
  facet normal -1.539218e-016 -1.000000e+000 -7.716679e-018
    outer loop
      vertex   -6.860584e+000 1.300000e+001 -2.875463e-001
      vertex   -6.875000e+000 1.300000e+001 -3.520743e-016
      vertex   -2.100000e+001 1.300000e+001 -6.000000e+000
    endloop
  endfacet
  facet normal -1.571997e-016 -1.000000e+000 0.000000e+000
    outer loop
      vertex   -2.100000e+001 1.300000e+001 -6.000000e+000
      vertex   -6.875000e+000 1.300000e+001 -3.520743e-016
      vertex   -2.100000e+001 1.300000e+001 6.000000e+000
    endloop
  endfacet
  facet normal -1.539218e-016 -1.000000e+000 7.716679e-018
    outer loop
      vertex   -2.100000e+001 1.300000e+001 6.000000e+000
      vertex   -6.875000e+000 1.300000e+001 -3.520743e-016
      vertex   -6.860584e+000 1.300000e+001 2.875463e-001
    endloop
  endfacet
  facet normal -1.479865e-016 -1.000000e+000 2.240767e-017
    outer loop
      vertex   -6.817481e+000 1.300000e+001 5.722091e-001
      vertex   -2.100000e+001 1.300000e+001 6.000000e+000
      vertex   -6.860584e+000 1.300000e+001 2.875463e-001
    endloop
  endfacet
  facet normal -1.426003e-016 -1.000000e+000 3.648158e-017
    outer loop
      vertex   -6.817481e+000 1.300000e+001 5.722091e-001
      vertex   -6.746124e+000 1.300000e+001 8.511335e-001
      vertex   -2.100000e+001 1.300000e+001 6.000000e+000
    endloop
  endfacet
  facet normal -1.375987e-016 -1.000000e+000 5.032770e-017
    outer loop
      vertex   -2.100000e+001 1.300000e+001 6.000000e+000
      vertex   -6.746124e+000 1.300000e+001 8.511335e-001
      vertex   -6.647227e+000 1.300000e+001 1.121522e+000
    endloop
  endfacet
  facet normal -1.328469e-016 -1.000000e+000 6.430782e-017
    outer loop
      vertex   -6.521783e+000 1.300000e+001 1.380664e+000
      vertex   -2.100000e+001 1.300000e+001 6.000000e+000
      vertex   -6.647227e+000 1.300000e+001 1.121522e+000
    endloop
  endfacet
  facet normal -1.282251e-016 -1.000000e+000 7.879378e-017
    outer loop
      vertex   -6.521783e+000 1.300000e+001 1.380664e+000
      vertex   -6.371050e+000 1.300000e+001 1.625960e+000
      vertex   -2.100000e+001 1.300000e+001 6.000000e+000
    endloop
  endfacet
  facet normal 0.000000e+000 -1.000000e+000 5.076420e-016
    outer loop
      vertex   -2.100000e+001 1.300000e+001 6.000000e+000
      vertex   -6.371050e+000 1.300000e+001 1.625960e+000
      vertex   -6.000000e+000 1.300000e+001 6.000000e+000
    endloop
  endfacet
  facet normal -7.495532e-016 -1.000000e+000 5.712266e-016
    outer loop
      vertex   -6.000000e+000 1.300000e+001 6.000000e+000
      vertex   -6.371050e+000 1.300000e+001 1.625960e+000
      vertex   -6.196539e+000 1.300000e+001 1.854951e+000
    endloop
  endfacet
  facet normal -6.040960e-016 -1.000000e+000 5.643297e-016
    outer loop
      vertex   -6.000000e+000 1.300000e+001 2.065339e+000
      vertex   -6.000000e+000 1.300000e+001 6.000000e+000
      vertex   -6.196539e+000 1.300000e+001 1.854951e+000
    endloop
  endfacet
  facet normal 0.000000e+000 -1.000000e+000 -5.076420e-016
    outer loop
      vertex   -2.100000e+001 1.300000e+001 -6.000000e+000
      vertex   -6.000000e+000 1.300000e+001 -6.000000e+000
      vertex   -6.371050e+000 1.300000e+001 -1.625960e+000
    endloop
  endfacet
  facet normal -1.000000e+000 -1.586033e-016 8.950455e-032
    outer loop
      vertex   -6.000000e+000 1.300000e+001 2.065339e+000
      vertex   -6.000000e+000 6.000000e+000 2.065339e+000
      vertex   -6.000000e+000 1.300000e+001 6.000000e+000
    endloop
  endfacet
  facet normal -1.000000e+000 -1.586033e-016 0.000000e+000
    outer loop
      vertex   -6.000000e+000 1.300000e+001 6.000000e+000
      vertex   -6.000000e+000 6.000000e+000 2.065339e+000
      vertex   -6.000000e+000 6.000000e+000 6.000000e+000
    endloop
  endfacet
  facet normal 0.000000e+000 1.000000e+000 -0.000000e+000
    outer loop
      vertex   -6.861156e+000 1.800000e+001 -2.817993e-001
      vertex   -2.100000e+001 1.800000e+001 -6.000000e+000
      vertex   -6.875000e+000 1.800000e+001 -3.520743e-016
    endloop
  endfacet
  facet normal 0.000000e+000 1.000000e+000 0.000000e+000
    outer loop
      vertex   -6.861156e+000 1.800000e+001 -2.817993e-001
      vertex   -6.819758e+000 1.800000e+001 -5.608847e-001
      vertex   -2.100000e+001 1.800000e+001 -6.000000e+000
    endloop
  endfacet
  facet normal -0.000000e+000 1.000000e+000 0.000000e+000
    outer loop
      vertex   -2.100000e+001 1.800000e+001 -6.000000e+000
      vertex   -6.819758e+000 1.800000e+001 -5.608847e-001
      vertex   -6.751203e+000 1.800000e+001 -8.345684e-001
    endloop
  endfacet
  facet normal 0.000000e+000 1.000000e+000 -0.000000e+000
    outer loop
      vertex   -6.656154e+000 1.800000e+001 -1.100215e+000
      vertex   -2.100000e+001 1.800000e+001 -6.000000e+000
      vertex   -6.751203e+000 1.800000e+001 -8.345684e-001
    endloop
  endfacet
  facet normal 0.000000e+000 1.000000e+000 0.000000e+000
    outer loop
      vertex   -6.656154e+000 1.800000e+001 -1.100215e+000
      vertex   -6.535524e+000 1.800000e+001 -1.355266e+000
      vertex   -2.100000e+001 1.800000e+001 -6.000000e+000
    endloop
  endfacet
  facet normal -0.000000e+000 1.000000e+000 0.000000e+000
    outer loop
      vertex   -2.100000e+001 1.800000e+001 -6.000000e+000
      vertex   -6.535524e+000 1.800000e+001 -1.355266e+000
      vertex   -6.390475e+000 1.800000e+001 -1.597264e+000
    endloop
  endfacet
  facet normal 0.000000e+000 1.000000e+000 -0.000000e+000
    outer loop
      vertex   -6.222405e+000 1.800000e+001 -1.823881e+000
      vertex   -2.100000e+001 1.800000e+001 -6.000000e+000
      vertex   -6.390475e+000 1.800000e+001 -1.597264e+000
    endloop
  endfacet
  facet normal 0.000000e+000 1.000000e+000 0.000000e+000
    outer loop
      vertex   -6.222405e+000 1.800000e+001 -1.823881e+000
      vertex   -6.032932e+000 1.800000e+001 -2.032932e+000
      vertex   -2.100000e+001 1.800000e+001 -6.000000e+000
    endloop
  endfacet
  facet normal -0.000000e+000 1.000000e+000 0.000000e+000
    outer loop
      vertex   -2.100000e+001 1.800000e+001 -6.000000e+000
      vertex   -6.032932e+000 1.800000e+001 -2.032932e+000
      vertex   -5.823881e+000 1.800000e+001 -2.222405e+000
    endloop
  endfacet
  facet normal 0.000000e+000 1.000000e+000 -0.000000e+000
    outer loop
      vertex   -5.597264e+000 1.800000e+001 -2.390475e+000
      vertex   -2.100000e+001 1.800000e+001 -6.000000e+000
      vertex   -5.823881e+000 1.800000e+001 -2.222405e+000
    endloop
  endfacet
  facet normal 0.000000e+000 1.000000e+000 0.000000e+000
    outer loop
      vertex   -5.597264e+000 1.800000e+001 -2.390475e+000
      vertex   -5.355266e+000 1.800000e+001 -2.535524e+000
      vertex   -2.100000e+001 1.800000e+001 -6.000000e+000
    endloop
  endfacet
  facet normal -0.000000e+000 1.000000e+000 0.000000e+000
    outer loop
      vertex   -2.100000e+001 1.800000e+001 -6.000000e+000
      vertex   -5.355266e+000 1.800000e+001 -2.535524e+000
      vertex   -5.100215e+000 1.800000e+001 -2.656154e+000
    endloop
  endfacet
  facet normal 0.000000e+000 1.000000e+000 -0.000000e+000
    outer loop
      vertex   -4.834568e+000 1.800000e+001 -2.751203e+000
      vertex   -2.100000e+001 1.800000e+001 -6.000000e+000
      vertex   -5.100215e+000 1.800000e+001 -2.656154e+000
    endloop
  endfacet
  facet normal 0.000000e+000 1.000000e+000 0.000000e+000
    outer loop
      vertex   -4.834568e+000 1.800000e+001 -2.751203e+000
      vertex   -4.560885e+000 1.800000e+001 -2.819758e+000
      vertex   -2.100000e+001 1.800000e+001 -6.000000e+000
    endloop
  endfacet
  facet normal -0.000000e+000 1.000000e+000 0.000000e+000
    outer loop
      vertex   -2.100000e+001 1.800000e+001 -6.000000e+000
      vertex   -4.560885e+000 1.800000e+001 -2.819758e+000
      vertex   -4.281799e+000 1.800000e+001 -2.861156e+000
    endloop
  endfacet
  facet normal -0.000000e+000 1.000000e+000 -0.000000e+000
    outer loop
      vertex   4.000000e+000 1.800000e+001 -6.000000e+000
      vertex   -4.281799e+000 1.800000e+001 -2.861156e+000
      vertex   -4.000000e+000 1.800000e+001 -2.875000e+000
    endloop
  endfacet
  facet normal 0.000000e+000 1.000000e+000 0.000000e+000
    outer loop
      vertex   -3.718201e+000 1.800000e+001 -2.861156e+000
      vertex   4.000000e+000 1.800000e+001 -6.000000e+000
      vertex   -4.000000e+000 1.800000e+001 -2.875000e+000
    endloop
  endfacet
  facet normal -0.000000e+000 1.000000e+000 0.000000e+000
    outer loop
      vertex   -3.718201e+000 1.800000e+001 -2.861156e+000
      vertex   -3.439115e+000 1.800000e+001 -2.819758e+000
      vertex   4.000000e+000 1.800000e+001 -6.000000e+000
    endloop
  endfacet
  facet normal 0.000000e+000 1.000000e+000 -0.000000e+000
    outer loop
      vertex   4.000000e+000 1.800000e+001 -6.000000e+000
      vertex   -3.439115e+000 1.800000e+001 -2.819758e+000
      vertex   -3.165432e+000 1.800000e+001 -2.751203e+000
    endloop
  endfacet
  facet normal 0.000000e+000 1.000000e+000 0.000000e+000
    outer loop
      vertex   -2.899785e+000 1.800000e+001 -2.656154e+000
      vertex   4.000000e+000 1.800000e+001 -6.000000e+000
      vertex   -3.165432e+000 1.800000e+001 -2.751203e+000
    endloop
  endfacet
  facet normal -0.000000e+000 1.000000e+000 0.000000e+000
    outer loop
      vertex   -2.899785e+000 1.800000e+001 -2.656154e+000
      vertex   -2.644734e+000 1.800000e+001 -2.535524e+000
      vertex   4.000000e+000 1.800000e+001 -6.000000e+000
    endloop
  endfacet
  facet normal 0.000000e+000 1.000000e+000 -0.000000e+000
    outer loop
      vertex   4.000000e+000 1.800000e+001 -6.000000e+000
      vertex   -2.644734e+000 1.800000e+001 -2.535524e+000
      vertex   -2.402736e+000 1.800000e+001 -2.390475e+000
    endloop
  endfacet
  facet normal 0.000000e+000 1.000000e+000 0.000000e+000
    outer loop
      vertex   -2.176119e+000 1.800000e+001 -2.222405e+000
      vertex   4.000000e+000 1.800000e+001 -6.000000e+000
      vertex   -2.402736e+000 1.800000e+001 -2.390475e+000
    endloop
  endfacet
  facet normal -0.000000e+000 1.000000e+000 0.000000e+000
    outer loop
      vertex   -2.176119e+000 1.800000e+001 -2.222405e+000
      vertex   -1.967068e+000 1.800000e+001 -2.032932e+000
      vertex   4.000000e+000 1.800000e+001 -6.000000e+000
    endloop
  endfacet
  facet normal 0.000000e+000 1.000000e+000 -0.000000e+000
    outer loop
      vertex   4.000000e+000 1.800000e+001 -6.000000e+000
      vertex   -1.967068e+000 1.800000e+001 -2.032932e+000
      vertex   -1.777595e+000 1.800000e+001 -1.823881e+000
    endloop
  endfacet
  facet normal 0.000000e+000 1.000000e+000 0.000000e+000
    outer loop
      vertex   -1.609525e+000 1.800000e+001 -1.597264e+000
      vertex   4.000000e+000 1.800000e+001 -6.000000e+000
      vertex   -1.777595e+000 1.800000e+001 -1.823881e+000
    endloop
  endfacet
  facet normal -0.000000e+000 1.000000e+000 0.000000e+000
    outer loop
      vertex   -1.609525e+000 1.800000e+001 -1.597264e+000
      vertex   -1.464476e+000 1.800000e+001 -1.355266e+000
      vertex   4.000000e+000 1.800000e+001 -6.000000e+000
    endloop
  endfacet
  facet normal 0.000000e+000 1.000000e+000 -0.000000e+000
    outer loop
      vertex   4.000000e+000 1.800000e+001 -6.000000e+000
      vertex   -1.464476e+000 1.800000e+001 -1.355266e+000
      vertex   -1.343846e+000 1.800000e+001 -1.100215e+000
    endloop
  endfacet
  facet normal 0.000000e+000 1.000000e+000 0.000000e+000
    outer loop
      vertex   -1.248797e+000 1.800000e+001 -8.345684e-001
      vertex   4.000000e+000 1.800000e+001 -6.000000e+000
      vertex   -1.343846e+000 1.800000e+001 -1.100215e+000
    endloop
  endfacet
  facet normal -0.000000e+000 1.000000e+000 0.000000e+000
    outer loop
      vertex   -1.248797e+000 1.800000e+001 -8.345684e-001
      vertex   -1.180242e+000 1.800000e+001 -5.608847e-001
      vertex   4.000000e+000 1.800000e+001 -6.000000e+000
    endloop
  endfacet
  facet normal 0.000000e+000 1.000000e+000 -0.000000e+000
    outer loop
      vertex   4.000000e+000 1.800000e+001 -6.000000e+000
      vertex   -1.180242e+000 1.800000e+001 -5.608847e-001
      vertex   -1.138844e+000 1.800000e+001 -2.817993e-001
    endloop
  endfacet
  facet normal 0.000000e+000 1.000000e+000 0.000000e+000
    outer loop
      vertex   -1.125000e+000 1.800000e+001 0.000000e+000
      vertex   4.000000e+000 1.800000e+001 -6.000000e+000
      vertex   -1.138844e+000 1.800000e+001 -2.817993e-001
    endloop
  endfacet
  facet normal -0.000000e+000 1.000000e+000 0.000000e+000
    outer loop
      vertex   -1.125000e+000 1.800000e+001 0.000000e+000
      vertex   4.000000e+000 1.800000e+001 6.000000e+000
      vertex   4.000000e+000 1.800000e+001 -6.000000e+000
    endloop
  endfacet
  facet normal 0.000000e+000 1.000000e+000 -0.000000e+000
    outer loop
      vertex   -1.125000e+000 1.800000e+001 0.000000e+000
      vertex   -1.138844e+000 1.800000e+001 2.817993e-001
      vertex   4.000000e+000 1.800000e+001 6.000000e+000
    endloop
  endfacet
  facet normal 0.000000e+000 1.000000e+000 0.000000e+000
    outer loop
      vertex   4.000000e+000 1.800000e+001 6.000000e+000
      vertex   -1.138844e+000 1.800000e+001 2.817993e-001
      vertex   -1.180242e+000 1.800000e+001 5.608847e-001
    endloop
  endfacet
  facet normal -0.000000e+000 1.000000e+000 0.000000e+000
    outer loop
      vertex   -1.248797e+000 1.800000e+001 8.345684e-001
      vertex   4.000000e+000 1.800000e+001 6.000000e+000
      vertex   -1.180242e+000 1.800000e+001 5.608847e-001
    endloop
  endfacet
  facet normal 0.000000e+000 1.000000e+000 -0.000000e+000
    outer loop
      vertex   -1.248797e+000 1.800000e+001 8.345684e-001
      vertex   -1.343846e+000 1.800000e+001 1.100215e+000
      vertex   4.000000e+000 1.800000e+001 6.000000e+000
    endloop
  endfacet
  facet normal 0.000000e+000 1.000000e+000 0.000000e+000
    outer loop
      vertex   4.000000e+000 1.800000e+001 6.000000e+000
      vertex   -1.343846e+000 1.800000e+001 1.100215e+000
      vertex   -1.464476e+000 1.800000e+001 1.355266e+000
    endloop
  endfacet
  facet normal -0.000000e+000 1.000000e+000 0.000000e+000
    outer loop
      vertex   -1.609525e+000 1.800000e+001 1.597264e+000
      vertex   4.000000e+000 1.800000e+001 6.000000e+000
      vertex   -1.464476e+000 1.800000e+001 1.355266e+000
    endloop
  endfacet
  facet normal 0.000000e+000 1.000000e+000 -0.000000e+000
    outer loop
      vertex   -1.609525e+000 1.800000e+001 1.597264e+000
      vertex   -1.777595e+000 1.800000e+001 1.823881e+000
      vertex   4.000000e+000 1.800000e+001 6.000000e+000
    endloop
  endfacet
  facet normal 0.000000e+000 1.000000e+000 0.000000e+000
    outer loop
      vertex   4.000000e+000 1.800000e+001 6.000000e+000
      vertex   -1.777595e+000 1.800000e+001 1.823881e+000
      vertex   -1.967068e+000 1.800000e+001 2.032932e+000
    endloop
  endfacet
  facet normal -0.000000e+000 1.000000e+000 0.000000e+000
    outer loop
      vertex   -2.176119e+000 1.800000e+001 2.222405e+000
      vertex   4.000000e+000 1.800000e+001 6.000000e+000
      vertex   -1.967068e+000 1.800000e+001 2.032932e+000
    endloop
  endfacet
  facet normal 0.000000e+000 1.000000e+000 -0.000000e+000
    outer loop
      vertex   -2.176119e+000 1.800000e+001 2.222405e+000
      vertex   -2.402736e+000 1.800000e+001 2.390475e+000
      vertex   4.000000e+000 1.800000e+001 6.000000e+000
    endloop
  endfacet
  facet normal 0.000000e+000 1.000000e+000 0.000000e+000
    outer loop
      vertex   4.000000e+000 1.800000e+001 6.000000e+000
      vertex   -2.402736e+000 1.800000e+001 2.390475e+000
      vertex   -2.644734e+000 1.800000e+001 2.535524e+000
    endloop
  endfacet
  facet normal -0.000000e+000 1.000000e+000 0.000000e+000
    outer loop
      vertex   -2.899785e+000 1.800000e+001 2.656154e+000
      vertex   4.000000e+000 1.800000e+001 6.000000e+000
      vertex   -2.644734e+000 1.800000e+001 2.535524e+000
    endloop
  endfacet
  facet normal 0.000000e+000 1.000000e+000 -0.000000e+000
    outer loop
      vertex   -2.899785e+000 1.800000e+001 2.656154e+000
      vertex   -3.165432e+000 1.800000e+001 2.751203e+000
      vertex   4.000000e+000 1.800000e+001 6.000000e+000
    endloop
  endfacet
  facet normal 0.000000e+000 1.000000e+000 0.000000e+000
    outer loop
      vertex   4.000000e+000 1.800000e+001 6.000000e+000
      vertex   -3.165432e+000 1.800000e+001 2.751203e+000
      vertex   -3.439115e+000 1.800000e+001 2.819758e+000
    endloop
  endfacet
  facet normal -0.000000e+000 1.000000e+000 0.000000e+000
    outer loop
      vertex   -3.718201e+000 1.800000e+001 2.861156e+000
      vertex   4.000000e+000 1.800000e+001 6.000000e+000
      vertex   -3.439115e+000 1.800000e+001 2.819758e+000
    endloop
  endfacet
  facet normal 0.000000e+000 1.000000e+000 -0.000000e+000
    outer loop
      vertex   -3.718201e+000 1.800000e+001 2.861156e+000
      vertex   -4.000000e+000 1.800000e+001 2.875000e+000
      vertex   4.000000e+000 1.800000e+001 6.000000e+000
    endloop
  endfacet
  facet normal 0.000000e+000 1.000000e+000 0.000000e+000
    outer loop
      vertex   4.000000e+000 1.800000e+001 6.000000e+000
      vertex   -4.000000e+000 1.800000e+001 2.875000e+000
      vertex   -4.281799e+000 1.800000e+001 2.861156e+000
    endloop
  endfacet
  facet normal 0.000000e+000 1.000000e+000 0.000000e+000
    outer loop
      vertex   -2.100000e+001 1.800000e+001 6.000000e+000
      vertex   -4.281799e+000 1.800000e+001 2.861156e+000
      vertex   -4.560885e+000 1.800000e+001 2.819758e+000
    endloop
  endfacet
  facet normal -0.000000e+000 1.000000e+000 -0.000000e+000
    outer loop
      vertex   -4.834568e+000 1.800000e+001 2.751203e+000
      vertex   -2.100000e+001 1.800000e+001 6.000000e+000
      vertex   -4.560885e+000 1.800000e+001 2.819758e+000
    endloop
  endfacet
  facet normal 0.000000e+000 1.000000e+000 0.000000e+000
    outer loop
      vertex   -4.834568e+000 1.800000e+001 2.751203e+000
      vertex   -5.100215e+000 1.800000e+001 2.656154e+000
      vertex   -2.100000e+001 1.800000e+001 6.000000e+000
    endloop
  endfacet
  facet normal 0.000000e+000 1.000000e+000 0.000000e+000
    outer loop
      vertex   -2.100000e+001 1.800000e+001 6.000000e+000
      vertex   -5.100215e+000 1.800000e+001 2.656154e+000
      vertex   -5.355266e+000 1.800000e+001 2.535524e+000
    endloop
  endfacet
  facet normal -0.000000e+000 1.000000e+000 -0.000000e+000
    outer loop
      vertex   -5.597264e+000 1.800000e+001 2.390475e+000
      vertex   -2.100000e+001 1.800000e+001 6.000000e+000
      vertex   -5.355266e+000 1.800000e+001 2.535524e+000
    endloop
  endfacet
  facet normal 0.000000e+000 1.000000e+000 0.000000e+000
    outer loop
      vertex   -5.597264e+000 1.800000e+001 2.390475e+000
      vertex   -5.823881e+000 1.800000e+001 2.222405e+000
      vertex   -2.100000e+001 1.800000e+001 6.000000e+000
    endloop
  endfacet
  facet normal 0.000000e+000 1.000000e+000 0.000000e+000
    outer loop
      vertex   -2.100000e+001 1.800000e+001 6.000000e+000
      vertex   -5.823881e+000 1.800000e+001 2.222405e+000
      vertex   -6.032932e+000 1.800000e+001 2.032932e+000
    endloop
  endfacet
  facet normal -0.000000e+000 1.000000e+000 -0.000000e+000
    outer loop
      vertex   -6.222405e+000 1.800000e+001 1.823881e+000
      vertex   -2.100000e+001 1.800000e+001 6.000000e+000
      vertex   -6.032932e+000 1.800000e+001 2.032932e+000
    endloop
  endfacet
  facet normal 0.000000e+000 1.000000e+000 0.000000e+000
    outer loop
      vertex   -6.222405e+000 1.800000e+001 1.823881e+000
      vertex   -6.390475e+000 1.800000e+001 1.597264e+000
      vertex   -2.100000e+001 1.800000e+001 6.000000e+000
    endloop
  endfacet
  facet normal 0.000000e+000 1.000000e+000 0.000000e+000
    outer loop
      vertex   -2.100000e+001 1.800000e+001 6.000000e+000
      vertex   -6.390475e+000 1.800000e+001 1.597264e+000
      vertex   -6.535524e+000 1.800000e+001 1.355266e+000
    endloop
  endfacet
  facet normal -0.000000e+000 1.000000e+000 -0.000000e+000
    outer loop
      vertex   -6.656154e+000 1.800000e+001 1.100215e+000
      vertex   -2.100000e+001 1.800000e+001 6.000000e+000
      vertex   -6.535524e+000 1.800000e+001 1.355266e+000
    endloop
  endfacet
  facet normal 0.000000e+000 1.000000e+000 0.000000e+000
    outer loop
      vertex   -6.656154e+000 1.800000e+001 1.100215e+000
      vertex   -6.751203e+000 1.800000e+001 8.345684e-001
      vertex   -2.100000e+001 1.800000e+001 6.000000e+000
    endloop
  endfacet
  facet normal 0.000000e+000 1.000000e+000 0.000000e+000
    outer loop
      vertex   -2.100000e+001 1.800000e+001 6.000000e+000
      vertex   -6.751203e+000 1.800000e+001 8.345684e-001
      vertex   -6.819758e+000 1.800000e+001 5.608847e-001
    endloop
  endfacet
  facet normal -0.000000e+000 1.000000e+000 -0.000000e+000
    outer loop
      vertex   -6.861156e+000 1.800000e+001 2.817993e-001
      vertex   -2.100000e+001 1.800000e+001 6.000000e+000
      vertex   -6.819758e+000 1.800000e+001 5.608847e-001
    endloop
  endfacet
  facet normal 0.000000e+000 1.000000e+000 0.000000e+000
    outer loop
      vertex   -6.861156e+000 1.800000e+001 2.817993e-001
      vertex   -6.875000e+000 1.800000e+001 -3.520743e-016
      vertex   -2.100000e+001 1.800000e+001 6.000000e+000
    endloop
  endfacet
  facet normal 0.000000e+000 1.000000e+000 0.000000e+000
    outer loop
      vertex   -2.100000e+001 1.800000e+001 6.000000e+000
      vertex   -6.875000e+000 1.800000e+001 -3.520743e-016
      vertex   -2.100000e+001 1.800000e+001 -6.000000e+000
    endloop
  endfacet
  facet normal -0.000000e+000 1.000000e+000 0.000000e+000
    outer loop
      vertex   -2.100000e+001 1.800000e+001 6.000000e+000
      vertex   4.000000e+000 1.800000e+001 6.000000e+000
      vertex   -4.281799e+000 1.800000e+001 2.861156e+000
    endloop
  endfacet
  facet normal 0.000000e+000 1.000000e+000 -0.000000e+000
    outer loop
      vertex   4.000000e+000 1.800000e+001 -6.000000e+000
      vertex   -2.100000e+001 1.800000e+001 -6.000000e+000
      vertex   -4.281799e+000 1.800000e+001 -2.861156e+000
    endloop
  endfacet
  facet normal 1.000000e+000 1.110223e-016 0.000000e+000
    outer loop
      vertex   4.000000e+000 1.800000e+001 6.000000e+000
      vertex   4.000000e+000 1.300000e+001 6.000000e+000
      vertex   4.000000e+000 1.800000e+001 -6.000000e+000
    endloop
  endfacet
  facet normal 1.000000e+000 1.110223e-016 0.000000e+000
    outer loop
      vertex   4.000000e+000 1.800000e+001 -6.000000e+000
      vertex   4.000000e+000 1.300000e+001 6.000000e+000
      vertex   4.000000e+000 1.300000e+001 -6.000000e+000
    endloop
  endfacet
  facet normal 9.491716e-001 3.147591e-001 0.000000e+000
    outer loop
      vertex   4.000000e+000 1.300000e+001 6.000000e+000
      vertex   5.695030e+000 7.888555e+000 6.000000e+000
      vertex   4.000000e+000 1.300000e+001 -6.000000e+000
    endloop
  endfacet
  facet normal 9.491716e-001 3.147591e-001 0.000000e+000
    outer loop
      vertex   4.000000e+000 1.300000e+001 -6.000000e+000
      vertex   5.695030e+000 7.888555e+000 6.000000e+000
      vertex   5.695030e+000 7.888555e+000 -6.000000e+000
    endloop
  endfacet
  facet normal 9.661387e-001 2.580234e-001 0.000000e+000
    outer loop
      vertex   5.695030e+000 7.888555e+000 6.000000e+000
      vertex   5.878306e+000 7.202297e+000 6.000000e+000
      vertex   5.695030e+000 7.888555e+000 -6.000000e+000
    endloop
  endfacet
  facet normal 9.661387e-001 2.580234e-001 0.000000e+000
    outer loop
      vertex   5.695030e+000 7.888555e+000 -6.000000e+000
      vertex   5.878306e+000 7.202297e+000 6.000000e+000
      vertex   5.878306e+000 7.202297e+000 -6.000000e+000
    endloop
  endfacet
  facet normal 9.898610e-001 1.420396e-001 -0.000000e+000
    outer loop
      vertex   5.878306e+000 7.202297e+000 -6.000000e+000
      vertex   5.878306e+000 7.202297e+000 6.000000e+000
      vertex   5.979198e+000 6.499189e+000 6.000000e+000
    endloop
  endfacet
  facet normal 9.997104e-001 2.406512e-002 -0.000000e+000
    outer loop
      vertex   5.979198e+000 6.499189e+000 -6.000000e+000
      vertex   5.979198e+000 6.499189e+000 6.000000e+000
      vertex   5.996292e+000 5.789086e+000 6.000000e+000
    endloop
  endfacet
  facet normal 9.955489e-001 -9.424663e-002 0.000000e+000
    outer loop
      vertex   5.996292e+000 5.789086e+000 -6.000000e+000
      vertex   5.996292e+000 5.789086e+000 6.000000e+000
      vertex   5.929348e+000 5.081938e+000 6.000000e+000
    endloop
  endfacet
  facet normal 9.774348e-001 -2.112375e-001 0.000000e+000
    outer loop
      vertex   5.929348e+000 5.081938e+000 -6.000000e+000
      vertex   5.929348e+000 5.081938e+000 6.000000e+000
      vertex   5.779303e+000 4.387657e+000 6.000000e+000
    endloop
  endfacet
  facet normal 9.456219e-001 -3.252679e-001 0.000000e+000
    outer loop
      vertex   5.779303e+000 4.387657e+000 -6.000000e+000
      vertex   5.779303e+000 4.387657e+000 6.000000e+000
      vertex   5.548263e+000 3.715972e+000 6.000000e+000
    endloop
  endfacet
  facet normal 9.005562e-001 -4.347397e-001 0.000000e+000
    outer loop
      vertex   5.548263e+000 3.715972e+000 -6.000000e+000
      vertex   5.548263e+000 3.715972e+000 6.000000e+000
      vertex   5.239463e+000 3.076299e+000 6.000000e+000
    endloop
  endfacet
  facet normal 8.428691e-001 -5.381186e-001 0.000000e+000
    outer loop
      vertex   5.239463e+000 3.076299e+000 -6.000000e+000
      vertex   5.239463e+000 3.076299e+000 6.000000e+000
      vertex   4.857232e+000 2.477601e+000 6.000000e+000
    endloop
  endfacet
  facet normal 7.733693e-001 -6.339557e-001 0.000000e+000
    outer loop
      vertex   4.857232e+000 2.477601e+000 -6.000000e+000
      vertex   4.857232e+000 2.477601e+000 6.000000e+000
      vertex   4.406927e+000 1.928269e+000 6.000000e+000
    endloop
  endfacet
  facet normal 6.930307e-001 -7.209080e-001 0.000000e+000
    outer loop
      vertex   4.406927e+000 1.928269e+000 -6.000000e+000
      vertex   4.406927e+000 1.928269e+000 6.000000e+000
      vertex   3.894860e+000 1.436003e+000 6.000000e+000
    endloop
  endfacet
  facet normal 6.029793e-001 -7.977568e-001 0.000000e+000
    outer loop
      vertex   3.894860e+000 1.436003e+000 -6.000000e+000
      vertex   3.894860e+000 1.436003e+000 6.000000e+000
      vertex   3.328205e+000 1.007701e+000 6.000000e+000
    endloop
  endfacet
  facet normal 5.044772e-001 -8.634250e-001 0.000000e+000
    outer loop
      vertex   3.328205e+000 1.007701e+000 -6.000000e+000
      vertex   3.328205e+000 1.007701e+000 6.000000e+000
      vertex   2.714906e+000 6.493661e-001 6.000000e+000
    endloop
  endfacet
  facet normal 3.989048e-001 -9.169923e-001 0.000000e+000
    outer loop
      vertex   2.714906e+000 6.493661e-001 -6.000000e+000
      vertex   2.714906e+000 6.493661e-001 6.000000e+000
      vertex   2.063558e+000 3.660202e-001 6.000000e+000
    endloop
  endfacet
  facet normal 2.877418e-001 -9.577080e-001 0.000000e+000
    outer loop
      vertex   2.063558e+000 3.660202e-001 -6.000000e+000
      vertex   2.063558e+000 3.660202e-001 6.000000e+000
      vertex   1.383289e+000 1.616345e-001 6.000000e+000
    endloop
  endfacet
  facet normal 1.725460e-001 -9.850015e-001 0.000000e+000
    outer loop
      vertex   1.383289e+000 1.616345e-001 -6.000000e+000
      vertex   1.383289e+000 1.616345e-001 6.000000e+000
      vertex   6.836330e-001 3.907340e-002 6.000000e+000
    endloop
  endfacet
  facet normal 5.493207e-002 -9.984901e-001 0.000000e+000
    outer loop
      vertex   6.836330e-001 3.907340e-002 -6.000000e+000
      vertex   6.836330e-001 3.907340e-002 6.000000e+000
      vertex   -2.560400e-002 5.463065e-005 6.000000e+000
    endloop
  endfacet
  facet normal 5.493207e-002 -9.984901e-001 0.000000e+000
    outer loop
      vertex   -2.560400e-002 5.463065e-005 -6.000000e+000
      vertex   6.836330e-001 3.907340e-002 -6.000000e+000
      vertex   -2.560400e-002 5.463065e-005 6.000000e+000
    endloop
  endfacet
  facet normal 1.725460e-001 -9.850015e-001 0.000000e+000
    outer loop
      vertex   6.836330e-001 3.907340e-002 -6.000000e+000
      vertex   1.383289e+000 1.616345e-001 -6.000000e+000
      vertex   6.836330e-001 3.907340e-002 6.000000e+000
    endloop
  endfacet
  facet normal 2.877418e-001 -9.577080e-001 0.000000e+000
    outer loop
      vertex   1.383289e+000 1.616345e-001 -6.000000e+000
      vertex   2.063558e+000 3.660202e-001 -6.000000e+000
      vertex   1.383289e+000 1.616345e-001 6.000000e+000
    endloop
  endfacet
  facet normal 3.989048e-001 -9.169923e-001 0.000000e+000
    outer loop
      vertex   2.063558e+000 3.660202e-001 -6.000000e+000
      vertex   2.714906e+000 6.493661e-001 -6.000000e+000
      vertex   2.063558e+000 3.660202e-001 6.000000e+000
    endloop
  endfacet
  facet normal 5.044772e-001 -8.634250e-001 0.000000e+000
    outer loop
      vertex   2.714906e+000 6.493661e-001 -6.000000e+000
      vertex   3.328205e+000 1.007701e+000 -6.000000e+000
      vertex   2.714906e+000 6.493661e-001 6.000000e+000
    endloop
  endfacet
  facet normal 6.029793e-001 -7.977568e-001 0.000000e+000
    outer loop
      vertex   3.328205e+000 1.007701e+000 -6.000000e+000
      vertex   3.894860e+000 1.436003e+000 -6.000000e+000
      vertex   3.328205e+000 1.007701e+000 6.000000e+000
    endloop
  endfacet
  facet normal 6.930307e-001 -7.209080e-001 0.000000e+000
    outer loop
      vertex   3.894860e+000 1.436003e+000 -6.000000e+000
      vertex   4.406927e+000 1.928269e+000 -6.000000e+000
      vertex   3.894860e+000 1.436003e+000 6.000000e+000
    endloop
  endfacet
  facet normal 7.733693e-001 -6.339557e-001 0.000000e+000
    outer loop
      vertex   4.406927e+000 1.928269e+000 -6.000000e+000
      vertex   4.857232e+000 2.477601e+000 -6.000000e+000
      vertex   4.406927e+000 1.928269e+000 6.000000e+000
    endloop
  endfacet
  facet normal 8.428691e-001 -5.381186e-001 0.000000e+000
    outer loop
      vertex   4.857232e+000 2.477601e+000 -6.000000e+000
      vertex   5.239463e+000 3.076299e+000 -6.000000e+000
      vertex   4.857232e+000 2.477601e+000 6.000000e+000
    endloop
  endfacet
  facet normal 9.005562e-001 -4.347397e-001 0.000000e+000
    outer loop
      vertex   5.239463e+000 3.076299e+000 -6.000000e+000
      vertex   5.548263e+000 3.715972e+000 -6.000000e+000
      vertex   5.239463e+000 3.076299e+000 6.000000e+000
    endloop
  endfacet
  facet normal 9.456219e-001 -3.252679e-001 0.000000e+000
    outer loop
      vertex   5.548263e+000 3.715972e+000 -6.000000e+000
      vertex   5.779303e+000 4.387657e+000 -6.000000e+000
      vertex   5.548263e+000 3.715972e+000 6.000000e+000
    endloop
  endfacet
  facet normal 9.774348e-001 -2.112375e-001 0.000000e+000
    outer loop
      vertex   5.779303e+000 4.387657e+000 -6.000000e+000
      vertex   5.929348e+000 5.081938e+000 -6.000000e+000
      vertex   5.779303e+000 4.387657e+000 6.000000e+000
    endloop
  endfacet
  facet normal 9.955489e-001 -9.424663e-002 0.000000e+000
    outer loop
      vertex   5.929348e+000 5.081938e+000 -6.000000e+000
      vertex   5.996292e+000 5.789086e+000 -6.000000e+000
      vertex   5.929348e+000 5.081938e+000 6.000000e+000
    endloop
  endfacet
  facet normal 9.997104e-001 2.406512e-002 0.000000e+000
    outer loop
      vertex   5.996292e+000 5.789086e+000 -6.000000e+000
      vertex   5.979198e+000 6.499189e+000 -6.000000e+000
      vertex   5.996292e+000 5.789086e+000 6.000000e+000
    endloop
  endfacet
  facet normal 9.898610e-001 1.420396e-001 0.000000e+000
    outer loop
      vertex   5.979198e+000 6.499189e+000 -6.000000e+000
      vertex   5.878306e+000 7.202297e+000 -6.000000e+000
      vertex   5.979198e+000 6.499189e+000 6.000000e+000
    endloop
  endfacet
  facet normal -7.086139e-001 -7.055964e-001 0.000000e+000
    outer loop
      vertex   -6.000000e+000 6.000000e+000 2.065339e+000
      vertex   -5.677651e+000 5.676272e+000 2.334762e+000
      vertex   -6.000000e+000 6.000000e+000 6.000000e+000
    endloop
  endfacet
  facet normal -7.086139e-001 -7.055964e-001 0.000000e+000
    outer loop
      vertex   -6.000000e+000 6.000000e+000 6.000000e+000
      vertex   -5.677651e+000 5.676272e+000 2.334762e+000
      vertex   -5.319478e+000 5.316568e+000 2.554330e+000
    endloop
  endfacet
  facet normal -7.086139e-001 -7.055964e-001 1.271898e-016
    outer loop
      vertex   -4.933131e+000 4.928568e+000 2.719355e+000
      vertex   -6.000000e+000 6.000000e+000 6.000000e+000
      vertex   -5.319478e+000 5.316568e+000 2.554330e+000
    endloop
  endfacet
  facet normal -7.086139e-001 -7.055964e-001 1.691858e-016
    outer loop
      vertex   -4.933131e+000 4.928568e+000 2.719355e+000
      vertex   -4.526858e+000 4.520558e+000 2.826313e+000
      vertex   -6.000000e+000 6.000000e+000 6.000000e+000
    endloop
  endfacet
  facet normal -7.086139e-001 -7.055964e-001 -2.634657e-016
    outer loop
      vertex   -6.000000e+000 6.000000e+000 6.000000e+000
      vertex   -4.526858e+000 4.520558e+000 2.826313e+000
      vertex   -4.109335e+000 4.101249e+000 2.872920e+000
    endloop
  endfacet
  facet normal -7.086139e-001 -7.055964e-001 0.000000e+000
    outer loop
      vertex   -3.689477e+000 3.679596e+000 2.858181e+000
      vertex   -6.000000e+000 6.000000e+000 6.000000e+000
      vertex   -4.109335e+000 4.101249e+000 2.872920e+000
    endloop
  endfacet
  facet normal -7.086139e-001 -7.055964e-001 9.807676e-016
    outer loop
      vertex   -3.689477e+000 3.679596e+000 2.858181e+000
      vertex   -3.276250e+000 3.264602e+000 2.782411e+000
      vertex   -6.000000e+000 6.000000e+000 6.000000e+000
    endloop
  endfacet
  facet normal -7.086139e-001 -7.055964e-001 -5.093919e-017
    outer loop
      vertex   -6.000000e+000 6.000000e+000 6.000000e+000
      vertex   -3.276250e+000 3.264602e+000 2.782411e+000
      vertex   -2.560400e-002 5.463065e-005 6.000000e+000
    endloop
  endfacet
  facet normal -7.086139e-001 -7.055964e-001 2.847699e-016
    outer loop
      vertex   -2.560400e-002 5.463065e-005 6.000000e+000
      vertex   -3.276250e+000 3.264602e+000 2.782411e+000
      vertex   -2.878478e+000 2.865128e+000 2.647227e+000
    endloop
  endfacet
  facet normal -7.086139e-001 -7.055964e-001 5.439236e-016
    outer loop
      vertex   -2.504653e+000 2.489705e+000 2.455517e+000
      vertex   -2.560400e-002 5.463065e-005 6.000000e+000
      vertex   -2.878478e+000 2.865128e+000 2.647227e+000
    endloop
  endfacet
  facet normal -7.086139e-001 -7.055964e-001 -2.357654e-016
    outer loop
      vertex   -2.504653e+000 2.489705e+000 2.455517e+000
      vertex   -2.162759e+000 2.146349e+000 2.211373e+000
      vertex   -2.560400e-002 5.463065e-005 6.000000e+000
    endloop
  endfacet
  facet normal -7.086139e-001 -7.055964e-001 -6.917813e-017
    outer loop
      vertex   -2.560400e-002 5.463065e-005 6.000000e+000
      vertex   -2.162759e+000 2.146349e+000 2.211373e+000
      vertex   -1.860096e+000 1.842392e+000 1.920009e+000
    endloop
  endfacet
  facet normal -7.086139e-001 -7.055964e-001 0.000000e+000
    outer loop
      vertex   -1.603127e+000 1.584324e+000 1.587647e+000
      vertex   -2.560400e-002 5.463065e-005 6.000000e+000
      vertex   -1.860096e+000 1.842392e+000 1.920009e+000
    endloop
  endfacet
  facet normal -7.086139e-001 -7.055964e-001 2.265475e-016
    outer loop
      vertex   -1.603127e+000 1.584324e+000 1.587647e+000
      vertex   -1.397339e+000 1.377655e+000 1.221384e+000
      vertex   -2.560400e-002 5.463065e-005 6.000000e+000
    endloop
  endfacet
  facet normal -7.086139e-001 -7.055964e-001 -1.045532e-015
    outer loop
      vertex   -2.560400e-002 5.463065e-005 6.000000e+000
      vertex   -1.397339e+000 1.377655e+000 1.221384e+000
      vertex   -1.315056e+000 1.295021e+000 1.027959e+000
    endloop
  endfacet
  facet normal -7.086139e-001 -7.055964e-001 4.119530e-016
    outer loop
      vertex   -1.247126e+000 1.226800e+000 8.290400e-001
      vertex   -2.560400e-002 5.463065e-005 6.000000e+000
      vertex   -1.315056e+000 1.295021e+000 1.027959e+000
    endloop
  endfacet
  facet normal -7.086139e-001 -7.055964e-001 0.000000e+000
    outer loop
      vertex   -1.247126e+000 1.226800e+000 8.290400e-001
      vertex   -1.193911e+000 1.173357e+000 6.256890e-001
      vertex   -2.560400e-002 5.463065e-005 6.000000e+000
    endloop
  endfacet
  facet normal -7.086139e-001 -7.055964e-001 5.820627e-016
    outer loop
      vertex   -2.560400e-002 5.463065e-005 6.000000e+000
      vertex   -1.193911e+000 1.173357e+000 6.256890e-001
      vertex   -1.155695e+000 1.134979e+000 4.189934e-001
    endloop
  endfacet
  facet normal -7.086139e-001 -7.055964e-001 -1.343073e-015
    outer loop
      vertex   -1.132684e+000 1.111869e+000 2.100581e-001
      vertex   -2.560400e-002 5.463065e-005 6.000000e+000
      vertex   -1.155695e+000 1.134979e+000 4.189934e-001
    endloop
  endfacet
  facet normal -7.086139e-001 -7.055964e-001 1.266770e-015
    outer loop
      vertex   -1.132684e+000 1.111869e+000 2.100581e-001
      vertex   -1.125000e+000 1.104152e+000 0.000000e+000
      vertex   -2.560400e-002 5.463065e-005 6.000000e+000
    endloop
  endfacet
  facet normal -7.086139e-001 -7.055964e-001 0.000000e+000
    outer loop
      vertex   -2.560400e-002 5.463065e-005 6.000000e+000
      vertex   -1.125000e+000 1.104152e+000 0.000000e+000
      vertex   -2.560400e-002 5.463065e-005 -6.000000e+000
    endloop
  endfacet
  facet normal -7.086139e-001 -7.055964e-001 -1.266770e-015
    outer loop
      vertex   -2.560400e-002 5.463065e-005 -6.000000e+000
      vertex   -1.125000e+000 1.104152e+000 0.000000e+000
      vertex   -1.132684e+000 1.111869e+000 -2.100581e-001
    endloop
  endfacet
  facet normal -7.086139e-001 -7.055964e-001 1.343073e-015
    outer loop
      vertex   -1.155695e+000 1.134979e+000 -4.189934e-001
      vertex   -2.560400e-002 5.463065e-005 -6.000000e+000
      vertex   -1.132684e+000 1.111869e+000 -2.100581e-001
    endloop
  endfacet
  facet normal -7.086139e-001 -7.055964e-001 -5.820627e-016
    outer loop
      vertex   -1.155695e+000 1.134979e+000 -4.189934e-001
      vertex   -1.193911e+000 1.173357e+000 -6.256890e-001
      vertex   -2.560400e-002 5.463065e-005 -6.000000e+000
    endloop
  endfacet
  facet normal -7.086139e-001 -7.055964e-001 0.000000e+000
    outer loop
      vertex   -2.560400e-002 5.463065e-005 -6.000000e+000
      vertex   -1.193911e+000 1.173357e+000 -6.256890e-001
      vertex   -1.247126e+000 1.226800e+000 -8.290400e-001
    endloop
  endfacet
  facet normal -7.086139e-001 -7.055964e-001 -4.119530e-016
    outer loop
      vertex   -1.315056e+000 1.295021e+000 -1.027959e+000
      vertex   -2.560400e-002 5.463065e-005 -6.000000e+000
      vertex   -1.247126e+000 1.226800e+000 -8.290400e-001
    endloop
  endfacet
  facet normal -7.086139e-001 -7.055964e-001 1.045532e-015
    outer loop
      vertex   -1.315056e+000 1.295021e+000 -1.027959e+000
      vertex   -1.397339e+000 1.377655e+000 -1.221384e+000
      vertex   -2.560400e-002 5.463065e-005 -6.000000e+000
    endloop
  endfacet
  facet normal -7.086139e-001 -7.055964e-001 -2.265475e-016
    outer loop
      vertex   -2.560400e-002 5.463065e-005 -6.000000e+000
      vertex   -1.397339e+000 1.377655e+000 -1.221384e+000
      vertex   -1.603127e+000 1.584324e+000 -1.587647e+000
    endloop
  endfacet
  facet normal -7.086139e-001 -7.055964e-001 0.000000e+000
    outer loop
      vertex   -1.860096e+000 1.842392e+000 -1.920009e+000
      vertex   -2.560400e-002 5.463065e-005 -6.000000e+000
      vertex   -1.603127e+000 1.584324e+000 -1.587647e+000
    endloop
  endfacet
  facet normal -7.086139e-001 -7.055964e-001 6.917813e-017
    outer loop
      vertex   -1.860096e+000 1.842392e+000 -1.920009e+000
      vertex   -2.162759e+000 2.146349e+000 -2.211373e+000
      vertex   -2.560400e-002 5.463065e-005 -6.000000e+000
    endloop
  endfacet
  facet normal -7.086139e-001 -7.055964e-001 2.357654e-016
    outer loop
      vertex   -2.560400e-002 5.463065e-005 -6.000000e+000
      vertex   -2.162759e+000 2.146349e+000 -2.211373e+000
      vertex   -2.504653e+000 2.489705e+000 -2.455517e+000
    endloop
  endfacet
  facet normal -7.086139e-001 -7.055964e-001 -5.439236e-016
    outer loop
      vertex   -2.878478e+000 2.865128e+000 -2.647227e+000
      vertex   -2.560400e-002 5.463065e-005 -6.000000e+000
      vertex   -2.504653e+000 2.489705e+000 -2.455517e+000
    endloop
  endfacet
  facet normal -7.086139e-001 -7.055964e-001 -2.847699e-016
    outer loop
      vertex   -2.878478e+000 2.865128e+000 -2.647227e+000
      vertex   -3.276250e+000 3.264602e+000 -2.782411e+000
      vertex   -2.560400e-002 5.463065e-005 -6.000000e+000
    endloop
  endfacet
  facet normal -7.086139e-001 -7.055964e-001 5.093919e-017
    outer loop
      vertex   -2.560400e-002 5.463065e-005 -6.000000e+000
      vertex   -3.276250e+000 3.264602e+000 -2.782411e+000
      vertex   -6.000000e+000 6.000000e+000 -6.000000e+000
    endloop
  endfacet
  facet normal -7.086139e-001 -7.055964e-001 -9.807676e-016
    outer loop
      vertex   -6.000000e+000 6.000000e+000 -6.000000e+000
      vertex   -3.276250e+000 3.264602e+000 -2.782411e+000
      vertex   -3.689477e+000 3.679596e+000 -2.858181e+000
    endloop
  endfacet
  facet normal -7.086139e-001 -7.055964e-001 0.000000e+000
    outer loop
      vertex   -4.109335e+000 4.101249e+000 -2.872920e+000
      vertex   -6.000000e+000 6.000000e+000 -6.000000e+000
      vertex   -3.689477e+000 3.679596e+000 -2.858181e+000
    endloop
  endfacet
  facet normal -7.086139e-001 -7.055964e-001 2.634657e-016
    outer loop
      vertex   -4.109335e+000 4.101249e+000 -2.872920e+000
      vertex   -4.526858e+000 4.520558e+000 -2.826313e+000
      vertex   -6.000000e+000 6.000000e+000 -6.000000e+000
    endloop
  endfacet
  facet normal -7.086139e-001 -7.055964e-001 -1.691858e-016
    outer loop
      vertex   -6.000000e+000 6.000000e+000 -6.000000e+000
      vertex   -4.526858e+000 4.520558e+000 -2.826313e+000
      vertex   -4.933131e+000 4.928568e+000 -2.719355e+000
    endloop
  endfacet
  facet normal -7.086139e-001 -7.055964e-001 -1.271898e-016
    outer loop
      vertex   -5.319478e+000 5.316568e+000 -2.554330e+000
      vertex   -6.000000e+000 6.000000e+000 -6.000000e+000
      vertex   -4.933131e+000 4.928568e+000 -2.719355e+000
    endloop
  endfacet
  facet normal -7.086139e-001 -7.055964e-001 0.000000e+000
    outer loop
      vertex   -5.319478e+000 5.316568e+000 -2.554330e+000
      vertex   -5.677651e+000 5.676272e+000 -2.334762e+000
      vertex   -6.000000e+000 6.000000e+000 -6.000000e+000
    endloop
  endfacet
  facet normal -7.086139e-001 -7.055964e-001 0.000000e+000
    outer loop
      vertex   -6.000000e+000 6.000000e+000 -6.000000e+000
      vertex   -5.677651e+000 5.676272e+000 -2.334762e+000
      vertex   -6.000000e+000 6.000000e+000 -2.065339e+000
    endloop
  endfacet
  facet normal -1.000000e+000 -1.586033e-016 0.000000e+000
    outer loop
      vertex   -6.000000e+000 6.000000e+000 -2.065339e+000
      vertex   -6.000000e+000 1.300000e+001 -2.065339e+000
      vertex   -6.000000e+000 6.000000e+000 -6.000000e+000
    endloop
  endfacet
  facet normal -1.000000e+000 -1.586033e-016 -8.950455e-032
    outer loop
      vertex   -6.000000e+000 6.000000e+000 -6.000000e+000
      vertex   -6.000000e+000 1.300000e+001 -2.065339e+000
      vertex   -6.000000e+000 1.300000e+001 -6.000000e+000
    endloop
  endfacet
  facet normal -1.000000e+000 0.000000e+000 -0.000000e+000
    outer loop
      vertex   -2.100000e+001 1.300000e+001 6.000000e+000
      vertex   -2.100000e+001 1.800000e+001 6.000000e+000
      vertex   -2.100000e+001 1.300000e+001 -6.000000e+000
    endloop
  endfacet
  facet normal -1.000000e+000 0.000000e+000 0.000000e+000
    outer loop
      vertex   -2.100000e+001 1.300000e+001 -6.000000e+000
      vertex   -2.100000e+001 1.800000e+001 6.000000e+000
      vertex   -2.100000e+001 1.800000e+001 -6.000000e+000
    endloop
  endfacet
  facet normal 0.000000e+000 0.000000e+000 1.000000e+000
    outer loop
      vertex   4.000000e+000 1.300000e+001 6.000000e+000
      vertex   4.000000e+000 1.800000e+001 6.000000e+000
      vertex   -6.000000e+000 1.300000e+001 6.000000e+000
    endloop
  endfacet
  facet normal 0.000000e+000 -0.000000e+000 1.000000e+000
    outer loop
      vertex   -6.000000e+000 6.000000e+000 6.000000e+000
      vertex   4.000000e+000 1.300000e+001 6.000000e+000
      vertex   -6.000000e+000 1.300000e+001 6.000000e+000
    endloop
  endfacet
  facet normal 0.000000e+000 -0.000000e+000 1.000000e+000
    outer loop
      vertex   -6.000000e+000 6.000000e+000 6.000000e+000
      vertex   5.695030e+000 7.888555e+000 6.000000e+000
      vertex   4.000000e+000 1.300000e+001 6.000000e+000
    endloop
  endfacet
  facet normal 5.008921e-016 -3.101816e-015 1.000000e+000
    outer loop
      vertex   -6.000000e+000 6.000000e+000 6.000000e+000
      vertex   5.878306e+000 7.202297e+000 6.000000e+000
      vertex   5.695030e+000 7.888555e+000 6.000000e+000
    endloop
  endfacet
  facet normal 1.842567e-016 2.643982e-017 1.000000e+000
    outer loop
      vertex   -6.000000e+000 6.000000e+000 6.000000e+000
      vertex   5.979198e+000 6.499189e+000 6.000000e+000
      vertex   5.878306e+000 7.202297e+000 6.000000e+000
    endloop
  endfacet
  facet normal 1.851727e-016 4.457494e-018 1.000000e+000
    outer loop
      vertex   -6.000000e+000 6.000000e+000 6.000000e+000
      vertex   5.996292e+000 5.789086e+000 6.000000e+000
      vertex   5.979198e+000 6.499189e+000 6.000000e+000
    endloop
  endfacet
  facet normal 1.847868e-016 -1.749340e-017 1.000000e+000
    outer loop
      vertex   -6.000000e+000 6.000000e+000 6.000000e+000
      vertex   5.929348e+000 5.081938e+000 6.000000e+000
      vertex   5.996292e+000 5.789086e+000 6.000000e+000
    endloop
  endfacet
  facet normal 1.830880e-016 -3.956791e-017 1.000000e+000
    outer loop
      vertex   -6.000000e+000 6.000000e+000 6.000000e+000
      vertex   5.779303e+000 4.387657e+000 6.000000e+000
      vertex   5.929348e+000 5.081938e+000 6.000000e+000
    endloop
  endfacet
  facet normal 1.800278e-016 -6.192461e-017 1.000000e+000
    outer loop
      vertex   -6.000000e+000 6.000000e+000 6.000000e+000
      vertex   5.548263e+000 3.715972e+000 6.000000e+000
      vertex   5.779303e+000 4.387657e+000 6.000000e+000
    endloop
  endfacet
  facet normal 1.755173e-016 -8.473023e-017 1.000000e+000
    outer loop
      vertex   -6.000000e+000 6.000000e+000 6.000000e+000
      vertex   5.239463e+000 3.076299e+000 6.000000e+000
      vertex   5.548263e+000 3.715972e+000 6.000000e+000
    endloop
  endfacet
  facet normal 1.694213e-016 -1.081648e-016 1.000000e+000
    outer loop
      vertex   -6.000000e+000 6.000000e+000 6.000000e+000
      vertex   4.857232e+000 2.477601e+000 6.000000e+000
      vertex   5.239463e+000 3.076299e+000 6.000000e+000
    endloop
  endfacet
  facet normal 1.615498e-016 -1.324275e-016 1.000000e+000
    outer loop
      vertex   -6.000000e+000 6.000000e+000 6.000000e+000
      vertex   4.406927e+000 1.928269e+000 6.000000e+000
      vertex   4.857232e+000 2.477601e+000 6.000000e+000
    endloop
  endfacet
  facet normal 3.495370e-016 3.480486e-016 1.000000e+000
    outer loop
      vertex   -6.000000e+000 6.000000e+000 6.000000e+000
      vertex   -2.560400e-002 5.463065e-005 6.000000e+000
      vertex   4.406927e+000 1.928269e+000 6.000000e+000
    endloop
  endfacet
  facet normal 9.149861e-016 -9.517915e-016 1.000000e+000
    outer loop
      vertex   4.406927e+000 1.928269e+000 6.000000e+000
      vertex   -2.560400e-002 5.463065e-005 6.000000e+000
      vertex   3.894860e+000 1.436003e+000 6.000000e+000
    endloop
  endfacet
  facet normal 1.098867e-015 -1.453829e-015 1.000000e+000
    outer loop
      vertex   3.894860e+000 1.436003e+000 6.000000e+000
      vertex   -2.560400e-002 5.463065e-005 6.000000e+000
      vertex   3.328205e+000 1.007701e+000 6.000000e+000
    endloop
  endfacet
  facet normal 1.362907e-015 -2.332649e-015 1.000000e+000
    outer loop
      vertex   3.328205e+000 1.007701e+000 6.000000e+000
      vertex   -2.560400e-002 5.463065e-005 6.000000e+000
      vertex   2.714906e+000 6.493661e-001 6.000000e+000
    endloop
  endfacet
  facet normal 1.779361e-015 -4.090350e-015 1.000000e+000
    outer loop
      vertex   2.714906e+000 6.493661e-001 6.000000e+000
      vertex   -2.560400e-002 5.463065e-005 6.000000e+000
      vertex   2.063558e+000 3.660202e-001 6.000000e+000
    endloop
  endfacet
  facet normal 2.549023e-015 -8.484063e-015 1.000000e+000
    outer loop
      vertex   2.063558e+000 3.660202e-001 6.000000e+000
      vertex   -2.560400e-002 5.463065e-005 6.000000e+000
      vertex   1.383289e+000 1.616345e-001 6.000000e+000
    endloop
  endfacet
  facet normal 4.564187e-015 -2.605525e-014 1.000000e+000
    outer loop
      vertex   1.383289e+000 1.616345e-001 6.000000e+000
      vertex   -2.560400e-002 5.463065e-005 6.000000e+000
      vertex   6.836330e-001 3.907340e-002 6.000000e+000
    endloop
  endfacet
  facet normal 0.000000e+000 -0.000000e+000 1.000000e+000
    outer loop
      vertex   -2.100000e+001 1.300000e+001 6.000000e+000
      vertex   -6.000000e+000 1.300000e+001 6.000000e+000
      vertex   -2.100000e+001 1.800000e+001 6.000000e+000
    endloop
  endfacet
  facet normal -0.000000e+000 0.000000e+000 1.000000e+000
    outer loop
      vertex   -2.100000e+001 1.800000e+001 6.000000e+000
      vertex   -6.000000e+000 1.300000e+001 6.000000e+000
      vertex   4.000000e+000 1.800000e+001 6.000000e+000
    endloop
  endfacet
  facet normal 0.000000e+000 0.000000e+000 -1.000000e+000
    outer loop
      vertex   -2.100000e+001 1.300000e+001 -6.000000e+000
      vertex   -2.100000e+001 1.800000e+001 -6.000000e+000
      vertex   -6.000000e+000 1.300000e+001 -6.000000e+000
    endloop
  endfacet
  facet normal 0.000000e+000 0.000000e+000 -1.000000e+000
    outer loop
      vertex   -6.000000e+000 1.300000e+001 -6.000000e+000
      vertex   -2.100000e+001 1.800000e+001 -6.000000e+000
      vertex   4.000000e+000 1.800000e+001 -6.000000e+000
    endloop
  endfacet
  facet normal -0.000000e+000 0.000000e+000 -1.000000e+000
    outer loop
      vertex   4.000000e+000 1.300000e+001 -6.000000e+000
      vertex   -6.000000e+000 1.300000e+001 -6.000000e+000
      vertex   4.000000e+000 1.800000e+001 -6.000000e+000
    endloop
  endfacet
  facet normal -0.000000e+000 0.000000e+000 -1.000000e+000
    outer loop
      vertex   4.000000e+000 1.300000e+001 -6.000000e+000
      vertex   -6.000000e+000 6.000000e+000 -6.000000e+000
      vertex   -6.000000e+000 1.300000e+001 -6.000000e+000
    endloop
  endfacet
  facet normal 0.000000e+000 -0.000000e+000 -1.000000e+000
    outer loop
      vertex   4.000000e+000 1.300000e+001 -6.000000e+000
      vertex   5.695030e+000 7.888555e+000 -6.000000e+000
      vertex   -6.000000e+000 6.000000e+000 -6.000000e+000
    endloop
  endfacet
  facet normal 0.000000e+000 0.000000e+000 -1.000000e+000
    outer loop
      vertex   -6.000000e+000 6.000000e+000 -6.000000e+000
      vertex   5.695030e+000 7.888555e+000 -6.000000e+000
      vertex   5.878306e+000 7.202297e+000 -6.000000e+000
    endloop
  endfacet
  facet normal -0.000000e+000 0.000000e+000 -1.000000e+000
    outer loop
      vertex   5.979198e+000 6.499189e+000 -6.000000e+000
      vertex   -6.000000e+000 6.000000e+000 -6.000000e+000
      vertex   5.878306e+000 7.202297e+000 -6.000000e+000
    endloop
  endfacet
  facet normal -0.000000e+000 -0.000000e+000 -1.000000e+000
    outer loop
      vertex   5.979198e+000 6.499189e+000 -6.000000e+000
      vertex   5.996292e+000 5.789086e+000 -6.000000e+000
      vertex   -6.000000e+000 6.000000e+000 -6.000000e+000
    endloop
  endfacet
  facet normal 0.000000e+000 -0.000000e+000 -1.000000e+000
    outer loop
      vertex   -6.000000e+000 6.000000e+000 -6.000000e+000
      vertex   5.996292e+000 5.789086e+000 -6.000000e+000
      vertex   5.929348e+000 5.081938e+000 -6.000000e+000
    endloop
  endfacet
  facet normal 0.000000e+000 0.000000e+000 -1.000000e+000
    outer loop
      vertex   5.779303e+000 4.387657e+000 -6.000000e+000
      vertex   -6.000000e+000 6.000000e+000 -6.000000e+000
      vertex   5.929348e+000 5.081938e+000 -6.000000e+000
    endloop
  endfacet
  facet normal -0.000000e+000 0.000000e+000 -1.000000e+000
    outer loop
      vertex   5.779303e+000 4.387657e+000 -6.000000e+000
      vertex   5.548263e+000 3.715972e+000 -6.000000e+000
      vertex   -6.000000e+000 6.000000e+000 -6.000000e+000
    endloop
  endfacet
  facet normal 0.000000e+000 -0.000000e+000 -1.000000e+000
    outer loop
      vertex   -6.000000e+000 6.000000e+000 -6.000000e+000
      vertex   5.548263e+000 3.715972e+000 -6.000000e+000
      vertex   5.239463e+000 3.076299e+000 -6.000000e+000
    endloop
  endfacet
  facet normal 0.000000e+000 0.000000e+000 -1.000000e+000
    outer loop
      vertex   4.857232e+000 2.477601e+000 -6.000000e+000
      vertex   -6.000000e+000 6.000000e+000 -6.000000e+000
      vertex   5.239463e+000 3.076299e+000 -6.000000e+000
    endloop
  endfacet
  facet normal -0.000000e+000 0.000000e+000 -1.000000e+000
    outer loop
      vertex   4.857232e+000 2.477601e+000 -6.000000e+000
      vertex   4.406927e+000 1.928269e+000 -6.000000e+000
      vertex   -6.000000e+000 6.000000e+000 -6.000000e+000
    endloop
  endfacet
  facet normal 0.000000e+000 -0.000000e+000 -1.000000e+000
    outer loop
      vertex   -6.000000e+000 6.000000e+000 -6.000000e+000
      vertex   4.406927e+000 1.928269e+000 -6.000000e+000
      vertex   -2.560400e-002 5.463065e-005 -6.000000e+000
    endloop
  endfacet
  facet normal 0.000000e+000 -0.000000e+000 -1.000000e+000
    outer loop
      vertex   -2.560400e-002 5.463065e-005 -6.000000e+000
      vertex   4.406927e+000 1.928269e+000 -6.000000e+000
      vertex   3.894860e+000 1.436003e+000 -6.000000e+000
    endloop
  endfacet
  facet normal -0.000000e+000 0.000000e+000 -1.000000e+000
    outer loop
      vertex   3.328205e+000 1.007701e+000 -6.000000e+000
      vertex   -2.560400e-002 5.463065e-005 -6.000000e+000
      vertex   3.894860e+000 1.436003e+000 -6.000000e+000
    endloop
  endfacet
  facet normal 0.000000e+000 0.000000e+000 -1.000000e+000
    outer loop
      vertex   3.328205e+000 1.007701e+000 -6.000000e+000
      vertex   2.714906e+000 6.493661e-001 -6.000000e+000
      vertex   -2.560400e-002 5.463065e-005 -6.000000e+000
    endloop
  endfacet
  facet normal 0.000000e+000 -0.000000e+000 -1.000000e+000
    outer loop
      vertex   -2.560400e-002 5.463065e-005 -6.000000e+000
      vertex   2.714906e+000 6.493661e-001 -6.000000e+000
      vertex   2.063558e+000 3.660202e-001 -6.000000e+000
    endloop
  endfacet
  facet normal -0.000000e+000 0.000000e+000 -1.000000e+000
    outer loop
      vertex   1.383289e+000 1.616345e-001 -6.000000e+000
      vertex   -2.560400e-002 5.463065e-005 -6.000000e+000
      vertex   2.063558e+000 3.660202e-001 -6.000000e+000
    endloop
  endfacet
  facet normal 0.000000e+000 0.000000e+000 -1.000000e+000
    outer loop
      vertex   1.383289e+000 1.616345e-001 -6.000000e+000
      vertex   6.836330e-001 3.907340e-002 -6.000000e+000
      vertex   -2.560400e-002 5.463065e-005 -6.000000e+000
    endloop
  endfacet
endsolid
