solid ascii
  facet normal 1.000000e+000 -8.881784e-015 0.000000e+000
    outer loop
      vertex   -4.440892e-015 -1.500000e+000 5.000000e+000
      vertex   -3.996803e-014 -5.500000e+000 5.000000e+000
      vertex   -4.440892e-015 -1.500000e+000 0.000000e+000
    endloop
  endfacet
  facet normal 1.000000e+000 -8.881784e-015 0.000000e+000
    outer loop
      vertex   -4.440892e-015 -1.500000e+000 0.000000e+000
      vertex   -3.996803e-014 -5.500000e+000 5.000000e+000
      vertex   -3.996803e-014 -5.500000e+000 0.000000e+000
    endloop
  endfacet
  facet normal -3.700743e-016 -1.000000e+000 0.000000e+000
    outer loop
      vertex   -3.996803e-014 -5.500000e+000 5.000000e+000
      vertex   -3.000000e+000 -5.500000e+000 5.000000e+000
      vertex   -3.996803e-014 -5.500000e+000 0.000000e+000
    endloop
  endfacet
  facet normal -3.700743e-016 -1.000000e+000 -0.000000e+000
    outer loop
      vertex   -3.996803e-014 -5.500000e+000 0.000000e+000
      vertex   -3.000000e+000 -5.500000e+000 5.000000e+000
      vertex   -3.000000e+000 -5.500000e+000 0.000000e+000
    endloop
  endfacet
  facet normal -1.000000e+000 0.000000e+000 -0.000000e+000
    outer loop
      vertex   -3.000000e+000 -5.500000e+000 5.000000e+000
      vertex   -3.000000e+000 8.500000e+000 5.000000e+000
      vertex   -3.000000e+000 -5.500000e+000 0.000000e+000
    endloop
  endfacet
  facet normal -1.000000e+000 0.000000e+000 0.000000e+000
    outer loop
      vertex   -3.000000e+000 -5.500000e+000 0.000000e+000
      vertex   -3.000000e+000 8.500000e+000 5.000000e+000
      vertex   -3.000000e+000 8.500000e+000 0.000000e+000
    endloop
  endfacet
  facet normal -0.000000e+000 1.000000e+000 0.000000e+000
    outer loop
      vertex   -3.000000e+000 8.500000e+000 5.000000e+000
      vertex   -1.840683e-014 8.500000e+000 5.000000e+000
      vertex   -3.000000e+000 8.500000e+000 0.000000e+000
    endloop
  endfacet
  facet normal -0.000000e+000 1.000000e+000 0.000000e+000
    outer loop
      vertex   -3.000000e+000 8.500000e+000 0.000000e+000
      vertex   -1.840683e-014 8.500000e+000 5.000000e+000
      vertex   -1.840683e-014 8.500000e+000 0.000000e+000
    endloop
  endfacet
  facet normal 1.000000e+000 -4.735253e-017 0.000000e+000
    outer loop
      vertex   -1.840683e-014 8.500000e+000 5.000000e+000
      vertex   -1.859624e-014 4.500000e+000 5.000000e+000
      vertex   -1.840683e-014 8.500000e+000 0.000000e+000
    endloop
  endfacet
  facet normal 1.000000e+000 -4.735253e-017 0.000000e+000
    outer loop
      vertex   -1.840683e-014 8.500000e+000 0.000000e+000
      vertex   -1.859624e-014 4.500000e+000 5.000000e+000
      vertex   -1.859624e-014 4.500000e+000 0.000000e+000
    endloop
  endfacet
  facet normal 3.454027e-015 1.000000e+000 0.000000e+000
    outer loop
      vertex   -1.859624e-014 4.500000e+000 5.000000e+000
      vertex   2.250000e+000 4.500000e+000 5.000000e+000
      vertex   -1.859624e-014 4.500000e+000 0.000000e+000
    endloop
  endfacet
  facet normal 3.454027e-015 1.000000e+000 0.000000e+000
    outer loop
      vertex   -1.859624e-014 4.500000e+000 0.000000e+000
      vertex   2.250000e+000 4.500000e+000 5.000000e+000
      vertex   2.250000e+000 4.500000e+000 0.000000e+000
    endloop
  endfacet
  facet normal -1.000000e+000 3.515706e-015 0.000000e+000
    outer loop
      vertex   2.250000e+000 4.500000e+000 5.000000e+000
      vertex   2.250000e+000 6.000000e+000 5.000000e+000
      vertex   2.250000e+000 4.500000e+000 0.000000e+000
    endloop
  endfacet
  facet normal -1.000000e+000 3.515706e-015 0.000000e+000
    outer loop
      vertex   2.250000e+000 4.500000e+000 0.000000e+000
      vertex   2.250000e+000 6.000000e+000 5.000000e+000
      vertex   2.250000e+000 6.000000e+000 0.000000e+000
    endloop
  endfacet
  facet normal 7.682213e-001 6.401844e-001 0.000000e+000
    outer loop
      vertex   2.250000e+000 6.000000e+000 5.000000e+000
      vertex   3.500000e+000 4.500000e+000 5.000000e+000
      vertex   2.250000e+000 6.000000e+000 0.000000e+000
    endloop
  endfacet
  facet normal 7.682213e-001 6.401844e-001 0.000000e+000
    outer loop
      vertex   2.250000e+000 6.000000e+000 0.000000e+000
      vertex   3.500000e+000 4.500000e+000 5.000000e+000
      vertex   3.500000e+000 4.500000e+000 0.000000e+000
    endloop
  endfacet
  facet normal 1.000000e+000 -3.330669e-015 0.000000e+000
    outer loop
      vertex   3.500000e+000 4.500000e+000 5.000000e+000
      vertex   3.500000e+000 3.000000e+000 5.000000e+000
      vertex   3.500000e+000 4.500000e+000 0.000000e+000
    endloop
  endfacet
  facet normal 1.000000e+000 -3.330669e-015 0.000000e+000
    outer loop
      vertex   3.500000e+000 4.500000e+000 0.000000e+000
      vertex   3.500000e+000 3.000000e+000 5.000000e+000
      vertex   3.500000e+000 3.000000e+000 0.000000e+000
    endloop
  endfacet
  facet normal -3.489272e-015 -1.000000e+000 0.000000e+000
    outer loop
      vertex   3.500000e+000 3.000000e+000 5.000000e+000
      vertex   -2.398083e-014 3.000000e+000 5.000000e+000
      vertex   3.500000e+000 3.000000e+000 0.000000e+000
    endloop
  endfacet
  facet normal -3.489272e-015 -1.000000e+000 -0.000000e+000
    outer loop
      vertex   3.500000e+000 3.000000e+000 0.000000e+000
      vertex   -2.398083e-014 3.000000e+000 5.000000e+000
      vertex   -2.398083e-014 3.000000e+000 0.000000e+000
    endloop
  endfacet
  facet normal 1.000000e+000 -3.478695e-015 0.000000e+000
    outer loop
      vertex   -2.398083e-014 3.000000e+000 5.000000e+000
      vertex   -3.441691e-014 -4.930381e-029 5.000000e+000
      vertex   -2.398083e-014 3.000000e+000 0.000000e+000
    endloop
  endfacet
  facet normal 1.000000e+000 -3.478695e-015 0.000000e+000
    outer loop
      vertex   -2.398083e-014 3.000000e+000 0.000000e+000
      vertex   -3.441691e-014 -4.930381e-029 5.000000e+000
      vertex   -3.441691e-014 -4.930381e-029 0.000000e+000
    endloop
  endfacet
  facet normal 3.568574e-015 1.000000e+000 0.000000e+000
    outer loop
      vertex   -3.441691e-014 -4.930381e-029 5.000000e+000
      vertex   3.500000e+000 -1.249001e-014 5.000000e+000
      vertex   -3.441691e-014 -4.930381e-029 0.000000e+000
    endloop
  endfacet
  facet normal 3.568574e-015 1.000000e+000 0.000000e+000
    outer loop
      vertex   -3.441691e-014 -4.930381e-029 0.000000e+000
      vertex   3.500000e+000 -1.249001e-014 5.000000e+000
      vertex   3.500000e+000 -1.249001e-014 0.000000e+000
    endloop
  endfacet
  facet normal 1.000000e+000 -3.700743e-015 0.000000e+000
    outer loop
      vertex   3.500000e+000 -1.249001e-014 5.000000e+000
      vertex   3.500000e+000 -1.500000e+000 5.000000e+000
      vertex   3.500000e+000 -1.249001e-014 0.000000e+000
    endloop
  endfacet
  facet normal 1.000000e+000 -3.700743e-015 0.000000e+000
    outer loop
      vertex   3.500000e+000 -1.249001e-014 0.000000e+000
      vertex   3.500000e+000 -1.500000e+000 5.000000e+000
      vertex   3.500000e+000 -1.500000e+000 0.000000e+000
    endloop
  endfacet
  facet normal 7.682213e-001 -6.401844e-001 0.000000e+000
    outer loop
      vertex   3.500000e+000 -1.500000e+000 5.000000e+000
      vertex   2.250000e+000 -3.000000e+000 5.000000e+000
      vertex   3.500000e+000 -1.500000e+000 0.000000e+000
    endloop
  endfacet
  facet normal 7.682213e-001 -6.401844e-001 0.000000e+000
    outer loop
      vertex   3.500000e+000 -1.500000e+000 0.000000e+000
      vertex   2.250000e+000 -3.000000e+000 5.000000e+000
      vertex   2.250000e+000 -3.000000e+000 0.000000e+000
    endloop
  endfacet
  facet normal -1.000000e+000 3.515706e-015 0.000000e+000
    outer loop
      vertex   2.250000e+000 -3.000000e+000 5.000000e+000
      vertex   2.250000e+000 -1.500000e+000 5.000000e+000
      vertex   2.250000e+000 -3.000000e+000 0.000000e+000
    endloop
  endfacet
  facet normal -1.000000e+000 3.515706e-015 0.000000e+000
    outer loop
      vertex   2.250000e+000 -3.000000e+000 0.000000e+000
      vertex   2.250000e+000 -1.500000e+000 5.000000e+000
      vertex   2.250000e+000 -1.500000e+000 0.000000e+000
    endloop
  endfacet
  facet normal -3.577385e-015 -1.000000e+000 0.000000e+000
    outer loop
      vertex   2.250000e+000 -1.500000e+000 5.000000e+000
      vertex   -4.440892e-015 -1.500000e+000 5.000000e+000
      vertex   2.250000e+000 -1.500000e+000 0.000000e+000
    endloop
  endfacet
  facet normal -3.577385e-015 -1.000000e+000 -0.000000e+000
    outer loop
      vertex   2.250000e+000 -1.500000e+000 0.000000e+000
      vertex   -4.440892e-015 -1.500000e+000 5.000000e+000
      vertex   -4.440892e-015 -1.500000e+000 0.000000e+000
    endloop
  endfacet
  facet normal 0.000000e+000 -0.000000e+000 1.000000e+000
    outer loop
      vertex   -3.996803e-014 -5.500000e+000 5.000000e+000
      vertex   -4.440892e-015 -1.500000e+000 5.000000e+000
      vertex   -3.000000e+000 -5.500000e+000 5.000000e+000
    endloop
  endfacet
  facet normal 0.000000e+000 -0.000000e+000 1.000000e+000
    outer loop
      vertex   -3.000000e+000 -5.500000e+000 5.000000e+000
      vertex   -4.440892e-015 -1.500000e+000 5.000000e+000
      vertex   -3.441691e-014 -4.930381e-029 5.000000e+000
    endloop
  endfacet
  facet normal -0.000000e+000 0.000000e+000 1.000000e+000
    outer loop
      vertex   -2.398083e-014 3.000000e+000 5.000000e+000
      vertex   -3.000000e+000 -5.500000e+000 5.000000e+000
      vertex   -3.441691e-014 -4.930381e-029 5.000000e+000
    endloop
  endfacet
  facet normal 0.000000e+000 0.000000e+000 1.000000e+000
    outer loop
      vertex   -2.398083e-014 3.000000e+000 5.000000e+000
      vertex   -3.000000e+000 8.500000e+000 5.000000e+000
      vertex   -3.000000e+000 -5.500000e+000 5.000000e+000
    endloop
  endfacet
  facet normal 0.000000e+000 -0.000000e+000 1.000000e+000
    outer loop
      vertex   -2.398083e-014 3.000000e+000 5.000000e+000
      vertex   -1.859624e-014 4.500000e+000 5.000000e+000
      vertex   -3.000000e+000 8.500000e+000 5.000000e+000
    endloop
  endfacet
  facet normal 0.000000e+000 -0.000000e+000 1.000000e+000
    outer loop
      vertex   -2.398083e-014 3.000000e+000 5.000000e+000
      vertex   2.250000e+000 4.500000e+000 5.000000e+000
      vertex   -1.859624e-014 4.500000e+000 5.000000e+000
    endloop
  endfacet
  facet normal -0.000000e+000 -0.000000e+000 1.000000e+000
    outer loop
      vertex   -2.398083e-014 3.000000e+000 5.000000e+000
      vertex   3.500000e+000 3.000000e+000 5.000000e+000
      vertex   2.250000e+000 4.500000e+000 5.000000e+000
    endloop
  endfacet
  facet normal -0.000000e+000 0.000000e+000 1.000000e+000
    outer loop
      vertex   2.250000e+000 4.500000e+000 5.000000e+000
      vertex   3.500000e+000 3.000000e+000 5.000000e+000
      vertex   3.500000e+000 4.500000e+000 5.000000e+000
    endloop
  endfacet
  facet normal 0.000000e+000 0.000000e+000 1.000000e+000
    outer loop
      vertex   2.250000e+000 6.000000e+000 5.000000e+000
      vertex   2.250000e+000 4.500000e+000 5.000000e+000
      vertex   3.500000e+000 4.500000e+000 5.000000e+000
    endloop
  endfacet
  facet normal -0.000000e+000 -0.000000e+000 1.000000e+000
    outer loop
      vertex   -4.440892e-015 -1.500000e+000 5.000000e+000
      vertex   2.250000e+000 -1.500000e+000 5.000000e+000
      vertex   -3.441691e-014 -4.930381e-029 5.000000e+000
    endloop
  endfacet
  facet normal -0.000000e+000 0.000000e+000 1.000000e+000
    outer loop
      vertex   -3.441691e-014 -4.930381e-029 5.000000e+000
      vertex   2.250000e+000 -1.500000e+000 5.000000e+000
      vertex   3.500000e+000 -1.249001e-014 5.000000e+000
    endloop
  endfacet
  facet normal 0.000000e+000 0.000000e+000 1.000000e+000
    outer loop
      vertex   3.500000e+000 -1.249001e-014 5.000000e+000
      vertex   2.250000e+000 -1.500000e+000 5.000000e+000
      vertex   3.500000e+000 -1.500000e+000 5.000000e+000
    endloop
  endfacet
  facet normal 0.000000e+000 0.000000e+000 1.000000e+000
    outer loop
      vertex   3.500000e+000 -1.500000e+000 5.000000e+000
      vertex   2.250000e+000 -1.500000e+000 5.000000e+000
      vertex   2.250000e+000 -3.000000e+000 5.000000e+000
    endloop
  endfacet
  facet normal 0.000000e+000 -0.000000e+000 1.000000e+000
    outer loop
      vertex   -1.859624e-014 4.500000e+000 5.000000e+000
      vertex   -1.840683e-014 8.500000e+000 5.000000e+000
      vertex   -3.000000e+000 8.500000e+000 5.000000e+000
    endloop
  endfacet
  facet normal 0.000000e+000 0.000000e+000 -1.000000e+000
    outer loop
      vertex   -3.996803e-014 -5.500000e+000 0.000000e+000
      vertex   -3.000000e+000 -5.500000e+000 0.000000e+000
      vertex   -4.440892e-015 -1.500000e+000 0.000000e+000
    endloop
  endfacet
  facet normal -0.000000e+000 0.000000e+000 -1.000000e+000
    outer loop
      vertex   -4.440892e-015 -1.500000e+000 0.000000e+000
      vertex   -3.000000e+000 -5.500000e+000 0.000000e+000
      vertex   -3.441691e-014 -4.930381e-029 0.000000e+000
    endloop
  endfacet
  facet normal 0.000000e+000 0.000000e+000 -1.000000e+000
    outer loop
      vertex   2.250000e+000 -1.500000e+000 0.000000e+000
      vertex   -3.441691e-014 -4.930381e-029 0.000000e+000
      vertex   3.500000e+000 -1.249001e-014 0.000000e+000
    endloop
  endfacet
  facet normal 0.000000e+000 0.000000e+000 -1.000000e+000
    outer loop
      vertex   3.500000e+000 -1.500000e+000 0.000000e+000
      vertex   2.250000e+000 -1.500000e+000 0.000000e+000
      vertex   3.500000e+000 -1.249001e-014 0.000000e+000
    endloop
  endfacet
  facet normal -0.000000e+000 0.000000e+000 -1.000000e+000
    outer loop
      vertex   3.500000e+000 -1.500000e+000 0.000000e+000
      vertex   2.250000e+000 -3.000000e+000 0.000000e+000
      vertex   2.250000e+000 -1.500000e+000 0.000000e+000
    endloop
  endfacet
  facet normal -0.000000e+000 0.000000e+000 -1.000000e+000
    outer loop
      vertex   -3.441691e-014 -4.930381e-029 0.000000e+000
      vertex   -3.000000e+000 -5.500000e+000 0.000000e+000
      vertex   -2.398083e-014 3.000000e+000 0.000000e+000
    endloop
  endfacet
  facet normal -0.000000e+000 0.000000e+000 -1.000000e+000
    outer loop
      vertex   -2.398083e-014 3.000000e+000 0.000000e+000
      vertex   -3.000000e+000 -5.500000e+000 0.000000e+000
      vertex   -3.000000e+000 8.500000e+000 0.000000e+000
    endloop
  endfacet
  facet normal 0.000000e+000 0.000000e+000 -1.000000e+000
    outer loop
      vertex   -1.859624e-014 4.500000e+000 0.000000e+000
      vertex   -3.000000e+000 8.500000e+000 0.000000e+000
      vertex   -1.840683e-014 8.500000e+000 0.000000e+000
    endloop
  endfacet
  facet normal -0.000000e+000 0.000000e+000 -1.000000e+000
    outer loop
      vertex   -1.859624e-014 4.500000e+000 0.000000e+000
      vertex   -2.398083e-014 3.000000e+000 0.000000e+000
      vertex   -3.000000e+000 8.500000e+000 0.000000e+000
    endloop
  endfacet
  facet normal 0.000000e+000 -0.000000e+000 -1.000000e+000
    outer loop
      vertex   -1.859624e-014 4.500000e+000 0.000000e+000
      vertex   2.250000e+000 4.500000e+000 0.000000e+000
      vertex   -2.398083e-014 3.000000e+000 0.000000e+000
    endloop
  endfacet
  facet normal 0.000000e+000 0.000000e+000 -1.000000e+000
    outer loop
      vertex   -2.398083e-014 3.000000e+000 0.000000e+000
      vertex   2.250000e+000 4.500000e+000 0.000000e+000
      vertex   3.500000e+000 3.000000e+000 0.000000e+000
    endloop
  endfacet
  facet normal 0.000000e+000 0.000000e+000 -1.000000e+000
    outer loop
      vertex   3.500000e+000 3.000000e+000 0.000000e+000
      vertex   2.250000e+000 4.500000e+000 0.000000e+000
      vertex   3.500000e+000 4.500000e+000 0.000000e+000
    endloop
  endfacet
  facet normal 0.000000e+000 0.000000e+000 -1.000000e+000
    outer loop
      vertex   3.500000e+000 4.500000e+000 0.000000e+000
      vertex   2.250000e+000 4.500000e+000 0.000000e+000
      vertex   2.250000e+000 6.000000e+000 0.000000e+000
    endloop
  endfacet
  facet normal -0.000000e+000 -0.000000e+000 -1.000000e+000
    outer loop
      vertex   -3.441691e-014 -4.930381e-029 0.000000e+000
      vertex   2.250000e+000 -1.500000e+000 0.000000e+000
      vertex   -4.440892e-015 -1.500000e+000 0.000000e+000
    endloop
  endfacet
endsolid
