solid OpenSCAD_Model
  facet normal -1 -0 -0
    outer loop
      vertex -15 11.5 0
      vertex -15 11.5 10
      vertex -15 19.5 0
    endloop
  endfacet
  facet normal -1 0 0
    outer loop
      vertex -15 19.5 0
      vertex -15 11.5 10
      vertex -15 19.5 10
    endloop
  endfacet
  facet normal 0 -1 0
    outer loop
      vertex -11.4539 11.5 4.29982
      vertex -15 11.5 0
      vertex -6.5 11.5 0
    endloop
  endfacet
  facet normal 0 -1 0
    outer loop
      vertex -10.3591 11.5 3.42671
      vertex -11.4539 11.5 4.29982
      vertex -6.5 11.5 0
    endloop
  endfacet
  facet normal 0 -1 0
    outer loop
      vertex -15 11.5 10
      vertex -15 11.5 0
      vertex -11.4539 11.5 4.29982
    endloop
  endfacet
  facet normal 0 -1 0
    outer loop
      vertex -15 11.5 10
      vertex -11.4539 11.5 4.29982
      vertex -11.4539 11.5 5.70018
    endloop
  endfacet
  facet normal 0 -1 0
    outer loop
      vertex -8.99384 11.5 3.73832
      vertex -10.0566 11.5 3.49574
      vertex -6.5 11.5 0
    endloop
  endfacet
  facet normal 0 -1 0
    outer loop
      vertex -6.5 11.5 10
      vertex -15 11.5 10
      vertex -10.6016 11.5 6.37987
    endloop
  endfacet
  facet normal 0 -1 0
    outer loop
      vertex -8.85924 11.5 4.01782
      vertex -8.99384 11.5 3.73832
      vertex -6.5 11.5 0
    endloop
  endfacet
  facet normal 0 -1 0
    outer loop
      vertex -6.5 11.5 10
      vertex -10.6016 11.5 6.37987
      vertex -10.3591 11.5 6.57329
    endloop
  endfacet
  facet normal 0 -1 0
    outer loop
      vertex -6.5 11.5 10
      vertex -10.3591 11.5 6.57329
      vertex -9.29629 11.5 6.33071
    endloop
  endfacet
  facet normal 0 -1 0
    outer loop
      vertex -6.5 11.5 10
      vertex -9.29629 11.5 6.33071
      vertex -8.99384 11.5 6.26168
    endloop
  endfacet
  facet normal 0 -1 0
    outer loop
      vertex -6.5 11.5 10
      vertex -8.99384 11.5 6.26168
      vertex -8.52085 11.5 5.2795
    endloop
  endfacet
  facet normal 0 -1 0
    outer loop
      vertex -6.5 11.5 10
      vertex -8.38625 11.5 5
      vertex -6.5 11.5 0
    endloop
  endfacet
  facet normal 0 -1 0
    outer loop
      vertex -6.5 11.5 10
      vertex -8.52085 11.5 5.2795
      vertex -8.38625 11.5 5
    endloop
  endfacet
  facet normal 0 -1 0
    outer loop
      vertex -10.0566 11.5 3.49574
      vertex -10.3591 11.5 3.42671
      vertex -6.5 11.5 0
    endloop
  endfacet
  facet normal 0 -2.26865e-08 0
    outer loop
      vertex -11.2114 11.5 4.1064
      vertex -11.4539 11.5 4.29982
      vertex -10.3591 11.5 3.42671
    endloop
  endfacet
  facet normal 0 -1 -0
    outer loop
      vertex -11.4539 11.5 5.70018
      vertex -10.6016 11.5 6.37987
      vertex -15 11.5 10
    endloop
  endfacet
  facet normal 0 -1 0
    outer loop
      vertex -8.38625 11.5 5
      vertex -8.85924 11.5 4.01782
      vertex -6.5 11.5 0
    endloop
  endfacet
  facet normal -0 -0 -1
    outer loop
      vertex -15 11.5 0
      vertex -15 19.5 0
      vertex -6.5 11.5 0
    endloop
  endfacet
  facet normal 0 -0 -1
    outer loop
      vertex -6.5 11.5 0
      vertex -15 19.5 0
      vertex 15 19.5 0
    endloop
  endfacet
  facet normal -0 0 -1
    outer loop
      vertex 6.5 11.5 0
      vertex 15 19.5 0
      vertex 15 11.5 0
    endloop
  endfacet
  facet normal -0 0 -1
    outer loop
      vertex -6.5 11.5 0
      vertex 15 19.5 0
      vertex 6.5 11.5 0
    endloop
  endfacet
  facet normal 0 0 -1
    outer loop
      vertex -2.5302 -33.7633 0
      vertex -6.5 -40 0
      vertex -3.1275 -31.925 0
    endloop
  endfacet
  facet normal 0 0 -1
    outer loop
      vertex -0.966451 -34.8994 0
      vertex -6.5 -40 0
      vertex -2.5302 -33.7633 0
    endloop
  endfacet
  facet normal 0 0 -1
    outer loop
      vertex 6.5 -40 0
      vertex -6.5 -40 0
      vertex -0.966451 -34.8994 0
    endloop
  endfacet
  facet normal 0 -0 -1
    outer loop
      vertex -3.1275 -12.65 0
      vertex -6.5 11.5 0
      vertex -2.5302 -10.8117 0
    endloop
  endfacet
  facet normal 0 0 -1
    outer loop
      vertex 6.5 -40 0
      vertex 0.966451 -34.8994 0
      vertex 2.5302 -33.7633 0
    endloop
  endfacet
  facet normal 0 0 -1
    outer loop
      vertex 6.5 -40 0
      vertex 2.5302 -33.7633 0
      vertex 3.1275 -31.925 0
    endloop
  endfacet
  facet normal 0 0 -1
    outer loop
      vertex -2.5302 -14.4883 0
      vertex 2.5302 -30.0867 0
      vertex -3.1275 -12.65 0
    endloop
  endfacet
  facet normal 0 0 -1
    outer loop
      vertex 0.966451 -34.8994 0
      vertex 6.5 -40 0
      vertex -0.966451 -34.8994 0
    endloop
  endfacet
  facet normal 0 0 -1
    outer loop
      vertex -0.966451 -15.6244 0
      vertex 2.5302 -30.0867 0
      vertex -2.5302 -14.4883 0
    endloop
  endfacet
  facet normal 0 0 -1
    outer loop
      vertex 0.966451 -15.6244 0
      vertex 6.5 -40 0
      vertex 2.5302 -30.0867 0
    endloop
  endfacet
  facet normal 0 0 -1
    outer loop
      vertex 2.5302 -14.4883 0
      vertex 6.5 -40 0
      vertex 0.966451 -15.6244 0
    endloop
  endfacet
  facet normal 0 0 -1
    outer loop
      vertex 3.1275 -12.65 0
      vertex 6.5 -40 0
      vertex 2.5302 -14.4883 0
    endloop
  endfacet
  facet normal 0 0 -1
    outer loop
      vertex 6.5 11.5 0
      vertex 6.5 -40 0
      vertex 3.1275 -12.65 0
    endloop
  endfacet
  facet normal -0 0 -1
    outer loop
      vertex 0.966451 -9.67557 0
      vertex 6.5 11.5 0
      vertex 2.5302 -10.8117 0
    endloop
  endfacet
  facet normal -0 -0 -1
    outer loop
      vertex -0.966451 -9.67557 0
      vertex -6.5 11.5 0
      vertex 0.966451 -9.67557 0
    endloop
  endfacet
  facet normal 0 0 -1
    outer loop
      vertex 6.5 11.5 0
      vertex 0.966451 -9.67557 0
      vertex -6.5 11.5 0
    endloop
  endfacet
  facet normal -0 0 -1
    outer loop
      vertex 2.5302 -10.8117 0
      vertex 6.5 11.5 0
      vertex 3.1275 -12.65 0
    endloop
  endfacet
  facet normal 0 -0 -1
    outer loop
      vertex -2.5302 -10.8117 0
      vertex -6.5 11.5 0
      vertex -0.966451 -9.67557 0
    endloop
  endfacet
  facet normal 0 0 -1
    outer loop
      vertex 0.966451 -15.6244 0
      vertex 2.5302 -30.0867 0
      vertex -0.966451 -15.6244 0
    endloop
  endfacet
  facet normal 0 0 -1
    outer loop
      vertex 2.5302 -30.0867 0
      vertex 6.5 -40 0
      vertex 3.1275 -31.925 0
    endloop
  endfacet
  facet normal 0 0 -1
    outer loop
      vertex -3.1275 -12.65 0
      vertex 2.5302 -30.0867 0
      vertex 0.966451 -28.9506 0
    endloop
  endfacet
  facet normal 0 0 -1
    outer loop
      vertex -3.1275 -12.65 0
      vertex 0.966451 -28.9506 0
      vertex -0.966451 -28.9506 0
    endloop
  endfacet
  facet normal 0 0 -1
    outer loop
      vertex -6.5 11.5 0
      vertex -3.1275 -12.65 0
      vertex -0.966451 -28.9506 0
    endloop
  endfacet
  facet normal 0 0 -1
    outer loop
      vertex -6.5 11.5 0
      vertex -0.966451 -28.9506 0
      vertex -2.5302 -30.0867 0
    endloop
  endfacet
  facet normal 0 0 -1
    outer loop
      vertex -6.5 11.5 0
      vertex -2.5302 -30.0867 0
      vertex -3.1275 -31.925 0
    endloop
  endfacet
  facet normal 0 0 -1
    outer loop
      vertex -6.5 11.5 0
      vertex -3.1275 -31.925 0
      vertex -6.5 -40 0
    endloop
  endfacet
  facet normal 0 1 0
    outer loop
      vertex -8.90655 19.5 6.37114
      vertex -15 19.5 10
      vertex 15 19.5 0
    endloop
  endfacet
  facet normal 0 1 0
    outer loop
      vertex 9.60975 19.5 6.70978
      vertex -15 19.5 10
      vertex 15 19.5 10
    endloop
  endfacet
  facet normal 0 1 0
    outer loop
      vertex -15 19.5 0
      vertex -15 19.5 10
      vertex -11.5801 19.5 5.76092
    endloop
  endfacet
  facet normal 0 1 0
    outer loop
      vertex -15 19.5 0
      vertex -11.5801 19.5 5.76092
      vertex -11.5801 19.5 4.23908
    endloop
  endfacet
  facet normal 0 1 0
    outer loop
      vertex -15 19.5 0
      vertex -11.5801 19.5 4.23908
      vertex -11.039 19.5 3.80759
    endloop
  endfacet
  facet normal 0 1 0
    outer loop
      vertex -15 19.5 0
      vertex -11.039 19.5 3.80759
      vertex -10.3902 19.5 3.29022
    endloop
  endfacet
  facet normal 0 1 0
    outer loop
      vertex -15 19.5 0
      vertex -10.3902 19.5 3.29022
      vertex 15 19.5 0
    endloop
  endfacet
  facet normal 0 1 0
    outer loop
      vertex -10.3902 19.5 3.29022
      vertex -9.71555 19.5 3.44421
      vertex 15 19.5 0
    endloop
  endfacet
  facet normal 0 1 -0
    outer loop
      vertex -8.60629 19.5 4.25237
      vertex 15 19.5 0
      vertex -8.90655 19.5 3.62886
    endloop
  endfacet
  facet normal 0 1 0
    outer loop
      vertex -8.54652 19.5 5.62351
      vertex 15 19.5 0
      vertex -8.24625 19.5 5
    endloop
  endfacet
  facet normal 0 1 0
    outer loop
      vertex -8.60629 19.5 4.25237
      vertex -8.24625 19.5 5
      vertex 15 19.5 0
    endloop
  endfacet
  facet normal 0 1 -0
    outer loop
      vertex 10.2844 19.5 3.44421
      vertex 15 19.5 0
      vertex 9.60975 19.5 3.29022
    endloop
  endfacet
  facet normal 0 1 0
    outer loop
      vertex -10.3902 19.5 6.70978
      vertex -15 19.5 10
      vertex -9.58125 19.5 6.52513
    endloop
  endfacet
  facet normal 0 1 0
    outer loop
      vertex -9.58125 19.5 6.52513
      vertex -15 19.5 10
      vertex -8.90655 19.5 6.37114
    endloop
  endfacet
  facet normal 0 1 0
    outer loop
      vertex -8.54652 19.5 5.62351
      vertex -8.90655 19.5 6.37114
      vertex 15 19.5 0
    endloop
  endfacet
  facet normal 0 1 0
    outer loop
      vertex -10.9313 19.5 6.2783
      vertex -15 19.5 10
      vertex -10.3902 19.5 6.70978
    endloop
  endfacet
  facet normal 0 1 0
    outer loop
      vertex -11.5801 19.5 5.76092
      vertex -15 19.5 10
      vertex -10.9313 19.5 6.2783
    endloop
  endfacet
  facet normal 0 1 0
    outer loop
      vertex 8.41993 19.5 4.23908
      vertex -15 19.5 10
      vertex 8.41993 19.5 5.76092
    endloop
  endfacet
  facet normal 0 1 0
    outer loop
      vertex 8.96099 19.5 3.80759
      vertex -15 19.5 10
      vertex 8.41993 19.5 4.23908
    endloop
  endfacet
  facet normal 0 1 0
    outer loop
      vertex 9.60975 19.5 3.29022
      vertex -15 19.5 10
      vertex 8.96099 19.5 3.80759
    endloop
  endfacet
  facet normal 0 1 0
    outer loop
      vertex 15 19.5 0
      vertex -15 19.5 10
      vertex 9.60975 19.5 3.29022
    endloop
  endfacet
  facet normal 0 1 -0
    outer loop
      vertex 11.0934 19.5 3.62886
      vertex 15 19.5 0
      vertex 10.2844 19.5 3.44421
    endloop
  endfacet
  facet normal 0 1 0
    outer loop
      vertex 9.60975 19.5 6.70978
      vertex 15 19.5 10
      vertex 10.4188 19.5 6.52513
    endloop
  endfacet
  facet normal 0 1 0
    outer loop
      vertex 15 19.5 0
      vertex 11.0934 19.5 3.62886
      vertex 15 19.5 10
    endloop
  endfacet
  facet normal 0 1 0
    outer loop
      vertex 11.0934 19.5 3.62886
      vertex 11.3937 19.5 4.25237
      vertex 15 19.5 10
    endloop
  endfacet
  facet normal 0 1 0
    outer loop
      vertex 11.3937 19.5 4.25237
      vertex 11.7537 19.5 5
      vertex 15 19.5 10
    endloop
  endfacet
  facet normal 0 1 0
    outer loop
      vertex 11.7537 19.5 5
      vertex 11.4535 19.5 5.62351
      vertex 15 19.5 10
    endloop
  endfacet
  facet normal 0 1 0
    outer loop
      vertex 11.4535 19.5 5.62351
      vertex 11.0934 19.5 6.37114
      vertex 15 19.5 10
    endloop
  endfacet
  facet normal 0 1 0
    outer loop
      vertex 11.0934 19.5 6.37114
      vertex 10.4188 19.5 6.52513
      vertex 15 19.5 10
    endloop
  endfacet
  facet normal 0 1 0
    outer loop
      vertex 9.06869 19.5 6.2783
      vertex -15 19.5 10
      vertex 9.60975 19.5 6.70978
    endloop
  endfacet
  facet normal 0 1 0
    outer loop
      vertex 8.41993 19.5 5.76092
      vertex -15 19.5 10
      vertex 9.06869 19.5 6.2783
    endloop
  endfacet
  facet normal 0 1 -0
    outer loop
      vertex -8.90655 19.5 3.62886
      vertex 15 19.5 0
      vertex -9.71555 19.5 3.44421
    endloop
  endfacet
  facet normal 0 -0 1
    outer loop
      vertex -15 19.5 10
      vertex -15 11.5 10
      vertex -6.5 11.5 10
    endloop
  endfacet
  facet normal -0 0 1
    outer loop
      vertex 6.5 11.5 10
      vertex -15 19.5 10
      vertex -6.5 11.5 10
    endloop
  endfacet
  facet normal 0 0 1
    outer loop
      vertex -0.491284 -7.97575 10
      vertex 6.5 11.5 10
      vertex -6.5 11.5 10
    endloop
  endfacet
  facet normal 0 0 1
    outer loop
      vertex 6.5 11.5 10
      vertex 15 11.5 10
      vertex -15 19.5 10
    endloop
  endfacet
  facet normal 0 0 1
    outer loop
      vertex 15 11.5 10
      vertex 15 19.5 10
      vertex -15 19.5 10
    endloop
  endfacet
  facet normal 0 0 1
    outer loop
      vertex -6.5 -40 10
      vertex -4.59729 -32.9022 10
      vertex -6.5 11.5 10
    endloop
  endfacet
  facet normal 0 0 1
    outer loop
      vertex -4.59729 -32.9022 10
      vertex -4.59729 -30.9478 10
      vertex -6.5 11.5 10
    endloop
  endfacet
  facet normal 0 0 1
    outer loop
      vertex -4.59729 -30.9478 10
      vertex -3.80238 -29.1624 10
      vertex -6.5 11.5 10
    endloop
  endfacet
  facet normal 0 -0 1
    outer loop
      vertex 1.45238 -36.395 10
      vertex -0.491284 -36.5993 10
      vertex 6.5 -40 10
    endloop
  endfacet
  facet normal 0 -0 1
    outer loop
      vertex -0.491284 -17.3243 10
      vertex -0.491284 -27.2507 10
      vertex 1.45238 -27.455 10
    endloop
  endfacet
  facet normal -0 0 1
    outer loop
      vertex -0.491284 -17.3243 10
      vertex -2.35 -16.7203 10
      vertex -0.491284 -27.2507 10
    endloop
  endfacet
  facet normal 0 -0 1
    outer loop
      vertex 3.14491 -35.4178 10
      vertex 1.45238 -36.395 10
      vertex 6.5 -40 10
    endloop
  endfacet
  facet normal 0 0 1
    outer loop
      vertex 6.5 -40 10
      vertex 6.5 11.5 10
      vertex 4.29366 -30.0133 10
    endloop
  endfacet
  facet normal 0 -0 1
    outer loop
      vertex 4.7 -31.925 10
      vertex 4.29366 -33.8367 10
      vertex 6.5 -40 10
    endloop
  endfacet
  facet normal 0 0 1
    outer loop
      vertex 6.5 -40 10
      vertex 4.29366 -30.0133 10
      vertex 4.7 -31.925 10
    endloop
  endfacet
  facet normal 0 0 1
    outer loop
      vertex -3.80238 -9.88741 10
      vertex -2.35 -8.57968 10
      vertex -6.5 11.5 10
    endloop
  endfacet
  facet normal 0 0 1
    outer loop
      vertex -4.59729 -11.6728 10
      vertex -3.80238 -9.88741 10
      vertex -6.5 11.5 10
    endloop
  endfacet
  facet normal -0 -0 1
    outer loop
      vertex -3.80238 -15.4126 10
      vertex -4.59729 -13.6272 10
      vertex -2.35 -27.8547 10
    endloop
  endfacet
  facet normal 0 0 1
    outer loop
      vertex -6.5 -40 10
      vertex 6.5 -40 10
      vertex -0.491284 -36.5993 10
    endloop
  endfacet
  facet normal 0 0 1
    outer loop
      vertex -6.5 -40 10
      vertex -0.491284 -36.5993 10
      vertex -2.35 -35.9953 10
    endloop
  endfacet
  facet normal 0 0 1
    outer loop
      vertex -6.5 -40 10
      vertex -3.80238 -34.6876 10
      vertex -4.59729 -32.9022 10
    endloop
  endfacet
  facet normal 0 0 1
    outer loop
      vertex -6.5 -40 10
      vertex -2.35 -35.9953 10
      vertex -3.80238 -34.6876 10
    endloop
  endfacet
  facet normal 0 0 1
    outer loop
      vertex -3.80238 -29.1624 10
      vertex -4.59729 -13.6272 10
      vertex -6.5 11.5 10
    endloop
  endfacet
  facet normal 0 0 1
    outer loop
      vertex -3.80238 -29.1624 10
      vertex -2.35 -27.8547 10
      vertex -4.59729 -13.6272 10
    endloop
  endfacet
  facet normal 0 0 1
    outer loop
      vertex -4.59729 -13.6272 10
      vertex -4.59729 -11.6728 10
      vertex -6.5 11.5 10
    endloop
  endfacet
  facet normal 0 -0 1
    outer loop
      vertex -2.35 -16.7203 10
      vertex -2.35 -27.8547 10
      vertex -0.491284 -27.2507 10
    endloop
  endfacet
  facet normal 0 0 1
    outer loop
      vertex 1.45238 -17.12 10
      vertex 3.14491 -28.4322 10
      vertex 4.29366 -30.0133 10
    endloop
  endfacet
  facet normal 0 0 1
    outer loop
      vertex 1.45238 -8.18003 10
      vertex 6.5 11.5 10
      vertex -0.491284 -7.97575 10
    endloop
  endfacet
  facet normal 0 0 1
    outer loop
      vertex 3.14491 -9.15722 10
      vertex 6.5 11.5 10
      vertex 1.45238 -8.18003 10
    endloop
  endfacet
  facet normal 0 0 1
    outer loop
      vertex 4.29366 -10.7383 10
      vertex 6.5 11.5 10
      vertex 3.14491 -9.15722 10
    endloop
  endfacet
  facet normal 0 0 1
    outer loop
      vertex 4.7 -12.65 10
      vertex 6.5 11.5 10
      vertex 4.29366 -10.7383 10
    endloop
  endfacet
  facet normal 0 0 1
    outer loop
      vertex 4.29366 -30.0133 10
      vertex 6.5 11.5 10
      vertex 4.7 -12.65 10
    endloop
  endfacet
  facet normal 0 0 1
    outer loop
      vertex 4.29366 -30.0133 10
      vertex 4.7 -12.65 10
      vertex 4.29366 -14.5617 10
    endloop
  endfacet
  facet normal 0 -0 1
    outer loop
      vertex 1.45238 -17.12 10
      vertex -0.491284 -17.3243 10
      vertex 3.14491 -28.4322 10
    endloop
  endfacet
  facet normal 0 0 1
    outer loop
      vertex 4.29366 -14.5617 10
      vertex 3.14491 -16.1428 10
      vertex 4.29366 -30.0133 10
    endloop
  endfacet
  facet normal -0 0 1
    outer loop
      vertex -2.35 -16.7203 10
      vertex -3.80238 -15.4126 10
      vertex -2.35 -27.8547 10
    endloop
  endfacet
  facet normal 0 0 1
    outer loop
      vertex 1.45238 -27.455 10
      vertex 3.14491 -28.4322 10
      vertex -0.491284 -17.3243 10
    endloop
  endfacet
  facet normal 0 0 1
    outer loop
      vertex -2.35 -8.57968 10
      vertex -0.491284 -7.97575 10
      vertex -6.5 11.5 10
    endloop
  endfacet
  facet normal 0 -0 1
    outer loop
      vertex 3.14491 -16.1428 10
      vertex 1.45238 -17.12 10
      vertex 4.29366 -30.0133 10
    endloop
  endfacet
  facet normal 0 -0 1
    outer loop
      vertex 4.29366 -33.8367 10
      vertex 3.14491 -35.4178 10
      vertex 6.5 -40 10
    endloop
  endfacet
  facet normal -1 -0 -0
    outer loop
      vertex -6.5 -40 0
      vertex -6.5 -40 10
      vertex -6.5 11.5 0
    endloop
  endfacet
  facet normal -1 0 0
    outer loop
      vertex -6.5 11.5 0
      vertex -6.5 -40 10
      vertex -6.5 11.5 10
    endloop
  endfacet
  facet normal 0.999876 0.015765 0
    outer loop
      vertex -11.5801 19.5 5.76092
      vertex -11.4539 11.5 5.70018
      vertex -11.4539 11.5 4.29982
    endloop
  endfacet
  facet normal 0.999876 0.015765 0
    outer loop
      vertex -11.5801 19.5 4.23908
      vertex -11.5801 19.5 5.76092
      vertex -11.4539 11.5 4.29982
    endloop
  endfacet
  facet normal 0.623412 0.015765 0.781734
    outer loop
      vertex -11.4539 11.5 4.29982
      vertex -11.2114 11.5 4.1064
      vertex -11.039 19.5 3.80759
    endloop
  endfacet
  facet normal 0.623412 0.015765 0.781734
    outer loop
      vertex -11.5801 19.5 4.23908
      vertex -11.4539 11.5 4.29982
      vertex -11.039 19.5 3.80759
    endloop
  endfacet
  facet normal 0.623412 0.015765 0.781734
    outer loop
      vertex -10.3591 11.5 3.42671
      vertex -10.3902 19.5 3.29022
      vertex -11.039 19.5 3.80759
    endloop
  endfacet
  facet normal 0.623412 0.015765 0.781734
    outer loop
      vertex -11.2114 11.5 4.1064
      vertex -10.3591 11.5 3.42671
      vertex -11.039 19.5 3.80759
    endloop
  endfacet
  facet normal -0.222493 0.015765 0.974807
    outer loop
      vertex -10.3591 11.5 3.42671
      vertex -10.0566 11.5 3.49574
      vertex -9.71555 19.5 3.44421
    endloop
  endfacet
  facet normal -0.222493 0.015765 0.974807
    outer loop
      vertex -10.3902 19.5 3.29022
      vertex -10.3591 11.5 3.42671
      vertex -9.71555 19.5 3.44421
    endloop
  endfacet
  facet normal -0.222494 0.015765 0.974807
    outer loop
      vertex -8.99384 11.5 3.73832
      vertex -8.90655 19.5 3.62886
      vertex -9.71555 19.5 3.44421
    endloop
  endfacet
  facet normal -0.222494 0.015765 0.974807
    outer loop
      vertex -10.0566 11.5 3.49574
      vertex -8.99384 11.5 3.73832
      vertex -9.71555 19.5 3.44421
    endloop
  endfacet
  facet normal -0.900857 0.015765 0.43383
    outer loop
      vertex -8.60629 19.5 4.25237
      vertex -8.90655 19.5 3.62886
      vertex -8.85924 11.5 4.01782
    endloop
  endfacet
  facet normal -0.900857 0.015765 0.43383
    outer loop
      vertex -8.85924 11.5 4.01782
      vertex -8.90655 19.5 3.62886
      vertex -8.99384 11.5 3.73832
    endloop
  endfacet
  facet normal -0.900857 0.015765 0.43383
    outer loop
      vertex -8.24625 19.5 5
      vertex -8.60629 19.5 4.25237
      vertex -8.38625 11.5 5
    endloop
  endfacet
  facet normal -0.900857 0.015765 0.43383
    outer loop
      vertex -8.38625 11.5 5
      vertex -8.60629 19.5 4.25237
      vertex -8.85924 11.5 4.01782
    endloop
  endfacet
  facet normal -0.900857 0.015765 -0.43383
    outer loop
      vertex -8.38625 11.5 5
      vertex -8.52085 11.5 5.2795
      vertex -8.24625 19.5 5
    endloop
  endfacet
  facet normal -0.900857 0.015765 -0.43383
    outer loop
      vertex -8.24625 19.5 5
      vertex -8.52085 11.5 5.2795
      vertex -8.54652 19.5 5.62351
    endloop
  endfacet
  facet normal -0.900857 0.015765 -0.43383
    outer loop
      vertex -8.54652 19.5 5.62351
      vertex -8.52085 11.5 5.2795
      vertex -8.90655 19.5 6.37114
    endloop
  endfacet
  facet normal -0.900857 0.015765 -0.43383
    outer loop
      vertex -8.90655 19.5 6.37114
      vertex -8.52085 11.5 5.2795
      vertex -8.99384 11.5 6.26168
    endloop
  endfacet
  facet normal -0.222493 0.015765 -0.974807
    outer loop
      vertex -8.99384 11.5 6.26168
      vertex -9.29629 11.5 6.33071
      vertex -8.90655 19.5 6.37114
    endloop
  endfacet
  facet normal -0.222493 0.015765 -0.974807
    outer loop
      vertex -8.90655 19.5 6.37114
      vertex -9.29629 11.5 6.33071
      vertex -9.58125 19.5 6.52513
    endloop
  endfacet
  facet normal -0.222494 0.015765 -0.974807
    outer loop
      vertex -9.29629 11.5 6.33071
      vertex -10.3591 11.5 6.57329
      vertex -9.58125 19.5 6.52513
    endloop
  endfacet
  facet normal -0.222494 0.015765 -0.974807
    outer loop
      vertex -9.58125 19.5 6.52513
      vertex -10.3591 11.5 6.57329
      vertex -10.3902 19.5 6.70978
    endloop
  endfacet
  facet normal 0.623412 0.015765 -0.781734
    outer loop
      vertex -10.3591 11.5 6.57329
      vertex -10.6016 11.5 6.37987
      vertex -10.3902 19.5 6.70978
    endloop
  endfacet
  facet normal 0.623412 0.015765 -0.781734
    outer loop
      vertex -10.3902 19.5 6.70978
      vertex -10.6016 11.5 6.37987
      vertex -10.9313 19.5 6.2783
    endloop
  endfacet
  facet normal 0.623412 0.015765 -0.781734
    outer loop
      vertex -10.6016 11.5 6.37987
      vertex -11.4539 11.5 5.70018
      vertex -10.9313 19.5 6.2783
    endloop
  endfacet
  facet normal 0.623412 0.015765 -0.781734
    outer loop
      vertex -10.9313 19.5 6.2783
      vertex -11.4539 11.5 5.70018
      vertex -11.5801 19.5 5.76092
    endloop
  endfacet
  facet normal 0 -1 0
    outer loop
      vertex -6.5 -40 10
      vertex -6.5 -40 0
      vertex 6.5 -40 0
    endloop
  endfacet
  facet normal 0 -1 0
    outer loop
      vertex 6.5 -40 10
      vertex -6.5 -40 10
      vertex 6.5 -40 0
    endloop
  endfacet
  facet normal 1 0 -0
    outer loop
      vertex 6.5 -40 10
      vertex 6.5 -40 0
      vertex 6.5 11.5 0
    endloop
  endfacet
  facet normal 1 0 0
    outer loop
      vertex 6.5 11.5 10
      vertex 6.5 -40 10
      vertex 6.5 11.5 0
    endloop
  endfacet
  facet normal 0 -1 0
    outer loop
      vertex 9.64091 11.5 3.42671
      vertex 6.5 11.5 0
      vertex 15 11.5 0
    endloop
  endfacet
  facet normal 0 -1 0
    outer loop
      vertex 6.5 11.5 10
      vertex 6.5 11.5 0
      vertex 8.54606 11.5 4.29982
    endloop
  endfacet
  facet normal 0 -1 0
    outer loop
      vertex 6.5 11.5 10
      vertex 8.54606 11.5 4.29982
      vertex 8.54606 11.5 5.70018
    endloop
  endfacet
  facet normal 0 -1 0
    outer loop
      vertex 6.5 11.5 10
      vertex 8.54606 11.5 5.70018
      vertex 9.39836 11.5 6.37987
    endloop
  endfacet
  facet normal 0 -1 0
    outer loop
      vertex 9.94336 11.5 3.49574
      vertex 9.64091 11.5 3.42671
      vertex 15 11.5 0
    endloop
  endfacet
  facet normal 0 -1 0
    outer loop
      vertex 15 11.5 10
      vertex 6.5 11.5 10
      vertex 9.64091 11.5 6.57329
    endloop
  endfacet
  facet normal 0 -1 0
    outer loop
      vertex 15 11.5 10
      vertex 9.64091 11.5 6.57329
      vertex 10.7037 11.5 6.33071
    endloop
  endfacet
  facet normal 0 -1 0
    outer loop
      vertex 15 11.5 10
      vertex 11.0062 11.5 6.26168
      vertex 15 11.5 0
    endloop
  endfacet
  facet normal 0 -1 0
    outer loop
      vertex 15 11.5 10
      vertex 10.7037 11.5 6.33071
      vertex 11.0062 11.5 6.26168
    endloop
  endfacet
  facet normal 0 -1 0
    outer loop
      vertex 11.0062 11.5 6.26168
      vertex 11.4791 11.5 5.2795
      vertex 15 11.5 0
    endloop
  endfacet
  facet normal 0 -1 0
    outer loop
      vertex 11.4791 11.5 5.2795
      vertex 11.6137 11.5 5
      vertex 15 11.5 0
    endloop
  endfacet
  facet normal 0 -1 0
    outer loop
      vertex 11.1408 11.5 4.01782
      vertex 11.0062 11.5 3.73832
      vertex 15 11.5 0
    endloop
  endfacet
  facet normal 0 -1 0
    outer loop
      vertex 8.54606 11.5 4.29982
      vertex 6.5 11.5 0
      vertex 9.64091 11.5 3.42671
    endloop
  endfacet
  facet normal 0 -1.37483e-08 0
    outer loop
      vertex 8.54606 11.5 4.29982
      vertex 9.64091 11.5 3.42671
      vertex 8.78861 11.5 4.1064
    endloop
  endfacet
  facet normal 0 -1 0
    outer loop
      vertex 11.0062 11.5 3.73832
      vertex 9.94336 11.5 3.49574
      vertex 15 11.5 0
    endloop
  endfacet
  facet normal 0 -1 -0
    outer loop
      vertex 9.39836 11.5 6.37987
      vertex 9.64091 11.5 6.57329
      vertex 6.5 11.5 10
    endloop
  endfacet
  facet normal 0 -1 0
    outer loop
      vertex 11.6137 11.5 5
      vertex 11.1408 11.5 4.01782
      vertex 15 11.5 0
    endloop
  endfacet
  facet normal 1 0 -0
    outer loop
      vertex 15 11.5 10
      vertex 15 11.5 0
      vertex 15 19.5 0
    endloop
  endfacet
  facet normal 1 0 0
    outer loop
      vertex 15 19.5 10
      vertex 15 11.5 10
      vertex 15 19.5 0
    endloop
  endfacet
  facet normal 0.951057 -0.309017 0
    outer loop
      vertex -2.5302 -30.0867 0
      vertex -2.5302 -30.0867 2
      vertex -3.1275 -31.925 2
    endloop
  endfacet
  facet normal 0.951057 -0.309017 0
    outer loop
      vertex -3.1275 -31.925 0
      vertex -2.5302 -30.0867 0
      vertex -3.1275 -31.925 2
    endloop
  endfacet
  facet normal 0.951057 0.309017 0
    outer loop
      vertex -3.1275 -31.925 2
      vertex -2.5302 -33.7633 2
      vertex -2.5302 -33.7633 0
    endloop
  endfacet
  facet normal 0.951057 0.309017 0
    outer loop
      vertex -3.1275 -31.925 0
      vertex -3.1275 -31.925 2
      vertex -2.5302 -33.7633 0
    endloop
  endfacet
  facet normal 0.587785 -0.809017 0
    outer loop
      vertex -0.966451 -28.9506 0
      vertex -0.966451 -28.9506 2
      vertex -2.5302 -30.0867 2
    endloop
  endfacet
  facet normal 0.587785 -0.809017 0
    outer loop
      vertex -2.5302 -30.0867 0
      vertex -0.966451 -28.9506 0
      vertex -2.5302 -30.0867 2
    endloop
  endfacet
  facet normal 0 -1 0
    outer loop
      vertex 0.966451 -28.9506 0
      vertex 0.966451 -28.9506 2
      vertex -0.966451 -28.9506 2
    endloop
  endfacet
  facet normal -0 -1 -0
    outer loop
      vertex -0.966451 -28.9506 0
      vertex 0.966451 -28.9506 0
      vertex -0.966451 -28.9506 2
    endloop
  endfacet
  facet normal -0.587785 -0.809017 -0
    outer loop
      vertex 2.5302 -30.0867 0
      vertex 2.5302 -30.0867 2
      vertex 0.966451 -28.9506 2
    endloop
  endfacet
  facet normal -0.587785 -0.809017 -0
    outer loop
      vertex 0.966451 -28.9506 0
      vertex 2.5302 -30.0867 0
      vertex 0.966451 -28.9506 2
    endloop
  endfacet
  facet normal -0.951057 -0.309017 0
    outer loop
      vertex 3.1275 -31.925 2
      vertex 2.5302 -30.0867 2
      vertex 3.1275 -31.925 0
    endloop
  endfacet
  facet normal -0.951057 -0.309017 0
    outer loop
      vertex 3.1275 -31.925 0
      vertex 2.5302 -30.0867 2
      vertex 2.5302 -30.0867 0
    endloop
  endfacet
  facet normal -0.951057 0.309017 0
    outer loop
      vertex 3.1275 -31.925 2
      vertex 3.1275 -31.925 0
      vertex 2.5302 -33.7633 2
    endloop
  endfacet
  facet normal -0.951057 0.309017 0
    outer loop
      vertex 2.5302 -33.7633 2
      vertex 3.1275 -31.925 0
      vertex 2.5302 -33.7633 0
    endloop
  endfacet
  facet normal -0.587785 0.809017 0
    outer loop
      vertex 2.5302 -33.7633 2
      vertex 2.5302 -33.7633 0
      vertex 0.966451 -34.8994 2
    endloop
  endfacet
  facet normal -0.587785 0.809017 0
    outer loop
      vertex 0.966451 -34.8994 2
      vertex 2.5302 -33.7633 0
      vertex 0.966451 -34.8994 0
    endloop
  endfacet
  facet normal 0 1 0
    outer loop
      vertex 0.966451 -34.8994 2
      vertex 0.966451 -34.8994 0
      vertex -0.966451 -34.8994 2
    endloop
  endfacet
  facet normal 0 1 -0
    outer loop
      vertex -0.966451 -34.8994 2
      vertex 0.966451 -34.8994 0
      vertex -0.966451 -34.8994 0
    endloop
  endfacet
  facet normal 0.587785 0.809017 -0
    outer loop
      vertex -0.966451 -34.8994 2
      vertex -0.966451 -34.8994 0
      vertex -2.5302 -33.7633 2
    endloop
  endfacet
  facet normal 0.587785 0.809017 -0
    outer loop
      vertex -2.5302 -33.7633 2
      vertex -0.966451 -34.8994 0
      vertex -2.5302 -33.7633 0
    endloop
  endfacet
  facet normal 0.951057 -0.309017 0
    outer loop
      vertex -2.5302 -10.8117 0
      vertex -2.5302 -10.8117 2
      vertex -3.1275 -12.65 2
    endloop
  endfacet
  facet normal 0.951057 -0.309017 0
    outer loop
      vertex -3.1275 -12.65 0
      vertex -2.5302 -10.8117 0
      vertex -3.1275 -12.65 2
    endloop
  endfacet
  facet normal 0.951057 0.309017 0
    outer loop
      vertex -3.1275 -12.65 2
      vertex -2.5302 -14.4883 2
      vertex -2.5302 -14.4883 0
    endloop
  endfacet
  facet normal 0.951057 0.309017 0
    outer loop
      vertex -3.1275 -12.65 0
      vertex -3.1275 -12.65 2
      vertex -2.5302 -14.4883 0
    endloop
  endfacet
  facet normal 0.587785 -0.809017 0
    outer loop
      vertex -0.966451 -9.67557 0
      vertex -0.966451 -9.67557 2
      vertex -2.5302 -10.8117 2
    endloop
  endfacet
  facet normal 0.587785 -0.809017 0
    outer loop
      vertex -2.5302 -10.8117 0
      vertex -0.966451 -9.67557 0
      vertex -2.5302 -10.8117 2
    endloop
  endfacet
  facet normal 0 -1 0
    outer loop
      vertex 0.966451 -9.67557 0
      vertex 0.966451 -9.67557 2
      vertex -0.966451 -9.67557 2
    endloop
  endfacet
  facet normal -0 -1 -0
    outer loop
      vertex -0.966451 -9.67557 0
      vertex 0.966451 -9.67557 0
      vertex -0.966451 -9.67557 2
    endloop
  endfacet
  facet normal -0.587785 -0.809017 -0
    outer loop
      vertex 2.5302 -10.8117 0
      vertex 2.5302 -10.8117 2
      vertex 0.966451 -9.67557 2
    endloop
  endfacet
  facet normal -0.587785 -0.809017 -0
    outer loop
      vertex 0.966451 -9.67557 0
      vertex 2.5302 -10.8117 0
      vertex 0.966451 -9.67557 2
    endloop
  endfacet
  facet normal -0.951057 -0.309017 0
    outer loop
      vertex 3.1275 -12.65 2
      vertex 2.5302 -10.8117 2
      vertex 3.1275 -12.65 0
    endloop
  endfacet
  facet normal -0.951057 -0.309017 0
    outer loop
      vertex 3.1275 -12.65 0
      vertex 2.5302 -10.8117 2
      vertex 2.5302 -10.8117 0
    endloop
  endfacet
  facet normal -0.951057 0.309017 0
    outer loop
      vertex 3.1275 -12.65 2
      vertex 3.1275 -12.65 0
      vertex 2.5302 -14.4883 2
    endloop
  endfacet
  facet normal -0.951057 0.309017 0
    outer loop
      vertex 2.5302 -14.4883 2
      vertex 3.1275 -12.65 0
      vertex 2.5302 -14.4883 0
    endloop
  endfacet
  facet normal -0.587785 0.809017 0
    outer loop
      vertex 2.5302 -14.4883 2
      vertex 2.5302 -14.4883 0
      vertex 0.966451 -15.6244 2
    endloop
  endfacet
  facet normal -0.587785 0.809017 0
    outer loop
      vertex 0.966451 -15.6244 2
      vertex 2.5302 -14.4883 0
      vertex 0.966451 -15.6244 0
    endloop
  endfacet
  facet normal 0 1 0
    outer loop
      vertex 0.966451 -15.6244 2
      vertex 0.966451 -15.6244 0
      vertex -0.966451 -15.6244 2
    endloop
  endfacet
  facet normal 0 1 -0
    outer loop
      vertex -0.966451 -15.6244 2
      vertex 0.966451 -15.6244 0
      vertex -0.966451 -15.6244 0
    endloop
  endfacet
  facet normal 0.587785 0.809017 -0
    outer loop
      vertex -0.966451 -15.6244 2
      vertex -0.966451 -15.6244 0
      vertex -2.5302 -14.4883 2
    endloop
  endfacet
  facet normal 0.587785 0.809017 -0
    outer loop
      vertex -2.5302 -14.4883 2
      vertex -0.966451 -15.6244 0
      vertex -2.5302 -14.4883 0
    endloop
  endfacet
  facet normal 0.623412 0.015765 -0.781734
    outer loop
      vertex 9.39836 11.5 6.37987
      vertex 8.54606 11.5 5.70018
      vertex 9.06869 19.5 6.2783
    endloop
  endfacet
  facet normal 0.623412 0.015765 -0.781734
    outer loop
      vertex 9.06869 19.5 6.2783
      vertex 8.54606 11.5 5.70018
      vertex 8.41993 19.5 5.76092
    endloop
  endfacet
  facet normal 0.999876 0.015765 0
    outer loop
      vertex 8.41993 19.5 5.76092
      vertex 8.54606 11.5 5.70018
      vertex 8.54606 11.5 4.29982
    endloop
  endfacet
  facet normal 0.999876 0.015765 0
    outer loop
      vertex 8.41993 19.5 4.23908
      vertex 8.41993 19.5 5.76092
      vertex 8.54606 11.5 4.29982
    endloop
  endfacet
  facet normal 0.623412 0.015765 -0.781734
    outer loop
      vertex 9.64091 11.5 6.57329
      vertex 9.39836 11.5 6.37987
      vertex 9.60975 19.5 6.70978
    endloop
  endfacet
  facet normal 0.623412 0.015765 -0.781734
    outer loop
      vertex 9.60975 19.5 6.70978
      vertex 9.39836 11.5 6.37987
      vertex 9.06869 19.5 6.2783
    endloop
  endfacet
  facet normal -0.222494 0.015765 -0.974807
    outer loop
      vertex 10.7037 11.5 6.33071
      vertex 9.64091 11.5 6.57329
      vertex 10.4188 19.5 6.52513
    endloop
  endfacet
  facet normal -0.222494 0.015765 -0.974807
    outer loop
      vertex 10.4188 19.5 6.52513
      vertex 9.64091 11.5 6.57329
      vertex 9.60975 19.5 6.70978
    endloop
  endfacet
  facet normal -0.222493 0.015765 -0.974807
    outer loop
      vertex 11.0062 11.5 6.26168
      vertex 10.7037 11.5 6.33071
      vertex 11.0934 19.5 6.37114
    endloop
  endfacet
  facet normal -0.222493 0.015765 -0.974807
    outer loop
      vertex 11.0934 19.5 6.37114
      vertex 10.7037 11.5 6.33071
      vertex 10.4188 19.5 6.52513
    endloop
  endfacet
  facet normal -0.900857 0.015765 -0.43383
    outer loop
      vertex 11.4535 19.5 5.62351
      vertex 11.4791 11.5 5.2795
      vertex 11.0934 19.5 6.37114
    endloop
  endfacet
  facet normal -0.900857 0.015765 -0.43383
    outer loop
      vertex 11.0934 19.5 6.37114
      vertex 11.4791 11.5 5.2795
      vertex 11.0062 11.5 6.26168
    endloop
  endfacet
  facet normal -0.900857 0.015765 -0.43383
    outer loop
      vertex 11.6137 11.5 5
      vertex 11.4791 11.5 5.2795
      vertex 11.7537 19.5 5
    endloop
  endfacet
  facet normal -0.900857 0.015765 -0.43383
    outer loop
      vertex 11.7537 19.5 5
      vertex 11.4791 11.5 5.2795
      vertex 11.4535 19.5 5.62351
    endloop
  endfacet
  facet normal -0.900857 0.015765 0.43383
    outer loop
      vertex 11.7537 19.5 5
      vertex 11.3937 19.5 4.25237
      vertex 11.6137 11.5 5
    endloop
  endfacet
  facet normal -0.900857 0.015765 0.43383
    outer loop
      vertex 11.6137 11.5 5
      vertex 11.3937 19.5 4.25237
      vertex 11.1408 11.5 4.01782
    endloop
  endfacet
  facet normal -0.900857 0.015765 0.43383
    outer loop
      vertex 11.3937 19.5 4.25237
      vertex 11.0934 19.5 3.62886
      vertex 11.1408 11.5 4.01782
    endloop
  endfacet
  facet normal -0.900857 0.015765 0.43383
    outer loop
      vertex 11.1408 11.5 4.01782
      vertex 11.0934 19.5 3.62886
      vertex 11.0062 11.5 3.73832
    endloop
  endfacet
  facet normal -0.222494 0.015765 0.974807
    outer loop
      vertex 11.0062 11.5 3.73832
      vertex 11.0934 19.5 3.62886
      vertex 10.2844 19.5 3.44421
    endloop
  endfacet
  facet normal -0.222494 0.015765 0.974807
    outer loop
      vertex 9.94336 11.5 3.49574
      vertex 11.0062 11.5 3.73832
      vertex 10.2844 19.5 3.44421
    endloop
  endfacet
  facet normal -0.222493 0.015765 0.974807
    outer loop
      vertex 9.64091 11.5 3.42671
      vertex 9.94336 11.5 3.49574
      vertex 10.2844 19.5 3.44421
    endloop
  endfacet
  facet normal -0.222493 0.015765 0.974807
    outer loop
      vertex 9.60975 19.5 3.29022
      vertex 9.64091 11.5 3.42671
      vertex 10.2844 19.5 3.44421
    endloop
  endfacet
  facet normal 0.623412 0.015765 0.781734
    outer loop
      vertex 9.64091 11.5 3.42671
      vertex 9.60975 19.5 3.29022
      vertex 8.96099 19.5 3.80759
    endloop
  endfacet
  facet normal 0.623412 0.015765 0.781734
    outer loop
      vertex 8.78861 11.5 4.1064
      vertex 9.64091 11.5 3.42671
      vertex 8.96099 19.5 3.80759
    endloop
  endfacet
  facet normal 0.623412 0.015765 0.781734
    outer loop
      vertex 8.54606 11.5 4.29982
      vertex 8.78861 11.5 4.1064
      vertex 8.96099 19.5 3.80759
    endloop
  endfacet
  facet normal 0.623412 0.015765 0.781734
    outer loop
      vertex 8.41993 19.5 4.23908
      vertex 8.54606 11.5 4.29982
      vertex 8.96099 19.5 3.80759
    endloop
  endfacet
  facet normal 0.913545 0.406737 0
    outer loop
      vertex -4.59729 -32.9022 10
      vertex -3.80238 -34.6876 10
      vertex -3.80238 -34.6876 2
    endloop
  endfacet
  facet normal 0.913545 0.406737 0
    outer loop
      vertex -4.59729 -32.9022 2
      vertex -4.59729 -32.9022 10
      vertex -3.80238 -34.6876 2
    endloop
  endfacet
  facet normal 1 0 0
    outer loop
      vertex -4.59729 -30.9478 2
      vertex -4.59729 -30.9478 10
      vertex -4.59729 -32.9022 10
    endloop
  endfacet
  facet normal 1 0 0
    outer loop
      vertex -4.59729 -32.9022 2
      vertex -4.59729 -30.9478 2
      vertex -4.59729 -32.9022 10
    endloop
  endfacet
  facet normal 0.66913 0.743145 -0
    outer loop
      vertex -2.35 -35.9953 10
      vertex -2.35 -35.9953 2
      vertex -3.80238 -34.6876 10
    endloop
  endfacet
  facet normal 0.66913 0.743145 -0
    outer loop
      vertex -3.80238 -34.6876 10
      vertex -2.35 -35.9953 2
      vertex -3.80238 -34.6876 2
    endloop
  endfacet
  facet normal 0.309017 0.951056 -0
    outer loop
      vertex -0.491284 -36.5993 10
      vertex -0.491284 -36.5993 2
      vertex -2.35 -35.9953 10
    endloop
  endfacet
  facet normal 0.309017 0.951056 -0
    outer loop
      vertex -2.35 -35.9953 10
      vertex -0.491284 -36.5993 2
      vertex -2.35 -35.9953 2
    endloop
  endfacet
  facet normal -0.104528 0.994522 0
    outer loop
      vertex 1.45238 -36.395 10
      vertex 1.45238 -36.395 2
      vertex -0.491284 -36.5993 10
    endloop
  endfacet
  facet normal -0.104528 0.994522 0
    outer loop
      vertex -0.491284 -36.5993 10
      vertex 1.45238 -36.395 2
      vertex -0.491284 -36.5993 2
    endloop
  endfacet
  facet normal -0.5 0.866025 0
    outer loop
      vertex 3.14491 -35.4178 10
      vertex 3.14491 -35.4178 2
      vertex 1.45238 -36.395 10
    endloop
  endfacet
  facet normal -0.5 0.866025 0
    outer loop
      vertex 1.45238 -36.395 10
      vertex 3.14491 -35.4178 2
      vertex 1.45238 -36.395 2
    endloop
  endfacet
  facet normal -0.809017 0.587785 0
    outer loop
      vertex 4.29366 -33.8367 10
      vertex 4.29366 -33.8367 2
      vertex 3.14491 -35.4178 10
    endloop
  endfacet
  facet normal -0.809017 0.587785 0
    outer loop
      vertex 3.14491 -35.4178 10
      vertex 4.29366 -33.8367 2
      vertex 3.14491 -35.4178 2
    endloop
  endfacet
  facet normal -0.978148 0.207912 0
    outer loop
      vertex 4.7 -31.925 10
      vertex 4.7 -31.925 2
      vertex 4.29366 -33.8367 10
    endloop
  endfacet
  facet normal -0.978148 0.207912 0
    outer loop
      vertex 4.29366 -33.8367 10
      vertex 4.7 -31.925 2
      vertex 4.29366 -33.8367 2
    endloop
  endfacet
  facet normal -0.978148 -0.207912 0
    outer loop
      vertex 4.7 -31.925 10
      vertex 4.29366 -30.0133 10
      vertex 4.7 -31.925 2
    endloop
  endfacet
  facet normal -0.978148 -0.207912 0
    outer loop
      vertex 4.7 -31.925 2
      vertex 4.29366 -30.0133 10
      vertex 4.29366 -30.0133 2
    endloop
  endfacet
  facet normal -0.809017 -0.587785 0
    outer loop
      vertex 4.29366 -30.0133 10
      vertex 3.14491 -28.4322 10
      vertex 4.29366 -30.0133 2
    endloop
  endfacet
  facet normal -0.809017 -0.587785 0
    outer loop
      vertex 4.29366 -30.0133 2
      vertex 3.14491 -28.4322 10
      vertex 3.14491 -28.4322 2
    endloop
  endfacet
  facet normal -0.5 -0.866025 -0
    outer loop
      vertex 3.14491 -28.4322 2
      vertex 3.14491 -28.4322 10
      vertex 1.45238 -27.455 10
    endloop
  endfacet
  facet normal -0.5 -0.866025 -0
    outer loop
      vertex 1.45238 -27.455 2
      vertex 3.14491 -28.4322 2
      vertex 1.45238 -27.455 10
    endloop
  endfacet
  facet normal -0.104528 -0.994522 -0
    outer loop
      vertex 1.45238 -27.455 2
      vertex 1.45238 -27.455 10
      vertex -0.491284 -27.2507 10
    endloop
  endfacet
  facet normal -0.104528 -0.994522 -0
    outer loop
      vertex -0.491284 -27.2507 2
      vertex 1.45238 -27.455 2
      vertex -0.491284 -27.2507 10
    endloop
  endfacet
  facet normal 0.309017 -0.951056 0
    outer loop
      vertex -0.491284 -27.2507 2
      vertex -0.491284 -27.2507 10
      vertex -2.35 -27.8547 10
    endloop
  endfacet
  facet normal 0.309017 -0.951056 0
    outer loop
      vertex -2.35 -27.8547 2
      vertex -0.491284 -27.2507 2
      vertex -2.35 -27.8547 10
    endloop
  endfacet
  facet normal 0.66913 -0.743145 0
    outer loop
      vertex -2.35 -27.8547 2
      vertex -2.35 -27.8547 10
      vertex -3.80238 -29.1624 10
    endloop
  endfacet
  facet normal 0.66913 -0.743145 0
    outer loop
      vertex -3.80238 -29.1624 2
      vertex -2.35 -27.8547 2
      vertex -3.80238 -29.1624 10
    endloop
  endfacet
  facet normal 0.913545 -0.406737 0
    outer loop
      vertex -3.80238 -29.1624 2
      vertex -3.80238 -29.1624 10
      vertex -4.59729 -30.9478 10
    endloop
  endfacet
  facet normal 0.913545 -0.406737 0
    outer loop
      vertex -4.59729 -30.9478 2
      vertex -3.80238 -29.1624 2
      vertex -4.59729 -30.9478 10
    endloop
  endfacet
  facet normal 1 0 0
    outer loop
      vertex -4.59729 -11.6728 2
      vertex -4.59729 -11.6728 10
      vertex -4.59729 -13.6272 10
    endloop
  endfacet
  facet normal 1 0 0
    outer loop
      vertex -4.59729 -13.6272 2
      vertex -4.59729 -11.6728 2
      vertex -4.59729 -13.6272 10
    endloop
  endfacet
  facet normal 0.913545 0.406737 0
    outer loop
      vertex -4.59729 -13.6272 10
      vertex -3.80238 -15.4126 10
      vertex -3.80238 -15.4126 2
    endloop
  endfacet
  facet normal 0.913545 0.406737 0
    outer loop
      vertex -4.59729 -13.6272 2
      vertex -4.59729 -13.6272 10
      vertex -3.80238 -15.4126 2
    endloop
  endfacet
  facet normal 0.66913 0.743145 -0
    outer loop
      vertex -2.35 -16.7203 10
      vertex -2.35 -16.7203 2
      vertex -3.80238 -15.4126 10
    endloop
  endfacet
  facet normal 0.66913 0.743145 -0
    outer loop
      vertex -3.80238 -15.4126 10
      vertex -2.35 -16.7203 2
      vertex -3.80238 -15.4126 2
    endloop
  endfacet
  facet normal 0.309017 0.951056 -0
    outer loop
      vertex -0.491284 -17.3243 10
      vertex -0.491284 -17.3243 2
      vertex -2.35 -16.7203 10
    endloop
  endfacet
  facet normal 0.309017 0.951056 -0
    outer loop
      vertex -2.35 -16.7203 10
      vertex -0.491284 -17.3243 2
      vertex -2.35 -16.7203 2
    endloop
  endfacet
  facet normal -0.104528 0.994522 0
    outer loop
      vertex 1.45238 -17.12 10
      vertex 1.45238 -17.12 2
      vertex -0.491284 -17.3243 10
    endloop
  endfacet
  facet normal -0.104528 0.994522 0
    outer loop
      vertex -0.491284 -17.3243 10
      vertex 1.45238 -17.12 2
      vertex -0.491284 -17.3243 2
    endloop
  endfacet
  facet normal -0.5 0.866025 0
    outer loop
      vertex 3.14491 -16.1428 10
      vertex 3.14491 -16.1428 2
      vertex 1.45238 -17.12 10
    endloop
  endfacet
  facet normal -0.5 0.866025 0
    outer loop
      vertex 1.45238 -17.12 10
      vertex 3.14491 -16.1428 2
      vertex 1.45238 -17.12 2
    endloop
  endfacet
  facet normal -0.809017 0.587785 0
    outer loop
      vertex 4.29366 -14.5617 10
      vertex 4.29366 -14.5617 2
      vertex 3.14491 -16.1428 10
    endloop
  endfacet
  facet normal -0.809017 0.587785 0
    outer loop
      vertex 3.14491 -16.1428 10
      vertex 4.29366 -14.5617 2
      vertex 3.14491 -16.1428 2
    endloop
  endfacet
  facet normal -0.978148 0.207912 0
    outer loop
      vertex 4.7 -12.65 10
      vertex 4.7 -12.65 2
      vertex 4.29366 -14.5617 10
    endloop
  endfacet
  facet normal -0.978148 0.207912 0
    outer loop
      vertex 4.29366 -14.5617 10
      vertex 4.7 -12.65 2
      vertex 4.29366 -14.5617 2
    endloop
  endfacet
  facet normal -0.978148 -0.207912 0
    outer loop
      vertex 4.7 -12.65 10
      vertex 4.29366 -10.7383 10
      vertex 4.7 -12.65 2
    endloop
  endfacet
  facet normal -0.978148 -0.207912 0
    outer loop
      vertex 4.7 -12.65 2
      vertex 4.29366 -10.7383 10
      vertex 4.29366 -10.7383 2
    endloop
  endfacet
  facet normal -0.809017 -0.587785 0
    outer loop
      vertex 4.29366 -10.7383 10
      vertex 3.14491 -9.15722 10
      vertex 4.29366 -10.7383 2
    endloop
  endfacet
  facet normal -0.809017 -0.587785 0
    outer loop
      vertex 4.29366 -10.7383 2
      vertex 3.14491 -9.15722 10
      vertex 3.14491 -9.15722 2
    endloop
  endfacet
  facet normal -0.5 -0.866025 -0
    outer loop
      vertex 3.14491 -9.15722 2
      vertex 3.14491 -9.15722 10
      vertex 1.45238 -8.18003 10
    endloop
  endfacet
  facet normal -0.5 -0.866025 -0
    outer loop
      vertex 1.45238 -8.18003 2
      vertex 3.14491 -9.15722 2
      vertex 1.45238 -8.18003 10
    endloop
  endfacet
  facet normal -0.104528 -0.994522 -0
    outer loop
      vertex 1.45238 -8.18003 2
      vertex 1.45238 -8.18003 10
      vertex -0.491284 -7.97575 10
    endloop
  endfacet
  facet normal -0.104528 -0.994522 -0
    outer loop
      vertex -0.491284 -7.97575 2
      vertex 1.45238 -8.18003 2
      vertex -0.491284 -7.97575 10
    endloop
  endfacet
  facet normal 0.309017 -0.951056 0
    outer loop
      vertex -0.491284 -7.97575 2
      vertex -0.491284 -7.97575 10
      vertex -2.35 -8.57968 10
    endloop
  endfacet
  facet normal 0.309017 -0.951056 0
    outer loop
      vertex -2.35 -8.57968 2
      vertex -0.491284 -7.97575 2
      vertex -2.35 -8.57968 10
    endloop
  endfacet
  facet normal 0.66913 -0.743145 0
    outer loop
      vertex -2.35 -8.57968 2
      vertex -2.35 -8.57968 10
      vertex -3.80238 -9.88741 10
    endloop
  endfacet
  facet normal 0.66913 -0.743145 0
    outer loop
      vertex -3.80238 -9.88741 2
      vertex -2.35 -8.57968 2
      vertex -3.80238 -9.88741 10
    endloop
  endfacet
  facet normal 0.913545 -0.406737 0
    outer loop
      vertex -3.80238 -9.88741 2
      vertex -3.80238 -9.88741 10
      vertex -4.59729 -11.6728 10
    endloop
  endfacet
  facet normal 0.913545 -0.406737 0
    outer loop
      vertex -4.59729 -11.6728 2
      vertex -3.80238 -9.88741 2
      vertex -4.59729 -11.6728 10
    endloop
  endfacet
  facet normal 0 0 1
    outer loop
      vertex -3.80238 -34.6876 2
      vertex -2.35 -35.9953 2
      vertex -0.491284 -36.5993 2
    endloop
  endfacet
  facet normal -0 0 1
    outer loop
      vertex 3.14491 -35.4178 2
      vertex -3.80238 -34.6876 2
      vertex 1.45238 -36.395 2
    endloop
  endfacet
  facet normal -0 0 1
    outer loop
      vertex 1.45238 -36.395 2
      vertex -3.80238 -34.6876 2
      vertex -0.491284 -36.5993 2
    endloop
  endfacet
  facet normal -0 -0 1
    outer loop
      vertex -0.966451 -34.8994 2
      vertex -3.80238 -34.6876 2
      vertex 3.14491 -35.4178 2
    endloop
  endfacet
  facet normal 0 -0 1
    outer loop
      vertex 2.5302 -33.7633 2
      vertex 0.966451 -34.8994 2
      vertex 4.29366 -33.8367 2
    endloop
  endfacet
  facet normal 0 -0 1
    outer loop
      vertex 3.1275 -31.925 2
      vertex 2.5302 -33.7633 2
      vertex 4.7 -31.925 2
    endloop
  endfacet
  facet normal 0 0 1
    outer loop
      vertex -0.966451 -34.8994 2
      vertex -2.5302 -33.7633 2
      vertex -3.80238 -34.6876 2
    endloop
  endfacet
  facet normal 0 0 1
    outer loop
      vertex 0.966451 -28.9506 2
      vertex 2.5302 -30.0867 2
      vertex 3.14491 -28.4322 2
    endloop
  endfacet
  facet normal 0 -0 1
    outer loop
      vertex -3.80238 -29.1624 2
      vertex -3.80238 -34.6876 2
      vertex -2.35 -27.8547 2
    endloop
  endfacet
  facet normal 0 0 1
    outer loop
      vertex -4.59729 -30.9478 2
      vertex -3.80238 -34.6876 2
      vertex -3.80238 -29.1624 2
    endloop
  endfacet
  facet normal 0 0 1
    outer loop
      vertex -4.59729 -32.9022 2
      vertex -3.80238 -34.6876 2
      vertex -4.59729 -30.9478 2
    endloop
  endfacet
  facet normal 0 0 1
    outer loop
      vertex -0.966451 -28.9506 2
      vertex 0.966451 -28.9506 2
      vertex 1.45238 -27.455 2
    endloop
  endfacet
  facet normal 0 0 1
    outer loop
      vertex -2.35 -27.8547 2
      vertex -3.80238 -34.6876 2
      vertex -3.1275 -31.925 2
    endloop
  endfacet
  facet normal 0 -0 1
    outer loop
      vertex -2.35 -27.8547 2
      vertex -2.5302 -30.0867 2
      vertex -0.491284 -27.2507 2
    endloop
  endfacet
  facet normal 0 0 1
    outer loop
      vertex -2.35 -27.8547 2
      vertex -3.1275 -31.925 2
      vertex -2.5302 -30.0867 2
    endloop
  endfacet
  facet normal 0 -0 1
    outer loop
      vertex -0.491284 -27.2507 2
      vertex -0.966451 -28.9506 2
      vertex 1.45238 -27.455 2
    endloop
  endfacet
  facet normal 0 0 1
    outer loop
      vertex -2.5302 -30.0867 2
      vertex -0.966451 -28.9506 2
      vertex -0.491284 -27.2507 2
    endloop
  endfacet
  facet normal 0 -0 1
    outer loop
      vertex 1.45238 -27.455 2
      vertex 0.966451 -28.9506 2
      vertex 3.14491 -28.4322 2
    endloop
  endfacet
  facet normal 0 -0 1
    outer loop
      vertex 3.14491 -28.4322 2
      vertex 2.5302 -30.0867 2
      vertex 4.29366 -30.0133 2
    endloop
  endfacet
  facet normal 0 -0 1
    outer loop
      vertex 4.29366 -30.0133 2
      vertex 3.1275 -31.925 2
      vertex 4.7 -31.925 2
    endloop
  endfacet
  facet normal 0 0 1
    outer loop
      vertex 4.7 -31.925 2
      vertex 2.5302 -33.7633 2
      vertex 4.29366 -33.8367 2
    endloop
  endfacet
  facet normal 0 0 1
    outer loop
      vertex 4.29366 -33.8367 2
      vertex 0.966451 -34.8994 2
      vertex 3.14491 -35.4178 2
    endloop
  endfacet
  facet normal 0 -0 1
    outer loop
      vertex 0.966451 -34.8994 2
      vertex -0.966451 -34.8994 2
      vertex 3.14491 -35.4178 2
    endloop
  endfacet
  facet normal 0 0 1
    outer loop
      vertex 2.5302 -30.0867 2
      vertex 3.1275 -31.925 2
      vertex 4.29366 -30.0133 2
    endloop
  endfacet
  facet normal -0 0 1
    outer loop
      vertex -2.5302 -33.7633 2
      vertex -3.1275 -31.925 2
      vertex -3.80238 -34.6876 2
    endloop
  endfacet
  facet normal 0 0 1
    outer loop
      vertex -3.80238 -15.4126 2
      vertex -2.35 -16.7203 2
      vertex -0.491284 -17.3243 2
    endloop
  endfacet
  facet normal -0 0 1
    outer loop
      vertex 3.14491 -16.1428 2
      vertex -3.80238 -15.4126 2
      vertex 1.45238 -17.12 2
    endloop
  endfacet
  facet normal -0 0 1
    outer loop
      vertex 1.45238 -17.12 2
      vertex -3.80238 -15.4126 2
      vertex -0.491284 -17.3243 2
    endloop
  endfacet
  facet normal -0 -0 1
    outer loop
      vertex -0.966451 -15.6244 2
      vertex -3.80238 -15.4126 2
      vertex 3.14491 -16.1428 2
    endloop
  endfacet
  facet normal 0 -0 1
    outer loop
      vertex 2.5302 -14.4883 2
      vertex 0.966451 -15.6244 2
      vertex 4.29366 -14.5617 2
    endloop
  endfacet
  facet normal 0 -0 1
    outer loop
      vertex 3.1275 -12.65 2
      vertex 2.5302 -14.4883 2
      vertex 4.7 -12.65 2
    endloop
  endfacet
  facet normal 0 0 1
    outer loop
      vertex -0.966451 -15.6244 2
      vertex -2.5302 -14.4883 2
      vertex -3.80238 -15.4126 2
    endloop
  endfacet
  facet normal 0 0 1
    outer loop
      vertex 0.966451 -9.67557 2
      vertex 2.5302 -10.8117 2
      vertex 3.14491 -9.15722 2
    endloop
  endfacet
  facet normal 0 -0 1
    outer loop
      vertex -3.80238 -9.88741 2
      vertex -3.80238 -15.4126 2
      vertex -2.35 -8.57968 2
    endloop
  endfacet
  facet normal 0 0 1
    outer loop
      vertex -4.59729 -11.6728 2
      vertex -3.80238 -15.4126 2
      vertex -3.80238 -9.88741 2
    endloop
  endfacet
  facet normal 0 0 1
    outer loop
      vertex -4.59729 -13.6272 2
      vertex -3.80238 -15.4126 2
      vertex -4.59729 -11.6728 2
    endloop
  endfacet
  facet normal 0 0 1
    outer loop
      vertex -0.966451 -9.67557 2
      vertex 0.966451 -9.67557 2
      vertex 1.45238 -8.18003 2
    endloop
  endfacet
  facet normal 0 0 1
    outer loop
      vertex -2.35 -8.57968 2
      vertex -3.80238 -15.4126 2
      vertex -3.1275 -12.65 2
    endloop
  endfacet
  facet normal 0 -0 1
    outer loop
      vertex -2.35 -8.57968 2
      vertex -2.5302 -10.8117 2
      vertex -0.491284 -7.97575 2
    endloop
  endfacet
  facet normal 0 0 1
    outer loop
      vertex -2.35 -8.57968 2
      vertex -3.1275 -12.65 2
      vertex -2.5302 -10.8117 2
    endloop
  endfacet
  facet normal 0 -0 1
    outer loop
      vertex -0.491284 -7.97575 2
      vertex -0.966451 -9.67557 2
      vertex 1.45238 -8.18003 2
    endloop
  endfacet
  facet normal 0 0 1
    outer loop
      vertex -2.5302 -10.8117 2
      vertex -0.966451 -9.67557 2
      vertex -0.491284 -7.97575 2
    endloop
  endfacet
  facet normal 0 -0 1
    outer loop
      vertex 1.45238 -8.18003 2
      vertex 0.966451 -9.67557 2
      vertex 3.14491 -9.15722 2
    endloop
  endfacet
  facet normal 0 -0 1
    outer loop
      vertex 3.14491 -9.15722 2
      vertex 2.5302 -10.8117 2
      vertex 4.29366 -10.7383 2
    endloop
  endfacet
  facet normal 0 -0 1
    outer loop
      vertex 4.29366 -10.7383 2
      vertex 3.1275 -12.65 2
      vertex 4.7 -12.65 2
    endloop
  endfacet
  facet normal 0 0 1
    outer loop
      vertex 4.7 -12.65 2
      vertex 2.5302 -14.4883 2
      vertex 4.29366 -14.5617 2
    endloop
  endfacet
  facet normal 0 0 1
    outer loop
      vertex 4.29366 -14.5617 2
      vertex 0.966451 -15.6244 2
      vertex 3.14491 -16.1428 2
    endloop
  endfacet
  facet normal 0 -0 1
    outer loop
      vertex 0.966451 -15.6244 2
      vertex -0.966451 -15.6244 2
      vertex 3.14491 -16.1428 2
    endloop
  endfacet
  facet normal 0 0 1
    outer loop
      vertex 2.5302 -10.8117 2
      vertex 3.1275 -12.65 2
      vertex 4.29366 -10.7383 2
    endloop
  endfacet
  facet normal -0 0 1
    outer loop
      vertex -2.5302 -14.4883 2
      vertex -3.1275 -12.65 2
      vertex -3.80238 -15.4126 2
    endloop
  endfacet
  facet normal -1 -0 -0
    outer loop
      vertex -15 22.5 0
      vertex -15 22.5 10
      vertex -15 30.5 0
    endloop
  endfacet
  facet normal -1 0 0
    outer loop
      vertex -15 30.5 0
      vertex -15 22.5 10
      vertex -15 30.5 10
    endloop
  endfacet
  facet normal 0 -1 0
    outer loop
      vertex -8.87382 22.5 3.58782
      vertex -15 22.5 0
      vertex 15 22.5 0
    endloop
  endfacet
  facet normal 0 -1 0
    outer loop
      vertex 9.59807 22.5 3.23904
      vertex -15 22.5 10
      vertex 15 22.5 0
    endloop
  endfacet
  facet normal 0 -1 0
    outer loop
      vertex -15 22.5 10
      vertex -15 22.5 0
      vertex -11.6274 22.5 4.2163
    endloop
  endfacet
  facet normal 0 -1 0
    outer loop
      vertex -8.51143 22.5 4.34033
      vertex -8.87382 22.5 3.58782
      vertex 15 22.5 0
    endloop
  endfacet
  facet normal 0 -1 0
    outer loop
      vertex -15 22.5 10
      vertex -11.6274 22.5 4.2163
      vertex -11.6274 22.5 5.7837
    endloop
  endfacet
  facet normal -0 -1 0
    outer loop
      vertex 9.59807 22.5 6.76096
      vertex 10.3119 22.5 6.59804
      vertex 15 22.5 10
    endloop
  endfacet
  facet normal 0 -1 0
    outer loop
      vertex -15 22.5 10
      vertex -11.6274 22.5 5.7837
      vertex -11.0549 22.5 6.24021
    endloop
  endfacet
  facet normal 0 -1 0
    outer loop
      vertex -15 22.5 10
      vertex -11.0549 22.5 6.24021
      vertex -10.4019 22.5 6.76096
    endloop
  endfacet
  facet normal 0 -1 0
    outer loop
      vertex -8.55614 22.5 5.75251
      vertex -8.19375 22.5 5
      vertex 15 22.5 0
    endloop
  endfacet
  facet normal 0 -1 0
    outer loop
      vertex -15 22.5 10
      vertex -10.4019 22.5 6.76096
      vertex -9.68811 22.5 6.59804
    endloop
  endfacet
  facet normal 0 -1 0
    outer loop
      vertex -15 22.5 10
      vertex -8.87382 22.5 6.41218
      vertex 15 22.5 0
    endloop
  endfacet
  facet normal 0 -1 0
    outer loop
      vertex -15 22.5 10
      vertex -9.68811 22.5 6.59804
      vertex -8.87382 22.5 6.41218
    endloop
  endfacet
  facet normal 0 -1 0
    outer loop
      vertex -8.19375 22.5 5
      vertex -8.51143 22.5 4.34033
      vertex 15 22.5 0
    endloop
  endfacet
  facet normal -0 -1 0
    outer loop
      vertex -9.58764 22.5 3.42489
      vertex -15 22.5 0
      vertex -8.87382 22.5 3.58782
    endloop
  endfacet
  facet normal -0 -1 0
    outer loop
      vertex -10.4019 22.5 3.23904
      vertex -15 22.5 0
      vertex -9.58764 22.5 3.42489
    endloop
  endfacet
  facet normal 0 -1 0
    outer loop
      vertex -11.6274 22.5 4.2163
      vertex -15 22.5 0
      vertex -10.4019 22.5 3.23904
    endloop
  endfacet
  facet normal 0 -1.98439e-08 0
    outer loop
      vertex -11.6274 22.5 4.2163
      vertex -10.4019 22.5 3.23904
      vertex -10.9744 22.5 3.69554
    endloop
  endfacet
  facet normal 0 -1 0
    outer loop
      vertex 8.37262 22.5 5.7837
      vertex -15 22.5 10
      vertex 8.37262 22.5 4.2163
    endloop
  endfacet
  facet normal 0 -1 0
    outer loop
      vertex 8.94507 22.5 6.24021
      vertex -15 22.5 10
      vertex 8.37262 22.5 5.7837
    endloop
  endfacet
  facet normal -0 -1 0
    outer loop
      vertex 10.3119 22.5 6.59804
      vertex 11.1262 22.5 6.41218
      vertex 15 22.5 10
    endloop
  endfacet
  facet normal 0 -1 0
    outer loop
      vertex 9.59807 22.5 6.76096
      vertex -15 22.5 10
      vertex 8.94507 22.5 6.24021
    endloop
  endfacet
  facet normal 0 -1 0
    outer loop
      vertex 10.4124 22.5 3.42489
      vertex 9.59807 22.5 3.23904
      vertex 15 22.5 0
    endloop
  endfacet
  facet normal 0 -1 0
    outer loop
      vertex 15 22.5 10
      vertex -15 22.5 10
      vertex 9.59807 22.5 6.76096
    endloop
  endfacet
  facet normal 0 -1 0
    outer loop
      vertex 15 22.5 10
      vertex 11.1262 22.5 6.41218
      vertex 15 22.5 0
    endloop
  endfacet
  facet normal 0 -1 0
    outer loop
      vertex 11.1262 22.5 6.41218
      vertex 11.4439 22.5 5.75251
      vertex 15 22.5 0
    endloop
  endfacet
  facet normal 0 -1 0
    outer loop
      vertex 11.4439 22.5 5.75251
      vertex 11.8062 22.5 5
      vertex 15 22.5 0
    endloop
  endfacet
  facet normal 0 -1 0
    outer loop
      vertex 11.8062 22.5 5
      vertex 11.4886 22.5 4.34033
      vertex 15 22.5 0
    endloop
  endfacet
  facet normal 0 -1 0
    outer loop
      vertex 11.4886 22.5 4.34033
      vertex 11.1262 22.5 3.58782
      vertex 15 22.5 0
    endloop
  endfacet
  facet normal 0 -1 0
    outer loop
      vertex 11.1262 22.5 3.58782
      vertex 10.4124 22.5 3.42489
      vertex 15 22.5 0
    endloop
  endfacet
  facet normal 0 -1 0
    outer loop
      vertex 8.37262 22.5 4.2163
      vertex -15 22.5 10
      vertex 9.59807 22.5 3.23904
    endloop
  endfacet
  facet normal 0 -1.98439e-08 0
    outer loop
      vertex 8.37262 22.5 4.2163
      vertex 9.59807 22.5 3.23904
      vertex 9.02563 22.5 3.69554
    endloop
  endfacet
  facet normal 0 -1 0
    outer loop
      vertex -8.87382 22.5 6.41218
      vertex -8.55614 22.5 5.75251
      vertex 15 22.5 0
    endloop
  endfacet
  facet normal -0 -0 -1
    outer loop
      vertex -15 22.5 0
      vertex -15 30.5 0
      vertex 15 22.5 0
    endloop
  endfacet
  facet normal 0 0 -1
    outer loop
      vertex 15 22.5 0
      vertex -15 30.5 0
      vertex 15 30.5 0
    endloop
  endfacet
  facet normal 0 1 0
    outer loop
      vertex -8.78653 30.5 6.52164
      vertex -15 30.5 10
      vertex 15 30.5 0
    endloop
  endfacet
  facet normal 0 1 0
    outer loop
      vertex 9.56692 30.5 6.89745
      vertex -15 30.5 10
      vertex 15 30.5 10
    endloop
  endfacet
  facet normal 0 1 0
    outer loop
      vertex -15 30.5 0
      vertex -15 30.5 10
      vertex -11.7535 30.5 5.84445
    endloop
  endfacet
  facet normal 0 1 0
    outer loop
      vertex -15 30.5 0
      vertex -11.7535 30.5 5.84445
      vertex -11.7535 30.5 4.15555
    endloop
  endfacet
  facet normal 0 1 0
    outer loop
      vertex -15 30.5 0
      vertex -11.7535 30.5 4.15555
      vertex -10.802 30.5 3.39674
    endloop
  endfacet
  facet normal 0 1 0
    outer loop
      vertex -15 30.5 0
      vertex -10.802 30.5 3.39674
      vertex -10.4331 30.5 3.10255
    endloop
  endfacet
  facet normal 0 1 0
    outer loop
      vertex -15 30.5 0
      vertex -10.4331 30.5 3.10255
      vertex 15 30.5 0
    endloop
  endfacet
  facet normal 0 1 -0
    outer loop
      vertex -8.25848 30.5 4.57488
      vertex 15 30.5 0
      vertex -8.78653 30.5 3.47836
    endloop
  endfacet
  facet normal 0 1 0
    outer loop
      vertex -9.24655 30.5 3.37336
      vertex -8.78653 30.5 3.47836
      vertex 15 30.5 0
    endloop
  endfacet
  facet normal 0 1 0
    outer loop
      vertex -8.58181 30.5 6.09652
      vertex 15 30.5 0
      vertex -8.05375 30.5 5
    endloop
  endfacet
  facet normal 0 1 0
    outer loop
      vertex -8.25848 30.5 4.57488
      vertex -8.05375 30.5 5
      vertex 15 30.5 0
    endloop
  endfacet
  facet normal 0 1 -0
    outer loop
      vertex 10.7534 30.5 3.37336
      vertex 15 30.5 0
      vertex 9.56692 30.5 3.10255
    endloop
  endfacet
  facet normal 0 1 0
    outer loop
      vertex -9.97306 30.5 6.79246
      vertex -15 30.5 10
      vertex -8.78653 30.5 6.52164
    endloop
  endfacet
  facet normal 0 1 0
    outer loop
      vertex -8.58181 30.5 6.09652
      vertex -8.78653 30.5 6.52164
      vertex 15 30.5 0
    endloop
  endfacet
  facet normal 0 1 0
    outer loop
      vertex -10.4331 30.5 6.89745
      vertex -15 30.5 10
      vertex -9.97306 30.5 6.79246
    endloop
  endfacet
  facet normal 0 1 0
    outer loop
      vertex -11.3846 30.5 6.13864
      vertex -15 30.5 10
      vertex -10.4331 30.5 6.89745
    endloop
  endfacet
  facet normal 0 1 0
    outer loop
      vertex -11.7535 30.5 5.84445
      vertex -15 30.5 10
      vertex -11.3846 30.5 6.13864
    endloop
  endfacet
  facet normal 0 1 0
    outer loop
      vertex 8.24649 30.5 4.15555
      vertex -15 30.5 10
      vertex 8.24649 30.5 5.84445
    endloop
  endfacet
  facet normal 0 1 0
    outer loop
      vertex 9.19801 30.5 3.39674
      vertex -15 30.5 10
      vertex 8.24649 30.5 4.15555
    endloop
  endfacet
  facet normal 0 1 0
    outer loop
      vertex 9.56692 30.5 3.10255
      vertex -15 30.5 10
      vertex 9.19801 30.5 3.39674
    endloop
  endfacet
  facet normal 0 1 0
    outer loop
      vertex 15 30.5 0
      vertex -15 30.5 10
      vertex 9.56692 30.5 3.10255
    endloop
  endfacet
  facet normal 0 1 -0
    outer loop
      vertex 11.2135 30.5 3.47836
      vertex 15 30.5 0
      vertex 10.7534 30.5 3.37336
    endloop
  endfacet
  facet normal 0 1 0
    outer loop
      vertex 9.56692 30.5 6.89745
      vertex 15 30.5 10
      vertex 10.0269 30.5 6.79246
    endloop
  endfacet
  facet normal 0 1 0
    outer loop
      vertex 15 30.5 0
      vertex 11.2135 30.5 3.47836
      vertex 15 30.5 10
    endloop
  endfacet
  facet normal 0 1 0
    outer loop
      vertex 11.2135 30.5 3.47836
      vertex 11.7415 30.5 4.57488
      vertex 15 30.5 10
    endloop
  endfacet
  facet normal 0 1 0
    outer loop
      vertex 11.7415 30.5 4.57488
      vertex 11.9462 30.5 5
      vertex 15 30.5 10
    endloop
  endfacet
  facet normal 0 1 0
    outer loop
      vertex 11.9462 30.5 5
      vertex 11.4182 30.5 6.09652
      vertex 15 30.5 10
    endloop
  endfacet
  facet normal 0 1 0
    outer loop
      vertex 11.4182 30.5 6.09652
      vertex 11.2135 30.5 6.52164
      vertex 15 30.5 10
    endloop
  endfacet
  facet normal 0 1 0
    outer loop
      vertex 11.2135 30.5 6.52164
      vertex 10.0269 30.5 6.79246
      vertex 15 30.5 10
    endloop
  endfacet
  facet normal 0 1 0
    outer loop
      vertex 8.6154 30.5 6.13864
      vertex -15 30.5 10
      vertex 9.56692 30.5 6.89745
    endloop
  endfacet
  facet normal 0 1 0
    outer loop
      vertex 8.24649 30.5 5.84445
      vertex -15 30.5 10
      vertex 8.6154 30.5 6.13864
    endloop
  endfacet
  facet normal 0 1 -0
    outer loop
      vertex -9.24655 30.5 3.37336
      vertex 15 30.5 0
      vertex -10.4331 30.5 3.10255
    endloop
  endfacet
  facet normal 0 -0 1
    outer loop
      vertex -15 30.5 10
      vertex -15 22.5 10
      vertex 15 22.5 10
    endloop
  endfacet
  facet normal 0 0 1
    outer loop
      vertex 15 30.5 10
      vertex -15 30.5 10
      vertex 15 22.5 10
    endloop
  endfacet
  facet normal 1 0 -0
    outer loop
      vertex 15 22.5 10
      vertex 15 22.5 0
      vertex 15 30.5 0
    endloop
  endfacet
  facet normal 1 0 0
    outer loop
      vertex 15 30.5 10
      vertex 15 22.5 10
      vertex 15 30.5 0
    endloop
  endfacet
  facet normal 0.999876 0.015765 0
    outer loop
      vertex -11.7535 30.5 5.84445
      vertex -11.6274 22.5 5.7837
      vertex -11.6274 22.5 4.2163
    endloop
  endfacet
  facet normal 0.999876 0.015765 0
    outer loop
      vertex -11.7535 30.5 4.15555
      vertex -11.7535 30.5 5.84445
      vertex -11.6274 22.5 4.2163
    endloop
  endfacet
  facet normal 0.623412 0.015765 0.781734
    outer loop
      vertex -11.6274 22.5 4.2163
      vertex -10.9744 22.5 3.69554
      vertex -10.802 30.5 3.39674
    endloop
  endfacet
  facet normal 0.623412 0.015765 0.781734
    outer loop
      vertex -11.7535 30.5 4.15555
      vertex -11.6274 22.5 4.2163
      vertex -10.802 30.5 3.39674
    endloop
  endfacet
  facet normal 0.623412 0.015765 0.781734
    outer loop
      vertex -10.4019 22.5 3.23904
      vertex -10.4331 30.5 3.10255
      vertex -10.802 30.5 3.39674
    endloop
  endfacet
  facet normal 0.623412 0.015765 0.781734
    outer loop
      vertex -10.9744 22.5 3.69554
      vertex -10.4019 22.5 3.23904
      vertex -10.802 30.5 3.39674
    endloop
  endfacet
  facet normal -0.222493 0.015765 0.974807
    outer loop
      vertex -10.4019 22.5 3.23904
      vertex -9.58764 22.5 3.42489
      vertex -9.24655 30.5 3.37336
    endloop
  endfacet
  facet normal -0.222493 0.015765 0.974807
    outer loop
      vertex -10.4331 30.5 3.10255
      vertex -10.4019 22.5 3.23904
      vertex -9.24655 30.5 3.37336
    endloop
  endfacet
  facet normal -0.222494 0.015765 0.974807
    outer loop
      vertex -8.87382 22.5 3.58782
      vertex -8.78653 30.5 3.47836
      vertex -9.24655 30.5 3.37336
    endloop
  endfacet
  facet normal -0.222494 0.015765 0.974807
    outer loop
      vertex -9.58764 22.5 3.42489
      vertex -8.87382 22.5 3.58782
      vertex -9.24655 30.5 3.37336
    endloop
  endfacet
  facet normal -0.900857 0.015765 0.43383
    outer loop
      vertex -8.25848 30.5 4.57488
      vertex -8.78653 30.5 3.47836
      vertex -8.51143 22.5 4.34033
    endloop
  endfacet
  facet normal -0.900857 0.015765 0.43383
    outer loop
      vertex -8.51143 22.5 4.34033
      vertex -8.78653 30.5 3.47836
      vertex -8.87382 22.5 3.58782
    endloop
  endfacet
  facet normal -0.900857 0.015765 0.43383
    outer loop
      vertex -8.05375 30.5 5
      vertex -8.25848 30.5 4.57488
      vertex -8.19375 22.5 5
    endloop
  endfacet
  facet normal -0.900857 0.015765 0.43383
    outer loop
      vertex -8.19375 22.5 5
      vertex -8.25848 30.5 4.57488
      vertex -8.51143 22.5 4.34033
    endloop
  endfacet
  facet normal -0.900857 0.015765 -0.43383
    outer loop
      vertex -8.19375 22.5 5
      vertex -8.55614 22.5 5.75251
      vertex -8.05375 30.5 5
    endloop
  endfacet
  facet normal -0.900857 0.015765 -0.43383
    outer loop
      vertex -8.05375 30.5 5
      vertex -8.55614 22.5 5.75251
      vertex -8.58181 30.5 6.09652
    endloop
  endfacet
  facet normal -0.900857 0.015765 -0.43383
    outer loop
      vertex -8.58181 30.5 6.09652
      vertex -8.55614 22.5 5.75251
      vertex -8.78653 30.5 6.52164
    endloop
  endfacet
  facet normal -0.900857 0.015765 -0.43383
    outer loop
      vertex -8.78653 30.5 6.52164
      vertex -8.55614 22.5 5.75251
      vertex -8.87382 22.5 6.41218
    endloop
  endfacet
  facet normal -0.222493 0.015765 -0.974807
    outer loop
      vertex -8.87382 22.5 6.41218
      vertex -9.68811 22.5 6.59804
      vertex -8.78653 30.5 6.52164
    endloop
  endfacet
  facet normal -0.222493 0.015765 -0.974807
    outer loop
      vertex -8.78653 30.5 6.52164
      vertex -9.68811 22.5 6.59804
      vertex -9.97306 30.5 6.79246
    endloop
  endfacet
  facet normal -0.222494 0.015765 -0.974807
    outer loop
      vertex -9.68811 22.5 6.59804
      vertex -10.4019 22.5 6.76096
      vertex -9.97306 30.5 6.79246
    endloop
  endfacet
  facet normal -0.222494 0.015765 -0.974807
    outer loop
      vertex -9.97306 30.5 6.79246
      vertex -10.4019 22.5 6.76096
      vertex -10.4331 30.5 6.89745
    endloop
  endfacet
  facet normal 0.623412 0.015765 -0.781734
    outer loop
      vertex -10.4019 22.5 6.76096
      vertex -11.0549 22.5 6.24021
      vertex -10.4331 30.5 6.89745
    endloop
  endfacet
  facet normal 0.623412 0.015765 -0.781734
    outer loop
      vertex -10.4331 30.5 6.89745
      vertex -11.0549 22.5 6.24021
      vertex -11.3846 30.5 6.13864
    endloop
  endfacet
  facet normal 0.623412 0.015765 -0.781734
    outer loop
      vertex -11.0549 22.5 6.24021
      vertex -11.6274 22.5 5.7837
      vertex -11.3846 30.5 6.13864
    endloop
  endfacet
  facet normal 0.623412 0.015765 -0.781734
    outer loop
      vertex -11.3846 30.5 6.13864
      vertex -11.6274 22.5 5.7837
      vertex -11.7535 30.5 5.84445
    endloop
  endfacet
  facet normal 0.999876 0.015765 0
    outer loop
      vertex 8.24649 30.5 5.84445
      vertex 8.37262 22.5 5.7837
      vertex 8.37262 22.5 4.2163
    endloop
  endfacet
  facet normal 0.999876 0.015765 0
    outer loop
      vertex 8.24649 30.5 4.15555
      vertex 8.24649 30.5 5.84445
      vertex 8.37262 22.5 4.2163
    endloop
  endfacet
  facet normal 0.623412 0.015765 0.781734
    outer loop
      vertex 8.37262 22.5 4.2163
      vertex 9.02563 22.5 3.69554
      vertex 9.19801 30.5 3.39674
    endloop
  endfacet
  facet normal 0.623412 0.015765 0.781734
    outer loop
      vertex 8.24649 30.5 4.15555
      vertex 8.37262 22.5 4.2163
      vertex 9.19801 30.5 3.39674
    endloop
  endfacet
  facet normal 0.623412 0.015765 0.781734
    outer loop
      vertex 9.59807 22.5 3.23904
      vertex 9.56692 30.5 3.10255
      vertex 9.19801 30.5 3.39674
    endloop
  endfacet
  facet normal 0.623412 0.015765 0.781734
    outer loop
      vertex 9.02563 22.5 3.69554
      vertex 9.59807 22.5 3.23904
      vertex 9.19801 30.5 3.39674
    endloop
  endfacet
  facet normal -0.222493 0.015765 0.974807
    outer loop
      vertex 9.59807 22.5 3.23904
      vertex 10.4124 22.5 3.42489
      vertex 10.7534 30.5 3.37336
    endloop
  endfacet
  facet normal -0.222493 0.015765 0.974807
    outer loop
      vertex 9.56692 30.5 3.10255
      vertex 9.59807 22.5 3.23904
      vertex 10.7534 30.5 3.37336
    endloop
  endfacet
  facet normal -0.222494 0.015765 0.974807
    outer loop
      vertex 11.1262 22.5 3.58782
      vertex 11.2135 30.5 3.47836
      vertex 10.7534 30.5 3.37336
    endloop
  endfacet
  facet normal -0.222494 0.015765 0.974807
    outer loop
      vertex 10.4124 22.5 3.42489
      vertex 11.1262 22.5 3.58782
      vertex 10.7534 30.5 3.37336
    endloop
  endfacet
  facet normal -0.900857 0.015765 0.43383
    outer loop
      vertex 11.7415 30.5 4.57488
      vertex 11.2135 30.5 3.47836
      vertex 11.4886 22.5 4.34033
    endloop
  endfacet
  facet normal -0.900857 0.015765 0.43383
    outer loop
      vertex 11.4886 22.5 4.34033
      vertex 11.2135 30.5 3.47836
      vertex 11.1262 22.5 3.58782
    endloop
  endfacet
  facet normal -0.900857 0.015765 0.43383
    outer loop
      vertex 11.9462 30.5 5
      vertex 11.7415 30.5 4.57488
      vertex 11.8062 22.5 5
    endloop
  endfacet
  facet normal -0.900857 0.015765 0.43383
    outer loop
      vertex 11.8062 22.5 5
      vertex 11.7415 30.5 4.57488
      vertex 11.4886 22.5 4.34033
    endloop
  endfacet
  facet normal -0.900857 0.015765 -0.43383
    outer loop
      vertex 11.8062 22.5 5
      vertex 11.4439 22.5 5.75251
      vertex 11.9462 30.5 5
    endloop
  endfacet
  facet normal -0.900857 0.015765 -0.43383
    outer loop
      vertex 11.9462 30.5 5
      vertex 11.4439 22.5 5.75251
      vertex 11.4182 30.5 6.09652
    endloop
  endfacet
  facet normal -0.900857 0.015765 -0.43383
    outer loop
      vertex 11.4182 30.5 6.09652
      vertex 11.4439 22.5 5.75251
      vertex 11.2135 30.5 6.52164
    endloop
  endfacet
  facet normal -0.900857 0.015765 -0.43383
    outer loop
      vertex 11.2135 30.5 6.52164
      vertex 11.4439 22.5 5.75251
      vertex 11.1262 22.5 6.41218
    endloop
  endfacet
  facet normal -0.222493 0.015765 -0.974807
    outer loop
      vertex 11.1262 22.5 6.41218
      vertex 10.3119 22.5 6.59804
      vertex 11.2135 30.5 6.52164
    endloop
  endfacet
  facet normal -0.222493 0.015765 -0.974807
    outer loop
      vertex 11.2135 30.5 6.52164
      vertex 10.3119 22.5 6.59804
      vertex 10.0269 30.5 6.79246
    endloop
  endfacet
  facet normal -0.222494 0.015765 -0.974807
    outer loop
      vertex 10.3119 22.5 6.59804
      vertex 9.59807 22.5 6.76096
      vertex 10.0269 30.5 6.79246
    endloop
  endfacet
  facet normal -0.222494 0.015765 -0.974807
    outer loop
      vertex 10.0269 30.5 6.79246
      vertex 9.59807 22.5 6.76096
      vertex 9.56692 30.5 6.89745
    endloop
  endfacet
  facet normal 0.623412 0.015765 -0.781734
    outer loop
      vertex 9.59807 22.5 6.76096
      vertex 8.94507 22.5 6.24021
      vertex 9.56692 30.5 6.89745
    endloop
  endfacet
  facet normal 0.623412 0.015765 -0.781734
    outer loop
      vertex 9.56692 30.5 6.89745
      vertex 8.94507 22.5 6.24021
      vertex 8.6154 30.5 6.13864
    endloop
  endfacet
  facet normal 0.623412 0.015765 -0.781734
    outer loop
      vertex 8.94507 22.5 6.24021
      vertex 8.37262 22.5 5.7837
      vertex 8.6154 30.5 6.13864
    endloop
  endfacet
  facet normal 0.623412 0.015765 -0.781734
    outer loop
      vertex 8.6154 30.5 6.13864
      vertex 8.37262 22.5 5.7837
      vertex 8.24649 30.5 5.84445
    endloop
  endfacet
endsolid OpenSCAD_Model
